SplineFontDB: 1.0
FontName: DBThaiText-Oblique
FullName: DBThaiText Oblique
FamilyName: DBThaiText
Weight: Medium
Copyright: Typeface (c) The Monotype Corporation plc. Data (c) The Monotype Corporation plc/Type Solutions Inc. 1990-1992. All Rights Reserved\n\nModified by TLWG
Version: 1.1 : May 12, 2003
ItalicAngle: -12.4
UnderlinePosition: -477
UnderlineWidth: 205
Ascent: 1638
Descent: 410
NeedsXUIDChange: 1
FSType: 0
PfmFamily: 33
TTFWeight: 500
TTFWidth: 5
Panose: 2 0 6 3 0 0 0 0 0 0
LineGap: 184
VLineGap: 0
ScriptLang: 2
 1 latn 1 dflt 
 1 thai 1 dflt 
LangName: 1033 "" "" "" "PfaEdit : DBThaiTextOblique : 13-0-2003" 
Encoding: compacted
OldEncoding: iso8859_1
UnicodeInterp: none
DisplaySize: -72
AntiAlias: 1
FitToEm: 1
WinInfo: 184 8 2
BeginPrivate: 2
BlueValues 37 [-33 9 0 0 744 782 786 804 1010 1029]
OtherBlues 11 [-272 -270]
EndPrivate
BeginChars: 292 257
StartChar: .notdef
Encoding: 0 -1 0
OldEncoding: 0
Width: 1090
Flags: W
HStem: -55 144<243 935> 1745 144<492 1185>
DStem: 492 1889 607 1745 65 -55 243 89 1185 1745 1362 1889 821 89 935 -55
Fore
65 -55 m 1
 492 1889 l 1
 1362 1889 l 1
 935 -55 l 1
 65 -55 l 1
243 89 m 1
 821 89 l 1
 1185 1745 l 1
 607 1745 l 1
 243 89 l 1
EndSplineSet
EndChar
StartChar: exclam
Encoding: 33 33 3
OldEncoding: 33
Width: 359
Flags: W
HStem: -1 21G<24 141> 990 20G<247 363>
DStem: 54 142 172 142 24 -1 141 -1 247 1010 363 1010 138 513 253 513
Fore
163 230 m 1
 104 230 l 1
 138 513 l 1
 247 1010 l 1
 363 1010 l 1
 253 513 l 1
 163 230 l 1
54 142 m 1
 172 142 l 1
 141 -1 l 1
 24 -1 l 1
 54 142 l 1
EndSplineSet
EndChar
StartChar: quotedbl
Encoding: 34 34 4
OldEncoding: 34
Width: 463
Flags: W
HStem: 991 20G<161 279 378 496>
DStem: 161 1011 279 1011 126 854 244 854 378 1011 496 1011 343 854 461 854
Fore
116 672 m 5
 126 854 l 5
 161 1011 l 5
 279 1011 l 5
 244 854 l 5
 173 672 l 5
 116 672 l 5
333 672 m 5
 343 854 l 5
 378 1011 l 5
 496 1011 l 5
 461 854 l 5
 390 672 l 5
 333 672 l 5
EndSplineSet
EndChar
StartChar: numbersign
Encoding: 35 35 5
OldEncoding: 35
Width: 728
Flags: W
HStem: -25 21G<-55 49 225 329> 266 112<-55 60 214 340 492 608> 590 111<68 192 340 467 621 724>
DStem: 60 266 168 266 -55 -25 49 -25 192 590 299 590 105 378 214 378 340 266 446 266 225 -25 329 -25 344 972 451 972 233 701 340 701 467 590 576 590 385 378 492 378 622 972 730 972 513 701 621 701
Fore
344 972 m 1
 451 972 l 1
 340 701 l 1
 513 701 l 1
 622 972 l 1
 730 972 l 1
 621 701 l 1
 749 701 l 1
 724 590 l 1
 576 590 l 1
 492 378 l 1
 633 378 l 1
 608 266 l 1
 446 266 l 1
 329 -25 l 1
 225 -25 l 1
 340 266 l 1
 168 266 l 1
 49 -25 l 1
 -55 -25 l 1
 60 266 l 1
 -79 266 l 1
 -54 378 l 1
 105 378 l 1
 192 590 l 1
 44 590 l 1
 69 701 l 1
 233 701 l 1
 344 972 l 1
299 590 m 1
 214 378 l 1
 385 378 l 1
 467 590 l 1
 299 590 l 1
EndSplineSet
EndChar
StartChar: dollar
Encoding: 36 36 6
OldEncoding: 36
Width: 728
Flags: W
HStem: 899 175<424 491.219>
DStem: 182 -27 268 -25 151 -168 236 -168 287 447 367 434 203 70 286 72 387 902 471 899 313 571 394 558
Fore
699 728 m 1
 590 728 l 1
 594 751 595 772 593 792 c 0
 591 812 585 830 576 845 c 0
 557 881 523 899 471 899 c 1
 394 558 l 1
 466 537 515 519 544 503 c 1
 578 488 603 462 622 425 c 0
 630 410 635 392 637 372 c 0
 641 337 638 302 630 267 c 0
 614 195 577 134 519 82 c 0
 463 30 404 -1 344 -10 c 2
 268 -25 l 1
 236 -168 l 1
 151 -168 l 1
 182 -27 l 1
 124 -14 81 -3 52 8 c 0
 20 21 -8 50 -32 96 c 0
 -43 115 -49 136 -52 160 c 0
 -55 195 -50 240 -37 295 c 1
 67 295 l 1
 61 253 61 219 64 193 c 2
 64 186 l 2
 67 164 77 141 96 119 c 1
 118 99 153 83 203 70 c 1
 287 447 l 1
 215 473 l 2
 184 484 158 495 139 507 c 0
 118 519 102 534 90 551 c 0
 79 570 73 593 70 619 c 0
 66 653 70 697 81 750 c 1
 110 832 153 892 210 931 c 0
 268 970 335 994 409 1001 c 1
 424 1074 l 1
 508 1074 l 1
 492 1001 l 1
 569 994 627 969 667 926 c 0
 690 904 703 875 707 841 c 2
 707 834 l 1
 708 789 706 754 699 728 c 1
313 571 m 1
 387 902 l 1
 346 899 306 886 269 861 c 0
 267 859 266 858 264 858 c 0
 226 827 202 793 190 754 c 0
 184 731 182 710 184 690 c 0
 187 666 194 647 207 633 c 1
 229 600 264 580 313 571 c 1
367 434 m 1
 286 72 l 1
 306 74 333 81 365 94 c 0
 395 103 424 123 452 151 c 0
 480 181 499 219 509 264 c 0
 513 283 514 303 512 323 c 0
 510 345 501 363 486 378 c 1
 457 400 417 418 367 434 c 1
EndSplineSet
EndChar
StartChar: percent
Encoding: 37 37 7
OldEncoding: 37
Width: 1162
Flags: W
HStem: -26 97<766 789> 351 97<848 872> 479 97<200 222> 856 97<281 305>
DStem: 879 985 972 985 107 -26 202 -26
Fore
879 985 m 1
 972 985 l 1
 202 -26 l 1
 107 -26 l 1
 879 985 l 1
12 715 m 1
 26 781 62 837 119 883 c 0
 177 930 239 953 305 953 c 0
 371 953 421 930 457 883 c 1
 479 858 492 827 496 791 c 0
 498 770 496 744 489 715 c 0
 476 650 439 595 382 548 c 0
 324 502 264 479 200 479 c 0
 136 479 85 502 48 548 c 0
 26 575 12 607 8 643 c 0
 6 662 7 686 12 715 c 1
579 212 m 0
 592 276 628 331 689 379 c 1
 743 425 805 448 872 448 c 0
 912 448 950 438 983 417 c 0
 1015 396 1037 367 1048 331 c 1
 1054 317 1057 303 1059 287 c 0
 1061 263 1060 238 1054 212 c 0
 1039 144 1004 88 948 44 c 0
 890 -3 830 -26 766 -26 c 0
 702 -26 650 -3 612 44 c 0
 592 71 579 103 575 139 c 0
 573 160 575 184 579 212 c 0
109 715 m 1
 107 698 106 684 107 673 c 0
 109 653 117 634 132 618 c 1
 153 590 182 576 220 576 c 0
 260 576 297 590 330 618 c 0
 364 644 384 676 392 715 c 0
 394 731 395 746 393 759 c 1
 388 786 l 1
 379 809 365 826 349 837 c 0
 331 850 308 856 282 856 c 0
 245 856 209 843 175 817 c 1
 140 786 119 752 109 715 c 1
676 212 m 0
 673 196 673 182 674 168 c 0
 676 149 684 131 698 113 c 0
 720 85 751 71 789 71 c 0
 825 71 860 85 894 113 c 1
 927 138 949 171 957 212 c 0
 959 229 959 244 958 256 c 0
 956 276 950 294 940 309 c 1
 916 337 885 351 849 351 c 0
 811 351 776 337 743 309 c 0
 707 282 685 249 676 212 c 0
EndSplineSet
EndChar
StartChar: ampersand
Encoding: 38 38 8
OldEncoding: 38
Width: 881
Flags: W
HStem: -31 112<186 229> 2 21G<574 724> 890 97<454 481>
DStem: 302 468 417 528 464 190 549 303
Fore
724 2 m 1
 574 2 l 1
 510 104 l 1
 471 77 l 1
 457 64 439 51 415 37 c 0
 398 26 377 14 349 0 c 1
 289 -20 234 -31 186 -31 c 0
 130 -31 84 -18 45 7 c 0
 -4 41 -32 88 -39 148 c 0
 -42 177 -40 204 -35 227 c 0
 -24 290 -1 343 36 386 c 1
 68 429 113 466 173 499 c 2
 255 548 l 1
 222 616 l 1
 205 643 196 671 193 701 c 0
 191 721 192 744 197 771 c 0
 213 846 259 905 335 949 c 0
 381 975 429 987 481 987 c 0
 543 987 591 968 626 928 c 0
 650 900 664 867 668 830 c 0
 670 810 669 791 665 773 c 0
 657 734 637 697 603 662 c 1
 570 621 535 592 500 574 c 2
 417 528 l 1
 549 303 l 1
 592 364 618 418 629 466 c 1
 740 466 l 1
 733 431 715 388 686 338 c 0
 656 284 627 243 601 212 c 1
 724 2 l 1
546 833 m 1
 544 852 535 866 519 875 c 0
 502 885 480 890 454 890 c 0
 424 890 398 883 377 868 c 0
 352 852 334 830 320 801 c 1
 313 770 311 745 313 724 c 1
 317 706 l 1
 322 690 340 659 370 614 c 1
 407 626 442 645 477 671 c 0
 518 699 541 733 548 773 c 0
 551 786 552 801 550 817 c 1
 546 833 l 1
464 190 m 1
 302 468 l 1
 245 435 l 2
 222 421 199 405 179 389 c 0
 163 374 143 351 121 320 c 1
 103 290 90 259 82 229 c 1
 84 208 l 2
 87 181 98 156 116 132 c 1
 139 98 177 81 229 81 c 0
 263 81 298 88 331 102 c 0
 359 111 403 141 464 190 c 1
EndSplineSet
EndChar
StartChar: quotesingle
Encoding: 39 39 9
OldEncoding: 39
Width: 249
Flags: W
HStem: 991 20G<161 279>
DStem: 161 1011 279 1011 126 854 244 854
Fore
116 672 m 5
 126 854 l 5
 161 1011 l 5
 279 1011 l 5
 244 854 l 5
 173 672 l 5
 116 672 l 5
EndSplineSet
EndChar
StartChar: parenleft
Encoding: 40 40 10
OldEncoding: 40
Width: 423
Flags: W
HStem: 1007 20G<434 513>
Fore
434 1027 m 1
 513 1027 l 1
 418 909 345 797 295 689 c 0
 241 576 204 471 185 374 c 0
 163 276 154 172 158 62 c 1
 162 -17 l 1
 171 -102 193 -190 227 -280 c 1
 148 -280 l 1
 128 -240 109 -192 92 -137 c 1
 77 -95 65 -40 56 29 c 1
 53 55 l 2
 48 103 46 154 48 208 c 0
 50 261 56 317 68 374 c 0
 86 453 113 530 147 606 c 0
 181 684 225 761 279 835 c 1
 327 906 378 970 434 1027 c 1
EndSplineSet
EndChar
StartChar: parenright
Encoding: 41 41 11
OldEncoding: 41
Width: 447
Flags: W
HStem: 1007 20G<186 262>
Fore
186 1027 m 1
 262 1027 l 1
 295 968 319 904 335 835 c 0
 345 796 353 749 359 694 c 1
 365 603 l 1
 366 518 360 442 345 374 c 0
 327 300 300 224 265 146 c 0
 231 69 188 -7 134 -84 c 0
 76 -166 24 -232 -25 -280 c 1
 -100 -280 l 1
 -35 -203 19 -124 63 -44 c 1
 109 32 144 106 170 177 c 0
 198 250 217 315 229 374 c 0
 240 425 247 472 252 518 c 0
 255 567 257 619 255 674 c 1
 250 740 l 1
 235 851 l 1
 223 918 207 977 186 1027 c 1
EndSplineSet
EndChar
StartChar: asterisk
Encoding: 42 42 12
OldEncoding: 42
Width: 508
Flags: W
DStem: 125 763 178 719 4 640 60 591 178 719 249 763 236 589 312 638 194 989 278 989 164 834 241 834
Fore
-14 807 m 1
 31 887 l 1
 164 834 l 1
 194 989 l 1
 278 989 l 1
 241 834 l 1
 395 885 l 1
 406 799 l 1
 249 763 l 1
 312 638 l 1
 236 589 l 1
 178 719 l 1
 60 591 l 1
 4 640 l 1
 125 763 l 1
 -14 807 l 1
EndSplineSet
EndChar
StartChar: plus
Encoding: 43 43 13
OldEncoding: 43
Width: 762
Flags: W
HStem: 450 97<76 342 459 724>
DStem: 342 450 437 450 277 163 374 163 424 835 521 835 364 547 459 547
Fore
424 835 m 5
 521 835 l 5
 459 547 l 5
 746 547 l 5
 724 450 l 5
 437 450 l 5
 374 163 l 5
 277 163 l 5
 342 450 l 5
 55 450 l 5
 77 547 l 5
 364 547 l 5
 424 835 l 5
EndSplineSet
EndChar
StartChar: comma
Encoding: 44 44 14
OldEncoding: 44
Width: 366
Flags: W
Fore
163 73 m 4
 152 9 123 -40 78 -76 c 4
 34 -109 -11 -129 -60 -135 c 5
 -78 -135 -87 -132 -88 -126 c 6
 -88 -124 l 5
 -78 -112 l 5
 -60 -106 -32 -93 6 -73 c 4
 39 -54 60 -30 70 -1 c 5
 52 -5 l 5
 24 -10 l 5
 -20 -5 -45 15 -48 50 c 4
 -49 60 -49 72 -46 87 c 4
 -40 114 -26 137 -6 156 c 4
 15 175 41 184 72 184 c 4
 131 184 162 161 167 114 c 4
 168 106 166 92 163 73 c 4
EndSplineSet
EndChar
StartChar: hyphen
Encoding: 45 45 15
OldEncoding: 45
Width: 435
Flags: W
HStem: 346 102<49 357>
Fore
378 448 m 1
 357 346 l 1
 28 346 l 1
 50 448 l 1
 378 448 l 1
EndSplineSet
EndChar
StartChar: period
Encoding: 46 46 16
OldEncoding: 46
Width: 366
Flags: W
HStem: -47 20G<16.5 46>
Fore
-46 72 m 5
 -40 97 -25 120 0 142 c 4
 22 162 47 171 75 171 c 4
 93 171 107 167 120 158 c 4
 135 147 145 135 150 121 c 5
 154 100 l 5
 153 72 l 5
 144 45 130 22 110 3 c 4
 87 -17 61 -27 31 -27 c 4
 2 -27 -19 -17 -32 3 c 4
 -42 17 -47 30 -49 43 c 5
 -46 72 l 5
EndSplineSet
EndChar
StartChar: slash
Encoding: 47 47 17
OldEncoding: 47
Width: 364
Flags: W
HStem: -28 21G<-153 -76>
DStem: 397 985 474 985 -153 -28 -76 -28
Fore
-153 -28 m 1
 397 985 l 1
 474 985 l 1
 -76 -28 l 1
 -153 -28 l 1
EndSplineSet
EndChar
StartChar: zero
Encoding: 48 48 18
OldEncoding: 48
Width: 861
Flags: W
HStem: -29 116<262 288> 885 119<463 488>
Fore
262 -29 m 0
 211 -29 166 -17 128 7 c 0
 89 31 60 69 40 121 c 0
 33 142 28 166 25 192 c 0
 22 222 21 255 22 292 c 0
 25 345 34 410 50 488 c 0
 61 543 80 609 108 686 c 0
 138 763 169 821 201 860 c 0
 233 902 279 938 339 968 c 0
 388 992 437 1004 488 1004 c 0
 541 1004 588 992 627 968 c 1
 667 942 695 906 711 860 c 0
 719 838 724 812 727 782 c 0
 735 703 726 606 700 488 c 0
 667 332 616 209 547 121 c 1
 501 66 457 28 416 7 c 0
 364 -17 312 -29 262 -29 c 0
288 87 m 0
 357 87 418 121 471 190 c 1
 509 256 l 1
 521 286 534 322 547 364 c 0
 555 385 565 425 581 486 c 1
 602 607 l 1
 607 716 l 1
 606 752 l 1
 600 782 l 1
 580 850 534 885 465 885 c 0
 431 885 399 877 368 860 c 0
 334 842 304 816 280 782 c 0
 267 767 248 726 220 657 c 0
 197 598 180 541 169 486 c 0
 160 454 152 397 145 314 c 1
 143 264 143 232 144 221 c 1
 150 190 l 1
 163 155 180 131 205 115 c 0
 233 96 261 87 288 87 c 0
EndSplineSet
EndChar
StartChar: one
Encoding: 49 49 19
OldEncoding: 49
Width: 861
Flags: W
HStem: 0 21G<237 356>
DStem: 393 706 574 999 237 0 356 0
Fore
356 0 m 1
 237 0 l 1
 393 706 l 1
 166 706 l 1
 186 803 l 1
 253 810 306 820 343 833 c 0
 377 846 401 862 417 883 c 0
 435 903 460 942 492 999 c 1
 574 999 l 1
 356 0 l 1
EndSplineSet
EndChar
StartChar: two
Encoding: 50 50 20
OldEncoding: 50
Width: 861
Flags: W
HStem: 0 116<95 603> 891 108<478 528>
Fore
502 410 m 2
 316 324 l 1
 273 301 230 272 188 238 c 0
 134 196 104 156 95 116 c 1
 627 116 l 1
 603 0 l 1
 -65 0 l 5
 -33 89 -12 148 2 177 c 0
 20 211 51 250 95 293 c 0
 142 339 207 382 288 420 c 1
 458 507 l 2
 554 557 613 618 632 692 c 0
 639 722 642 745 640 761 c 0
 639 774 634 788 629 803 c 0
 613 835 594 857 570 869 c 0
 541 884 511 891 478 891 c 0
 407 888 351 866 311 825 c 0
 272 784 242 727 221 653 c 1
 99 653 l 1
 117 711 139 766 164 819 c 0
 184 862 222 900 278 933 c 0
 321 960 360 978 394 986 c 0
 432 995 477 999 528 999 c 0
 612 996 674 974 712 930 c 0
 744 896 762 854 768 803 c 1
 769 764 l 1
 769 732 767 711 765 700 c 0
 752 640 719 584 666 531 c 0
 610 475 555 434 502 410 c 2
EndSplineSet
EndChar
StartChar: three
Encoding: 51 51 21
OldEncoding: 51
Width: 861
Flags: W
HStem: -29 114<228 261> 464 106<325 355> 893 111<437 475>
Fore
-6 295 m 1
 116 295 l 1
 111 242 l 1
 108 200 l 1
 109 188 111 179 115 173 c 1
 120 148 133 129 154 115 c 1
 176 94 207 85 246 85 c 0
 406 82 503 152 536 295 c 1
 539 319 539 340 538 356 c 0
 534 388 524 411 506 425 c 0
 475 451 424 464 355 464 c 1
 300 461 l 1
 325 570 l 1
 411 572 476 583 520 602 c 1
 562 624 590 668 604 736 c 1
 606 760 607 781 605 797 c 0
 602 828 591 850 571 863 c 0
 539 883 494 893 437 893 c 1
 392 884 356 872 331 858 c 0
 307 842 285 824 267 802 c 1
 251 775 240 752 236 733 c 0
 233 721 228 703 219 680 c 1
 104 683 l 1
 128 784 170 863 232 921 c 0
 295 976 376 1004 475 1004 c 0
 531 1004 583 994 629 974 c 0
 670 955 699 923 719 879 c 0
 727 862 732 843 735 821 c 0
 738 787 736 753 727 718 c 0
 715 668 696 630 670 605 c 0
 639 575 603 548 565 522 c 1
 617 497 648 465 660 428 c 0
 664 420 666 409 668 392 c 0
 671 361 668 324 659 282 c 0
 649 223 620 167 574 113 c 0
 530 58 472 21 401 -1 c 0
 351 -17 304 -27 261 -29 c 1
 216 -29 187 -26 170 -20 c 1
 89 -4 38 32 16 87 c 0
 3 118 -6 148 -8 176 c 0
 -11 204 -11 244 -6 295 c 1
EndSplineSet
EndChar
StartChar: four
Encoding: 52 52 22
OldEncoding: 52
Width: 861
Flags: W
HStem: 0 21G<356 473> 235 116<113 410 549 672>
DStem: 410 235 526 235 356 0 473 0 533 800 692 999 433 351 549 351 600 999 533 800 5 368 113 351
Fore
410 235 m 1
 -23 235 l 1
 5 368 l 1
 600 999 l 1
 692 999 l 1
 549 351 l 1
 697 351 l 1
 672 235 l 1
 526 235 l 1
 473 0 l 1
 356 0 l 1
 410 235 l 1
433 351 m 1
 533 800 l 1
 113 351 l 1
 433 351 l 1
EndSplineSet
EndChar
StartChar: five
Encoding: 53 53 23
OldEncoding: 53
Width: 861
Flags: W
HStem: -29 119<265 296> 547 116<380 415> 882 122<254 746>
DStem: 254 1004 328 882 54 459 223 605
Fore
170 459 m 1
 54 459 l 1
 254 1004 l 1
 772 1004 l 1
 746 882 l 1
 328 882 l 1
 223 605 l 1
 277 644 341 663 415 663 c 0
 461 663 504 656 545 641 c 1
 627 605 674 543 683 456 c 0
 687 416 684 370 673 317 c 1
 651 248 618 186 576 131 c 1
 532 78 483 40 430 15 c 0
 400 1 347 -14 274 -29 c 1
 227 -29 183 -24 140 -12 c 0
 95 2 61 23 36 52 c 1
 10 79 -6 103 -11 123 c 1
 -19 171 l 1
 -22 198 l 1
 -21 248 l 1
 107 248 l 1
 115 204 128 168 149 137 c 1
 174 105 223 90 296 90 c 1
 416 105 492 168 525 279 c 0
 536 324 539 367 535 409 c 0
 532 439 524 464 511 483 c 0
 482 525 439 547 380 547 c 0
 306 547 236 517 170 459 c 1
EndSplineSet
EndChar
StartChar: six
Encoding: 54 54 24
OldEncoding: 54
Width: 861
Flags: W
HStem: -29 108<265 296> 517 111<390 431> 744 21G<624 746> 890 114<507 519>
Fore
746 744 m 1
 624 744 l 1
 625 789 l 1
 623 807 616 823 605 837 c 1
 588 864 559 882 519 890 c 1
 413 890 331 847 272 760 c 0
 223 690 191 619 174 547 c 1
 171 511 l 1
 235 561 l 2
 251 575 268 586 288 594 c 0
 314 607 335 615 352 620 c 0
 370 625 397 628 431 628 c 0
 487 628 533 616 570 594 c 0
 606 573 635 544 655 506 c 1
 667 477 674 449 677 422 c 1
 678 390 l 1
 679 384 l 2
 680 368 678 343 673 309 c 1
 661 268 652 242 645 232 c 1
 626 181 597 137 556 99 c 1
 509 52 465 20 425 2 c 0
 379 -19 325 -29 265 -29 c 0
 215 -29 171 -18 132 4 c 1
 95 22 67 51 50 90 c 0
 30 131 19 172 15 213 c 1
 12 268 l 1
 16 323 29 405 52 514 c 0
 70 599 97 675 134 741 c 0
 183 834 242 900 311 940 c 0
 384 982 452 1004 518 1004 c 0
 591 1004 650 980 695 932 c 0
 715 909 730 882 740 852 c 1
 746 821 l 1
 748 799 749 774 746 744 c 1
479 168 m 1
 508 196 528 237 540 292 c 1
 548 337 550 369 548 387 c 0
 546 410 541 432 532 451 c 0
 514 495 467 517 390 517 c 0
 359 517 327 511 298 498 c 0
 263 482 238 465 220 448 c 0
 179 414 151 367 138 309 c 0
 132 279 129 253 132 232 c 0
 134 210 141 187 153 163 c 0
 180 107 228 79 296 79 c 1
 362 76 424 106 479 168 c 1
EndSplineSet
EndChar
StartChar: seven
Encoding: 55 55 25
OldEncoding: 55
Width: 861
Flags: W
HStem: 0 21G<51 184> 883 116<141 653>
Fore
118 883 m 1
 142 999 l 1
 810 999 l 1
 787 895 l 1
 641 737 l 2
 617 712 564 645 481 538 c 2
 462 512 l 2
 342 350 249 179 184 0 c 5
 51 0 l 1
 113 130 161 224 196 283 c 0
 221 330 272 403 344 502 c 1
 523 726 l 1
 653 883 l 1
 118 883 l 1
EndSplineSet
EndChar
StartChar: eight
Encoding: 56 56 26
OldEncoding: 56
Width: 861
Flags: W
HStem: 896 108<467 495>
Fore
285 946 m 0
 347 984 411 1004 479 1004 c 0
 560 1004 630 984 686 946 c 1
 714 923 730 893 737 855 c 1
 740 827 l 2
 742 804 741 775 734 739 c 0
 723 681 703 639 670 614 c 1
 644 587 608 559 563 530 c 1
 591 525 620 497 649 448 c 0
 663 425 672 399 675 369 c 0
 678 342 674 304 664 256 c 1
 633 163 577 90 493 38 c 0
 421 -10 340 -32 252 -29 c 0
 218 -29 178 -21 132 -4 c 0
 96 10 65 31 40 60 c 0
 12 90 -4 127 -9 173 c 0
 -13 209 -12 236 -6 256 c 1
 10 334 39 393 79 433 c 1
 101 459 145 492 214 530 c 1
 171 570 l 2
 163 577 155 586 149 597 c 1
 134 633 l 1
 130 658 l 1
 128 680 129 707 134 739 c 1
 156 825 206 894 285 946 c 0
582 860 m 0
 558 884 521 896 470 896 c 0
 416 896 371 882 336 855 c 0
 295 825 269 786 258 739 c 0
 255 722 254 700 257 675 c 0
 266 622 297 591 353 583 c 2
 381 580 l 2
 458 578 515 598 555 641 c 1
 584 672 603 704 610 739 c 0
 613 758 615 775 613 791 c 0
 610 817 600 840 582 860 c 0
527 403 m 0
 495 454 442 478 366 475 c 0
 296 475 236 450 186 401 c 0
 151 364 130 320 123 271 c 0
 119 254 119 233 121 210 c 0
 124 183 131 162 143 148 c 0
 162 122 204 102 272 87 c 1
 321 90 370 101 421 121 c 1
 486 160 525 212 537 276 c 0
 543 303 546 327 543 348 c 2
 543 351 l 2
 541 374 535 392 527 403 c 0
EndSplineSet
EndChar
StartChar: nine
Encoding: 57 57 27
OldEncoding: 57
Width: 861
Flags: W
HStem: -29 119<243 256> 890 114<454 489>
Fore
6 226 m 1
 131 226 l 1
 129 192 l 1
 131 173 139 155 151 137 c 1
 172 113 203 97 243 90 c 1
 348 90 426 130 481 210 c 0
 498 236 518 273 541 319 c 0
 561 359 573 394 577 425 c 1
 583 461 l 1
 542 423 500 392 456 369 c 0
 432 359 404 351 373 345 c 1
 264 351 l 1
 205 358 158 384 120 430 c 1
 95 467 80 508 75 553 c 2
 72 580 l 1
 72 596 77 623 85 663 c 0
 87 681 95 709 108 747 c 1
 129 795 159 839 198 877 c 0
 251 926 295 959 332 977 c 0
 375 995 427 1004 489 1004 c 0
 599 1007 670 966 704 882 c 1
 718 852 727 817 731 776 c 0
 737 725 735 663 727 591 c 0
 726 577 721 547 707 501 c 1
 688 409 l 1
 675 354 652 295 620 232 c 0
 574 140 511 71 429 26 c 1
 372 -2 314 -20 255 -29 c 1
 211 -29 170 -25 131 -15 c 1
 98 -4 72 14 51 38 c 0
 23 72 7 112 2 157 c 0
 -0 181 2 204 6 226 c 1
274 808 m 0
 243 773 221 730 211 678 c 0
 205 643 204 613 206 586 c 1
 219 522 l 1
 241 472 289 448 362 451 c 0
 392 451 425 459 459 475 c 0
 491 488 516 505 534 525 c 1
 577 562 604 607 614 660 c 0
 619 692 621 719 619 741 c 0
 616 770 610 794 601 813 c 0
 589 838 572 857 550 868 c 0
 522 883 493 890 462 890 c 0
 388 890 325 863 274 808 c 0
EndSplineSet
EndChar
StartChar: colon
Encoding: 58 58 28
OldEncoding: 58
Width: 363
Flags: W
HStem: -24 199<31 74> 559 200<157 202>
Fore
-48 75 m 5
 -42 99 -27 122 -2 145 c 4
 21 165 46 175 74 175 c 4
 94 175 109 170 121 161 c 5
 134 154 141 142 146 124 c 6
 150 106 l 5
 148 75 l 5
 145 51 130 28 105 6 c 4
 82 -14 58 -24 31 -24 c 4
 6 -24 -16 -14 -34 6 c 5
 -43 19 -48 33 -50 48 c 5
 -48 75 l 5
78 658 m 5
 85 686 101 710 126 731 c 4
 151 750 176 759 202 759 c 4
 230 759 251 750 265 731 c 4
 272 721 277 707 279 689 c 5
 277 658 l 5
 272 634 258 611 233 590 c 4
 211 569 185 559 157 559 c 4
 132 559 111 569 94 590 c 5
 86 602 80 616 79 631 c 5
 78 658 l 5
EndSplineSet
EndChar
StartChar: semicolon
Encoding: 59 59 29
OldEncoding: 59
Width: 367
Flags: W
HStem: 593 199<140 184>
Fore
164 73 m 4
 149 9 119 -41 75 -75 c 4
 32 -108 -13 -128 -59 -135 c 5
 -79 -135 -89 -132 -90 -126 c 6
 -90 -124 l 5
 -80 -112 l 5
 -64 -106 -35 -94 4 -73 c 5
 38 -53 60 -29 69 -1 c 5
 48 -5 l 5
 22 -10 l 5
 -23 -5 -48 15 -51 50 c 4
 -52 60 -52 72 -48 87 c 4
 -42 114 -29 137 -9 156 c 4
 13 175 39 184 70 184 c 4
 130 184 162 161 167 114 c 4
 168 104 168 90 164 73 c 4
62 693 m 5
 67 718 81 741 108 763 c 4
 130 783 156 792 184 792 c 4
 199 792 214 788 228 779 c 4
 244 770 254 757 258 742 c 6
 262 726 l 5
 261 693 l 5
 255 669 239 646 215 624 c 4
 193 604 168 593 140 593 c 4
 113 593 92 604 76 624 c 4
 67 637 62 651 60 666 c 5
 62 693 l 5
EndSplineSet
EndChar
StartChar: less
Encoding: 60 60 30
OldEncoding: 60
Width: 757
Flags: W
DStem: 43 450 184 499 656 163 681 274 803 835 780 723 65 548 184 499
Fore
803 835 m 5
 780 723 l 5
 184 499 l 5
 681 274 l 5
 656 163 l 5
 43 450 l 5
 65 548 l 5
 803 835 l 5
EndSplineSet
EndChar
StartChar: equal
Encoding: 61 61 31
OldEncoding: 61
Width: 762
Flags: W
HStem: 332 97<47 699> 568 97<99 750>
Fore
100 665 m 5
 770 665 l 5
 750 568 l 5
 79 568 l 5
 100 665 l 5
48 429 m 5
 719 429 l 5
 699 332 l 5
 27 332 l 5
 48 429 l 5
EndSplineSet
EndChar
StartChar: greater
Encoding: 62 62 32
OldEncoding: 62
Width: 767
Flags: W
DStem: 119 723 142 835 613 499 757 548 613 499 735 450 20 274 -5 163
Fore
757 548 m 5
 735 450 l 5
 -5 163 l 5
 20 274 l 5
 613 499 l 5
 119 723 l 5
 142 835 l 5
 757 548 l 5
EndSplineSet
EndChar
StartChar: question
Encoding: 63 63 33
OldEncoding: 63
Width: 717
Flags: W
HStem: -2 21G<152 280> 917 106<432 464>
DStem: 184 142 311 142 152 -2 280 -2
Fore
343 269 m 1
 213 269 l 1
 232 352 l 2
 242 392 262 429 292 461 c 0
 317 488 352 520 398 556 c 2
 445 592 l 1
 456 602 469 614 488 627 c 1
 523 667 l 1
 548 707 562 739 569 764 c 0
 573 778 574 795 573 813 c 1
 564 843 l 1
 555 866 540 884 520 899 c 1
 493 911 466 917 434 917 c 0
 390 917 354 908 323 892 c 0
 296 877 271 855 251 826 c 0
 235 805 224 780 215 751 c 1
 203 696 l 1
 79 696 l 1
 92 760 114 815 146 861 c 1
 174 907 216 946 270 977 c 0
 325 1008 389 1023 464 1023 c 1
 513 1021 l 1
 571 1014 615 995 645 965 c 0
 673 936 690 904 697 868 c 1
 698 857 l 2
 702 821 699 788 691 757 c 1
 685 728 675 697 657 665 c 0
 635 621 571 559 466 477 c 1
 437 457 414 437 395 417 c 0
 373 390 359 362 354 334 c 2
 343 269 l 1
152 -2 m 1
 184 142 l 1
 311 142 l 1
 280 -2 l 1
 152 -2 l 1
EndSplineSet
EndChar
StartChar: at
Encoding: 64 64 34
OldEncoding: 64
Width: 1330
Flags: W
HStem: -194 104<451 498> 84 98<787 847> 91 88<430 492> 632 102<681 707>
DStem: 903 701 1020 701 853 609 794 286
Fore
1020 701 m 1
 794 286 l 1
 774 244 l 1
 774 225 l 1
 778 206 l 1
 789 190 811 182 847 182 c 1
 888 191 926 208 962 232 c 0
 995 256 1024 282 1047 310 c 0
 1101 379 1138 458 1158 547 c 1
 1154 595 l 1
 1143 668 l 1
 1133 706 1116 741 1094 771 c 0
 1076 799 1039 828 986 860 c 0
 931 890 877 911 824 922 c 0
 799 926 770 929 742 929 c 0
 678 929 616 917 554 894 c 0
 495 872 439 843 385 806 c 0
 327 767 274 719 226 663 c 0
 180 609 148 563 128 524 c 0
 104 475 88 432 79 394 c 0
 66 338 63 285 68 235 c 1
 79 174 l 1
 89 132 115 91 157 49 c 1
 199 4 249 -31 307 -57 c 0
 353 -79 412 -90 484 -90 c 0
 568 -90 664 -73 768 -41 c 1
 789 -134 l 1
 669 -174 559 -194 460 -194 c 0
 384 -194 313 -182 247 -160 c 1
 195 -140 137 -105 75 -55 c 0
 10 0 -30 57 -45 118 c 0
 -50 134 -54 158 -57 191 c 0
 -63 245 -58 307 -44 376 c 0
 -33 431 -17 477 4 514 c 1
 38 582 84 650 140 718 c 1
 199 788 268 848 346 896 c 0
 391 924 437 948 484 968 c 0
 539 990 592 1006 645 1017 c 0
 709 1029 766 1035 818 1032 c 0
 884 1030 956 1011 1034 975 c 0
 1112 939 1170 892 1206 834 c 1
 1233 799 1251 756 1261 704 c 0
 1264 693 1267 677 1269 655 c 0
 1273 623 1271 589 1265 553 c 0
 1252 492 1237 442 1219 401 c 1
 1184 345 1158 307 1143 288 c 0
 1111 246 1078 210 1043 179 c 0
 998 139 948 112 895 98 c 0
 866 89 830 84 787 84 c 0
 755 84 734 87 721 91 c 1
 697 97 680 111 671 133 c 1
 661 150 657 165 656 176 c 2
 654 188 l 1
 622 160 l 2
 612 152 596 142 574 130 c 0
 555 119 533 110 508 103 c 0
 480 95 454 91 430 91 c 0
 403 91 379 96 356 105 c 0
 321 121 298 141 286 165 c 0
 274 193 266 220 261 246 c 1
 260 255 l 2
 257 281 259 311 265 343 c 1
 273 373 282 400 293 425 c 0
 340 526 410 607 506 670 c 1
 575 713 643 734 707 734 c 0
 726 734 742 732 757 727 c 0
 785 718 807 702 824 679 c 0
 839 660 848 639 852 617 c 1
 853 609 l 1
 903 701 l 1
 1020 701 l 1
784 533 m 1
 784 568 l 1
 785 577 783 585 778 593 c 0
 767 610 748 621 721 626 c 1
 712 630 698 632 681 632 c 0
 649 632 615 623 580 604 c 0
 546 585 518 564 496 540 c 0
 470 508 449 477 435 445 c 1
 415 415 401 381 392 343 c 0
 388 321 386 302 388 286 c 0
 390 270 396 252 407 232 c 1
 421 197 450 179 492 179 c 1
 527 184 l 1
 572 196 615 225 655 271 c 0
 680 299 705 339 732 392 c 0
 761 448 778 495 784 533 c 1
EndSplineSet
EndChar
StartChar: A
Encoding: 65 65 35
OldEncoding: 65
Width: 890
Flags: W
HStem: -1 21G<-134 5 604 750> 302 110<240 568> 990 20G<457 617>
DStem: 457 1010 500 853 -134 -1 240 412 457 1010 181 302 -134 -1 5 -1 500 853 617 1010 554 412 750 -1
Fore
181 302 m 1
 5 -1 l 1
 -134 -1 l 1
 457 1010 l 1
 617 1010 l 1
 750 -1 l 1
 604 -1 l 1
 568 302 l 1
 181 302 l 1
500 853 m 1
 240 412 l 1
 554 412 l 1
 500 853 l 1
EndSplineSet
EndChar
StartChar: B
Encoding: 66 66 36
OldEncoding: 66
Width: 875
Flags: W
HStem: -1 115<93 439> 462 115<195 464> 897 113<160 514>
DStem: 160 1010 267 897 -63 -1 195 577 160 1010 171 462 -63 -1 93 114
Fore
437 -1 m 2
 -63 -1 l 1
 160 1010 l 1
 611 1010 l 2
 645 1010 678 1002 708 986 c 0
 744 969 769 949 786 927 c 0
 805 901 817 871 821 836 c 1
 821 788 l 1
 793 656 732 572 638 536 c 1
 681 513 l 1
 695 504 709 492 723 476 c 2
 727 471 l 2
 742 451 753 425 762 394 c 1
 763 379 l 2
 767 341 764 305 754 272 c 1
 742 213 714 163 671 122 c 0
 629 81 589 51 550 32 c 0
 504 10 467 -1 437 -1 c 2
267 897 m 1
 195 577 l 1
 464 577 l 2
 535 577 587 594 616 626 c 0
 648 659 670 705 683 765 c 1
 682 790 l 1
 678 827 658 854 624 869 c 0
 576 888 535 897 503 897 c 2
 267 897 l 1
171 462 m 1
 93 114 l 1
 420 114 l 2
 480 114 527 134 562 173 c 0
 600 213 624 261 634 319 c 1
 633 355 l 1
 629 392 615 418 589 434 c 1
 552 453 497 462 425 462 c 2
 171 462 l 1
EndSplineSet
EndChar
StartChar: C
Encoding: 67 67 37
OldEncoding: 67
Width: 942
Flags: W
HStem: -33 119<324 359> 912 118<535 560>
Fore
896 698 m 1
 763 698 l 1
 755 741 743 780 724 814 c 0
 711 837 695 855 677 868 c 1
 656 884 635 896 613 903 c 0
 594 909 569 912 537 912 c 0
 498 912 457 903 414 886 c 0
 369 869 329 845 295 814 c 0
 257 777 224 731 195 675 c 0
 168 621 146 562 130 497 c 0
 117 439 113 381 119 324 c 2
 120 317 l 2
 125 264 138 220 159 183 c 0
 196 118 262 86 359 86 c 0
 446 86 523 118 587 183 c 0
 611 206 632 234 652 266 c 1
 675 298 695 333 713 370 c 1
 843 370 l 1
 795 248 722 148 626 71 c 0
 601 50 558 27 498 2 c 1
 434 -21 376 -33 324 -33 c 0
 273 -33 221 -21 169 2 c 1
 116 28 82 51 65 71 c 0
 23 124 -4 189 -14 266 c 1
 -15 280 l 2
 -23 353 -19 425 -2 497 c 0
 15 574 45 652 90 731 c 1
 129 805 184 870 253 925 c 0
 281 948 326 972 386 995 c 0
 450 1018 508 1030 558 1030 c 0
 609 1030 660 1018 714 995 c 1
 764 972 797 948 814 925 c 1
 858 875 884 806 894 717 c 2
 896 698 l 1
EndSplineSet
EndChar
StartChar: D
Encoding: 68 68 38
OldEncoding: 68
Width: 947
Flags: W
HStem: -1 115<104 410> 897 113<172 540>
DStem: 172 1010 277 897 -53 -1 104 114
Fore
410 -1 m 2
 -53 -1 l 1
 172 1010 l 1
 561 1010 l 2
 669 1010 753 974 812 902 c 1
 850 853 872 795 879 728 c 0
 884 686 883 643 877 598 c 1
 859 501 l 1
 828 354 767 237 677 149 c 0
 625 97 575 60 528 38 c 1
 480 12 440 -1 410 -1 c 2
524 897 m 2
 277 897 l 1
 104 114 l 1
 386 114 l 2
 419 114 455 121 496 136 c 0
 516 144 545 166 584 202 c 1
 620 241 643 272 654 295 c 0
 691 376 716 445 729 501 c 0
 748 574 755 641 748 701 c 0
 746 727 740 749 732 767 c 0
 700 854 631 897 524 897 c 2
EndSplineSet
EndChar
StartChar: E
Encoding: 69 69 39
OldEncoding: 69
Width: 870
Flags: W
HStem: -1 115<105 674> 462 115<206 729> 897 113<170 849>
DStem: 170 1010 275 897 -50 -1 206 577 170 1010 179 462 -50 -1 105 114
Fore
-50 -1 m 1
 170 1010 l 1
 874 1010 l 1
 849 897 l 1
 275 897 l 1
 206 577 l 1
 754 577 l 1
 729 462 l 1
 179 462 l 1
 105 114 l 1
 699 114 l 1
 674 -1 l 1
 -50 -1 l 1
EndSplineSet
EndChar
StartChar: F
Encoding: 70 70 40
OldEncoding: 70
Width: 795
Flags: W
HStem: -1 21G<-51 79> 462 115<206 662> 897 113<172 825>
DStem: 172 1010 277 897 -51 -1 206 577 172 1010 180 462 -51 -1 79 -1
Fore
-51 -1 m 1
 172 1010 l 1
 850 1010 l 1
 825 897 l 1
 277 897 l 1
 206 577 l 1
 687 577 l 1
 662 462 l 1
 180 462 l 1
 79 -1 l 1
 -51 -1 l 1
EndSplineSet
EndChar
StartChar: G
Encoding: 71 71 41
OldEncoding: 71
Width: 1018
Flags: W
HStem: -33 114<326 386> -5 21G<719 801> 421 115<497 778> 912 118<567 599>
Fore
471 421 m 1
 498 536 l 1
 920 536 l 1
 801 -5 l 1
 719 -5 l 1
 715 119 l 1
 642 67 581 29 533 4 c 0
 481 -21 412 -33 326 -33 c 0
 284 -33 235 -22 181 0 c 0
 130 20 94 41 70 64 c 0
 23 115 -8 181 -21 261 c 1
 -24 287 l 2
 -32 359 -28 428 -14 495 c 0
 -3 543 16 594 42 647 c 1
 65 701 95 751 130 799 c 0
 164 842 207 884 261 925 c 0
 295 949 343 973 405 995 c 0
 475 1018 539 1030 597 1030 c 0
 686 1032 754 1017 802 987 c 1
 868 949 910 905 928 856 c 0
 936 833 942 806 945 777 c 0
 948 754 947 731 946 706 c 1
 820 706 l 1
 819 740 l 1
 815 777 797 813 764 847 c 0
 720 890 655 912 569 912 c 0
 523 912 476 903 429 886 c 0
 379 868 335 845 299 814 c 0
 261 780 224 734 190 675 c 0
 158 620 135 560 120 495 c 0
 108 440 103 387 108 338 c 2
 110 319 l 1
 119 259 136 212 160 178 c 0
 206 113 281 81 386 81 c 0
 456 81 519 97 573 130 c 0
 613 152 648 178 678 208 c 0
 705 234 725 261 737 289 c 1
 750 314 760 337 764 358 c 2
 778 421 l 1
 471 421 l 1
EndSplineSet
EndChar
StartChar: H
Encoding: 72 72 42
OldEncoding: 72
Width: 943
Flags: W
HStem: -1 21G<-65 65 583 713> 462 115<192 685> 990 20G<158 287 806 936>
DStem: 158 1010 287 1010 -65 -1 192 577 158 1010 167 462 -65 -1 65 -1 685 462 936 1010 583 -1 713 -1 806 1010 936 1010 709 577 713 -1
Fore
583 -1 m 1
 685 462 l 1
 167 462 l 1
 65 -1 l 1
 -65 -1 l 5
 158 1010 l 1
 287 1010 l 1
 192 577 l 1
 709 577 l 1
 806 1010 l 1
 936 1010 l 1
 713 -1 l 1
 583 -1 l 1
EndSplineSet
EndChar
StartChar: I
Encoding: 73 73 43
OldEncoding: 73
Width: 363
Flags: W
HStem: -1 21G<-7 123> 990 20G<215 345>
DStem: 215 1010 345 1010 -7 -1 123 -1
Fore
-7 -1 m 1
 215 1010 l 1
 345 1010 l 1
 123 -1 l 1
 -7 -1 l 1
EndSplineSet
EndChar
StartChar: J
Encoding: 74 74 44
OldEncoding: 74
Width: 654
Flags: W
HStem: -32 114<105 157> 992 20G<526 658>
DStem: 526 1012 658 1012 375 325 480 211
Fore
-64 323 m 1
 70 323 l 1
 46 221 l 1
 44 204 43 188 45 175 c 0
 46 157 51 143 58 133 c 0
 73 108 94 93 121 87 c 1
 155 82 l 1
 209 82 258 102 299 142 c 0
 331 172 357 233 375 325 c 1
 526 1012 l 1
 658 1012 l 1
 480 211 l 1
 445 118 388 50 309 5 c 0
 261 -22 194 -34 105 -32 c 0
 21 -30 -35 0 -63 56 c 0
 -78 87 -86 117 -89 146 c 0
 -91 165 -90 188 -85 215 c 2
 -64 323 l 1
EndSplineSet
EndChar
StartChar: K
Encoding: 75 75 45
OldEncoding: 75
Width: 866
Flags: W
HStem: -1 21G<-72 60 578 728> 990 20G<151 282 785 955>
DStem: 151 1010 282 1010 -72 -1 172 511 151 1010 137 343 -72 -1 60 -1 339 508 446 598 578 -1 728 -1 785 1010 955 1010 172 511 446 598
Fore
151 1010 m 1
 282 1010 l 1
 172 511 l 1
 785 1010 l 1
 955 1010 l 1
 446 598 l 1
 728 -1 l 1
 578 -1 l 1
 339 508 l 1
 137 343 l 1
 60 -1 l 1
 -72 -1 l 1
 151 1010 l 1
EndSplineSet
EndChar
StartChar: L
Encoding: 76 76 46
OldEncoding: 76
Width: 740
Flags: W
HStem: -1 115<111 586> 990 20G<179 308>
DStem: 179 1010 308 1010 -43 -1 111 114
Fore
179 1010 m 1
 308 1010 l 1
 111 114 l 1
 611 114 l 1
 586 -1 l 1
 -43 -1 l 1
 179 1010 l 1
EndSplineSet
EndChar
StartChar: M
Encoding: 77 77 47
OldEncoding: 77
Width: 1090
Flags: W
HStem: -1 21G<-85 50 324 459 735 869> 990 20G<138 322 907 1091>
DStem: 138 1010 229 820 -85 -1 50 -1 229 820 322 1010 324 -1 425 149 907 1010 914 820 425 149 459 -1 914 820 1091 1010 735 -1 869 -1
Fore
459 -1 m 1
 324 -1 l 1
 229 820 l 1
 50 -1 l 1
 -85 -1 l 1
 138 1010 l 1
 322 1010 l 1
 425 149 l 1
 907 1010 l 1
 1091 1010 l 1
 869 -1 l 1
 735 -1 l 1
 914 820 l 1
 459 -1 l 1
EndSplineSet
EndChar
StartChar: N
Encoding: 78 78 48
OldEncoding: 78
Width: 943
Flags: W
HStem: -1 21G<-73 55 567 718> 990 20G<149 302 808 940>
DStem: 149 1010 235 809 -73 -1 55 -1 235 809 302 1010 567 -1 629 191 808 1010 940 1010 629 191 718 -1
Fore
718 -1 m 1
 567 -1 l 1
 235 809 l 1
 55 -1 l 1
 -73 -1 l 1
 149 1010 l 1
 302 1010 l 1
 629 191 l 1
 808 1010 l 1
 940 1010 l 1
 718 -1 l 1
EndSplineSet
EndChar
StartChar: O
Encoding: 79 79 49
OldEncoding: 79
Width: 1018
Flags: W
HStem: -33 119<347 380> 912 118<558 587>
Fore
587 1030 m 0
 644 1030 702 1018 761 995 c 0
 816 973 853 950 874 925 c 1
 922 872 953 807 965 731 c 1
 968 708 l 2
 975 638 970 568 955 497 c 0
 937 416 907 339 864 266 c 0
 821 193 762 128 686 71 c 0
 653 48 606 25 545 2 c 0
 477 -21 413 -33 353 -33 c 0
 296 -33 239 -21 181 2 c 1
 121 28 83 51 66 71 c 0
 14 127 -18 192 -30 266 c 1
 -33 293 l 2
 -39 355 -35 423 -21 497 c 0
 -11 542 7 593 32 649 c 0
 58 707 89 758 125 803 c 0
 163 851 205 891 253 925 c 1
 284 949 332 973 398 995 c 0
 468 1018 531 1030 587 1030 c 0
560 912 m 0
 514 912 467 903 419 886 c 0
 371 869 329 845 292 814 c 0
 250 779 214 733 182 675 c 1
 151 623 128 564 113 497 c 1
 98 443 94 388 100 333 c 2
 101 322 l 1
 109 269 127 223 155 183 c 0
 204 118 277 86 378 86 c 0
 484 86 574 118 646 183 c 1
 688 218 726 264 758 322 c 0
 788 373 811 431 826 497 c 1
 837 558 840 616 834 671 c 2
 834 675 l 1
 826 735 809 781 782 814 c 1
 762 847 732 871 693 886 c 0
 650 903 606 912 560 912 c 0
EndSplineSet
EndChar
StartChar: P
Encoding: 80 80 50
OldEncoding: 80
Width: 873
Flags: W
HStem: -1 21G<-45 82> 427 115<204 534> 897 113<175 580>
DStem: 175 1010 280 897 -45 -1 204 542 175 1010 176 427 -45 -1 82 -1
Fore
-45 -1 m 1
 175 1010 l 1
 599 1010 l 2
 676 1010 740 992 790 955 c 1
 823 928 843 888 848 836 c 0
 851 812 851 788 849 765 c 1
 840 714 l 1
 821 622 776 551 707 501 c 1
 637 452 572 427 512 427 c 2
 176 427 l 1
 82 -1 l 1
 -45 -1 l 1
280 897 m 1
 204 542 l 1
 534 542 l 2
 556 542 589 558 632 589 c 0
 670 617 697 664 711 730 c 1
 714 752 714 771 712 788 c 0
 709 820 697 844 677 860 c 0
 647 885 612 897 571 897 c 2
 280 897 l 1
EndSplineSet
EndChar
StartChar: Q
Encoding: 81 81 51
OldEncoding: 81
Width: 1017
Flags: W
HStem: -30 119<359 387> 914 118<566 595>
DStem: 473 208 553 287 556 126 657 186 644 40 736 109 760 -79 844 2
Fore
736 109 m 1
 844 2 l 1
 760 -79 l 1
 644 40 l 1
 546 -5 452 -28 361 -30 c 0
 304 -30 247 -19 188 5 c 1
 131 30 92 53 72 74 c 0
 25 126 -6 192 -19 269 c 1
 -24 296 l 1
 -31 363 -27 430 -12 500 c 0
 2 558 20 609 40 652 c 0
 65 709 96 760 132 806 c 0
 170 853 213 894 260 928 c 0
 293 952 341 975 404 998 c 0
 473 1021 537 1032 595 1032 c 0
 653 1032 711 1021 770 998 c 0
 820 977 858 954 881 928 c 0
 930 876 960 811 973 734 c 1
 975 711 l 2
 983 642 979 572 963 500 c 0
 946 426 919 355 881 287 c 1
 844 217 796 158 736 109 c 1
556 126 m 1
 473 208 l 1
 553 287 l 1
 657 186 l 1
 685 210 710 238 733 271 c 0
 759 308 780 344 795 380 c 0
 813 422 825 462 833 500 c 0
 845 561 848 619 842 674 c 2
 842 678 l 1
 834 737 817 783 791 817 c 0
 768 850 737 873 700 888 c 0
 658 906 613 914 568 914 c 0
 522 914 475 906 427 888 c 0
 378 872 336 848 300 817 c 0
 263 787 226 741 190 678 c 0
 157 620 134 561 120 500 c 0
 108 439 105 385 110 336 c 2
 111 325 l 1
 121 267 138 221 162 186 c 0
 208 121 284 89 387 89 c 0
 447 89 503 101 556 126 c 1
EndSplineSet
EndChar
StartChar: R
Encoding: 82 82 52
OldEncoding: 82
Width: 945
Flags: W
HStem: -1 21G<-47 81 609 764> 434 115<204 531> 897 113<174 627>
DStem: 174 1010 279 897 -47 -1 204 549 174 1010 176 434 -47 -1 81 -1
Fore
-47 -1 m 1
 174 1010 l 1
 625 1010 l 2
 723 1010 797 994 846 962 c 0
 876 940 894 906 899 858 c 0
 902 823 900 788 893 754 c 0
 879 690 860 641 832 606 c 0
 807 575 764 539 705 498 c 1
 748 467 773 437 781 408 c 1
 782 399 l 2
 785 369 779 316 765 240 c 0
 750 172 744 125 747 98 c 2
 748 87 l 2
 750 64 758 46 772 32 c 1
 764 -1 l 1
 609 -1 l 1
 607 21 l 2
 604 45 605 80 607 127 c 1
 634 244 l 2
 643 279 645 313 642 343 c 1
 633 385 l 1
 618 418 577 434 510 434 c 2
 176 434 l 1
 81 -1 l 1
 -47 -1 l 1
605 897 m 2
 279 897 l 1
 204 549 l 1
 529 549 l 2
 646 549 720 600 750 703 c 1
 759 727 762 755 758 788 c 0
 751 861 699 897 605 897 c 2
EndSplineSet
EndChar
StartChar: S
Encoding: 83 83 53
OldEncoding: 83
Width: 873
Flags: W
HStem: -33 119<283 365> 918 111<464 514>
Fore
816 717 m 1
 688 717 l 1
 693 742 694 764 692 782 c 0
 688 822 669 854 636 879 c 0
 611 896 587 907 563 912 c 0
 538 916 508 918 475 918 c 0
 403 918 344 901 301 868 c 0
 255 834 227 794 216 750 c 0
 214 735 213 722 214 710 c 1
 219 689 l 1
 224 673 236 657 257 640 c 1
 294 617 342 600 398 590 c 1
 631 523 l 1
 673 507 706 477 732 432 c 0
 746 405 756 378 759 351 c 0
 761 332 760 313 756 296 c 0
 742 229 712 171 666 119 c 1
 622 71 565 34 499 6 c 1
 422 -22 351 -35 285 -33 c 1
 215 -33 155 -23 103 -3 c 1
 59 12 21 45 -11 95 c 1
 -31 132 -43 164 -46 192 c 2
 -47 199 l 1
 -47 226 -43 267 -35 322 c 1
 88 322 l 1
 82 294 80 267 82 243 c 0
 85 219 90 198 99 180 c 1
 115 132 160 101 233 90 c 0
 262 87 306 86 365 86 c 1
 431 92 482 109 517 134 c 0
 571 171 602 216 612 269 c 1
 615 281 617 294 616 307 c 0
 612 339 597 366 570 388 c 1
 533 409 466 430 368 453 c 0
 314 466 276 477 254 488 c 1
 177 516 l 2
 121 535 90 575 83 636 c 0
 81 659 81 681 86 701 c 0
 98 762 122 819 160 870 c 0
 197 920 244 959 301 987 c 0
 357 1015 423 1029 498 1029 c 0
 605 1029 682 1011 729 976 c 0
 784 935 813 884 820 821 c 0
 823 787 822 752 816 717 c 1
EndSplineSet
EndChar
StartChar: T
Encoding: 84 84 54
OldEncoding: 84
Width: 782
Flags: W
HStem: -1 21G<175 305> 897 113<64 373 65 834>
DStem: 373 897 503 897 175 -1 305 -1
Fore
175 -1 m 1
 373 897 l 1
 39 897 l 1
 65 1010 l 1
 858 1010 l 1
 834 897 l 1
 503 897 l 1
 305 -1 l 1
 175 -1 l 1
EndSplineSet
EndChar
StartChar: U
Encoding: 85 85 55
OldEncoding: 85
Width: 937
Flags: W
HStem: -32 112<317 348> 992 20G<160 290 807 937>
DStem: 160 1012 290 1012 -3 283 132 290 807 1012 937 1012 650 290 777 283
Fore
160 1012 m 1
 290 1012 l 1
 132 290 l 1
 127 274 126 256 128 235 c 0
 132 204 143 174 163 146 c 0
 193 102 255 80 346 80 c 0
 432 80 502 102 556 146 c 0
 606 191 638 239 650 290 c 1
 807 1012 l 1
 937 1012 l 1
 777 283 l 1
 771 252 757 219 736 186 c 1
 717 151 689 116 650 82 c 0
 614 48 568 21 511 1 c 0
 451 -21 387 -32 319 -32 c 0
 228 -32 157 -15 104 19 c 0
 51 54 19 97 8 146 c 1
 1 165 -3 183 -5 202 c 0
 -9 234 -7 261 -3 283 c 1
 160 1012 l 1
EndSplineSet
EndChar
StartChar: V
Encoding: 86 86 56
OldEncoding: 86
Width: 852
Flags: W
HStem: -1 21G<205 344> 990 20G<69 208 784 923>
DStem: 69 1010 208 1010 205 -1 314 154
Fore
314 154 m 1
 784 1010 l 1
 923 1010 l 1
 344 -1 l 1
 205 -1 l 1
 69 1010 l 1
 208 1010 l 1
 314 154 l 1
EndSplineSet
EndChar
StartChar: W
Encoding: 87 87 57
OldEncoding: 87
Width: 1218
Flags: W
HStem: -1 21G<74 215 676 819> 990 20G<40 185 598 739 1155 1298>
DStem: 598 1010 626 823 195 195 215 -1 626 823 739 1010 676 -1 786 195
Fore
786 195 m 1
 1155 1010 l 1
 1298 1010 l 1
 819 -1 l 1
 676 -1 l 1
 626 823 l 1
 215 -1 l 1
 74 -1 l 1
 40 1010 l 1
 185 1010 l 1
 195 195 l 1
 598 1010 l 1
 739 1010 l 1
 786 195 l 1
EndSplineSet
EndChar
StartChar: X
Encoding: 88 88 58
OldEncoding: 88
Width: 872
Flags: W
HStem: -1 21G<-143 17 565 725> 990 20G<106 261 777 934>
DStem: 106 1010 261 1010 326 517 433 624 326 517 386 411 -143 -1 17 -1 777 1010 934 1010 433 624 488 517
Fore
934 1010 m 1
 488 517 l 1
 725 -1 l 1
 565 -1 l 1
 386 411 l 1
 17 -1 l 1
 -143 -1 l 1
 326 517 l 1
 106 1010 l 1
 261 1010 l 1
 433 624 l 1
 777 1010 l 1
 934 1010 l 1
EndSplineSet
EndChar
StartChar: Y
Encoding: 89 89 59
OldEncoding: 89
Width: 852
Flags: W
HStem: -1 21G<210 342> 990 20G<46 206 786 946>
DStem: 299 394 430 394 210 -1 342 -1
Fore
46 1010 m 1
 206 1010 l 1
 391 520 l 1
 786 1010 l 1
 946 1010 l 1
 430 394 l 1
 342 -1 l 1
 210 -1 l 1
 299 394 l 1
 46 1010 l 1
EndSplineSet
MinimumDistance: x0,4 
EndChar
StartChar: Z
Encoding: 90 90 60
OldEncoding: 90
Width: 799
Flags: W
HStem: -1 115<58 639> 897 113<132 670>
DStem: 670 897 832 893 -109 110 58 114
Fore
107 897 m 1
 133 1010 l 1
 859 1010 l 1
 832 893 l 1
 58 114 l 1
 664 114 l 1
 639 -1 l 1
 -132 -1 l 1
 -109 110 l 1
 670 897 l 1
 107 897 l 1
EndSplineSet
EndChar
StartChar: bracketleft
Encoding: 91 91 61
OldEncoding: 91
Width: 361
Flags: W
HStem: -280 104<63 183> 923 104<209 448>
DStem: 209 1027 306 923 -77 -280 63 -176
Fore
209 1027 m 1
 469 1027 l 1
 448 923 l 1
 306 923 l 1
 63 -176 l 1
 204 -176 l 1
 183 -280 l 1
 -77 -280 l 1
 209 1027 l 1
EndSplineSet
EndChar
StartChar: backslash
Encoding: 92 92 62
OldEncoding: 92
Width: 364
Flags: W
HStem: -28 21G<171 248> 992 20G<73 148>
DStem: 73 1012 148 1012 171 -28 248 -28
Fore
171 -28 m 1
 73 1012 l 1
 148 1012 l 1
 248 -28 l 1
 171 -28 l 1
EndSplineSet
EndChar
StartChar: bracketright
Encoding: 93 93 63
OldEncoding: 93
Width: 368
Flags: W
HStem: -282 104<-104 130> 923 104<160 276>
DStem: 276 923 417 1027 36 -178 130 -282
Fore
137 923 m 1
 161 1027 l 1
 417 1027 l 1
 130 -282 l 1
 -127 -282 l 1
 -103 -178 l 1
 36 -178 l 1
 276 923 l 1
 137 923 l 1
EndSplineSet
EndChar
StartChar: asciicircum
Encoding: 94 94 64
OldEncoding: 94
Width: 622
Flags: W
DStem: 274 964 298 846 -57 437 40 437 298 846 377 964 375 437 472 437
Fore
-57 437 m 1
 274 964 l 1
 377 964 l 1
 472 437 l 1
 375 437 l 1
 298 846 l 1
 40 437 l 1
 -57 437 l 1
EndSplineSet
EndChar
StartChar: underscore
Encoding: 95 95 65
OldEncoding: 95
Width: 728
Flags: W
HStem: -162 69<-206 614>
Fore
630 -93 m 5
 614 -162 l 5
 -219 -162 l 5
 -205 -93 l 5
 630 -93 l 5
EndSplineSet
EndChar
StartChar: grave
Encoding: 96 96 66
OldEncoding: 96
Width: 374
Flags: W
HStem: 828 183<158 364>
Fore
364 828 m 5
 269 828 l 5
 158 1011 l 5
 315 1011 l 5
 364 828 l 5
EndSplineSet
EndChar
StartChar: a
Encoding: 97 97 67
OldEncoding: 97
Width: 730
Flags: W
HStem: -17 99<189 201>
DStem: 498 372 674 612 466 226 565 124
Fore
674 612 m 1
 565 124 l 1
 566 115 l 2
 567 108 572 102 582 95 c 0
 596 87 613 82 636 82 c 1
 622 -2 l 1
 523 -17 l 1
 471 0 443 27 439 64 c 1
 442 90 l 1
 386 53 344 28 316 13 c 0
 270 -7 228 -17 189 -17 c 0
 110 -19 51 1 13 44 c 0
 -7 67 -19 94 -22 126 c 0
 -25 153 -23 181 -15 212 c 0
 -0 269 25 311 59 340 c 0
 93 369 132 389 178 402 c 0
 211 412 245 420 281 425 c 0
 313 431 347 435 384 437 c 2
 457 444 l 1
 499 455 522 474 526 499 c 1
 545 588 l 1
 545 592 l 2
 543 612 526 629 495 643 c 1
 453 657 409 663 364 661 c 0
 279 659 223 614 197 528 c 1
 88 528 l 1
 104 590 l 1
 121 624 142 651 163 671 c 0
 193 698 224 719 258 733 c 0
 286 746 331 757 396 766 c 1
 445 766 493 762 537 754 c 0
 585 742 622 725 646 701 c 0
 663 685 672 665 675 641 c 1
 674 612 l 1
466 226 m 1
 498 372 l 1
 472 361 440 354 400 349 c 1
 285 331 l 2
 252 325 223 317 195 307 c 0
 175 299 157 287 141 270 c 1
 122 255 109 234 103 208 c 1
 98 194 96 179 98 162 c 0
 100 143 108 128 122 115 c 1
 142 93 168 82 201 82 c 0
 245 80 288 90 330 111 c 0
 370 129 402 149 426 173 c 0
 452 200 466 218 466 226 c 1
EndSplineSet
EndChar
StartChar: b
Encoding: 98 98 68
OldEncoding: 98
Width: 736
Flags: W
HStem: -32 112<243 263> 1 21G<-78 21> 632 119<377 428> 992 20G<143 260>
DStem: 143 1012 260 1012 -78 1 179 641
Fore
143 1012 m 1
 260 1012 l 1
 179 641 l 1
 195 663 223 685 260 707 c 1
 290 721 316 732 337 739 c 1
 373 747 404 751 428 751 c 0
 512 751 575 720 619 658 c 5
 637 637 650 611 658 579 c 1
 666 528 l 1
 668 482 l 1
 667 453 662 415 654 369 c 1
 642 316 l 1
 619 242 586 179 545 126 c 1
 501 65 450 23 392 -2 c 1
 349 -22 299 -32 243 -32 c 0
 191 -32 151 -22 123 -2 c 1
 78 36 50 64 41 82 c 1
 21 1 l 1
 -78 1 l 1
 143 1012 l 1
412 146 m 1
 464 204 500 277 520 365 c 0
 530 406 535 444 534 480 c 1
 532 498 l 2
 529 521 523 542 514 561 c 0
 492 611 445 635 377 632 c 0
 314 632 261 609 218 563 c 0
 200 544 181 514 159 475 c 1
 138 432 123 390 114 348 c 0
 106 306 103 267 107 230 c 0
 110 203 115 179 123 158 c 0
 139 113 179 87 243 80 c 1
 314 80 369 102 412 146 c 1
EndSplineSet
EndChar
StartChar: c
Encoding: 99 99 69
OldEncoding: 99
Width: 689
Flags: W
HStem: -17 112<226 279> 659 107<396 415>
Fore
488 268 m 1
 599 268 l 1
 584 208 561 159 528 120 c 0
 493 76 448 42 393 18 c 0
 331 -8 275 -19 226 -17 c 1
 177 -17 129 -2 82 27 c 0
 43 53 17 90 0 139 c 1
 -7 190 l 1
 -14 254 -9 319 7 386 c 0
 32 494 87 587 172 665 c 0
 241 730 322 764 413 766 c 0
 453 766 491 760 527 749 c 0
 561 738 586 722 603 701 c 1
 630 685 646 659 652 623 c 1
 654 599 l 2
 657 567 656 534 651 499 c 1
 535 499 l 1
 537 525 537 546 535 564 c 1
 530 590 l 1
 522 610 508 626 488 636 c 0
 458 651 427 659 396 659 c 0
 340 656 287 631 235 583 c 0
 192 544 159 484 138 402 c 0
 120 328 113 270 117 226 c 1
 121 206 l 1
 140 129 193 93 279 95 c 0
 306 95 336 103 368 120 c 0
 401 136 422 153 432 173 c 1
 457 205 476 237 488 268 c 1
EndSplineSet
EndChar
StartChar: d
Encoding: 100 100 70
OldEncoding: 100
Width: 725
Flags: W
HStem: -32 112<190 234> -2 21G<421 522> 630 121<346 355> 992 20G<629 745>
DStem: 629 1012 745 1012 548 641 522 -2
Fore
629 1012 m 1
 745 1012 l 1
 522 -2 l 1
 421 -2 l 1
 439 84 l 1
 398 46 359 17 321 -4 c 0
 287 -23 243 -32 190 -32 c 0
 134 -32 87 -22 48 -2 c 0
 6 23 -26 64 -44 124 c 0
 -51 146 -56 170 -58 195 c 0
 -63 237 -62 276 -54 313 c 1
 -53 331 -50 351 -44 371 c 0
 -33 426 -12 479 15 531 c 1
 41 582 73 624 111 656 c 0
 187 719 266 751 346 751 c 0
 407 751 457 736 495 707 c 0
 521 686 538 664 548 641 c 1
 629 1012 l 1
95 144 m 1
 122 99 168 78 234 80 c 0
 260 80 290 87 321 102 c 0
 348 114 372 133 392 158 c 0
 436 211 466 274 484 345 c 1
 492 388 495 432 493 475 c 1
 491 493 l 2
 488 526 482 548 475 561 c 0
 452 607 409 630 346 630 c 0
 276 630 220 607 176 561 c 0
 129 511 98 445 82 361 c 1
 71 316 67 272 72 230 c 0
 75 199 83 171 95 144 c 1
EndSplineSet
EndChar
StartChar: e
Encoding: 101 101 71
OldEncoding: 101
Width: 728
Flags: W
HStem: -17 102<259 286> 333 104<157 661> 671 95<431 460>
Fore
661 333 m 1
 129 333 l 1
 123 308 119 281 120 252 c 1
 118 234 l 1
 121 209 126 189 134 175 c 0
 165 115 213 85 280 85 c 0
 313 85 344 90 371 102 c 0
 401 116 422 130 438 143 c 0
 453 156 467 173 482 194 c 0
 495 215 504 230 507 238 c 1
 626 238 l 1
 601 179 569 130 529 93 c 1
 496 58 456 32 409 13 c 1
 362 -7 313 -17 261 -17 c 0
 210 -17 165 -7 124 13 c 0
 81 34 50 63 28 102 c 0
 13 132 3 165 -1 199 c 0
 -6 251 -1 309 14 374 c 0
 42 497 93 591 167 656 c 0
 250 730 348 766 460 766 c 1
 488 764 515 758 541 749 c 0
 570 739 593 727 607 712 c 1
 630 695 645 678 653 661 c 0
 668 631 679 598 687 562 c 5
 688 550 l 2
 691 526 690 501 688 475 c 0
 683 444 674 397 661 333 c 1
157 437 m 1
 558 437 l 1
 566 464 568 495 564 530 c 2
 564 537 l 1
 558 571 552 594 543 606 c 1
 539 622 527 636 508 647 c 0
 478 663 452 671 431 671 c 0
 359 673 301 652 258 606 c 1
 242 595 224 573 202 539 c 0
 185 512 171 478 157 437 c 1
EndSplineSet
EndChar
StartChar: f
Encoding: 102 102 72
OldEncoding: 102
Width: 358
Flags: W
HStem: -1 21G<-25 91> 621 106<37 111 253 342> 913 102<370 409>
DStem: 111 621 229 621 -25 -1 91 -1
Fore
-25 -1 m 1
 111 621 l 1
 14 621 l 1
 38 727 l 1
 135 727 l 1
 161 851 l 2
 171 898 195 937 232 968 c 0
 267 996 294 1010 313 1010 c 1
 332 1013 351 1015 370 1015 c 0
 395 1015 416 1013 431 1010 c 1
 409 913 l 1
 366 913 336 908 316 899 c 1
 293 884 278 862 273 834 c 2
 253 727 l 1
 369 727 l 1
 342 621 l 1
 229 621 l 1
 91 -1 l 1
 -25 -1 l 1
EndSplineSet
EndChar
StartChar: g
Encoding: 103 103 73
OldEncoding: 103
Width: 726
Flags: W
HStem: -272 102<219 240> -2 112<239 289> 654 128<422 442> 740 20G<645 758>
Fore
645 760 m 1
 758 760 l 1
 625 154 l 1
 614 103 598 42 573 -29 c 1
 553 -78 527 -122 492 -163 c 0
 459 -200 417 -227 364 -244 c 0
 316 -258 275 -267 240 -272 c 1
 166 -272 112 -265 80 -251 c 0
 42 -235 14 -216 -2 -194 c 1
 -20 -173 -30 -150 -33 -124 c 2
 -33 -121 l 1
 -34 -115 l 2
 -36 -93 -36 -73 -34 -52 c 1
 87 -52 l 1
 88 -75 l 1
 89 -84 l 1
 93 -103 l 1
 94 -111 98 -118 106 -126 c 0
 115 -136 128 -146 144 -154 c 0
 164 -165 194 -170 232 -170 c 0
 270 -170 306 -164 343 -152 c 1
 379 -134 402 -118 412 -103 c 1
 426 -89 440 -66 452 -33 c 0
 475 19 492 70 502 119 c 1
 414 37 326 -4 239 -2 c 0
 188 1 142 23 100 64 c 1
 66 89 43 127 30 179 c 1
 24 221 l 1
 20 260 22 303 30 349 c 0
 44 414 64 473 89 526 c 0
 120 589 150 636 180 667 c 0
 201 688 237 713 289 742 c 1
 342 768 393 782 442 782 c 0
 522 780 583 743 623 672 c 1
 645 760 l 1
449 166 m 0
 501 212 537 283 561 380 c 0
 571 425 574 469 569 513 c 2
 568 524 l 2
 564 559 555 586 541 605 c 1
 539 613 524 624 501 638 c 1
 478 649 452 654 424 654 c 0
 342 654 278 618 232 548 c 0
 208 512 185 457 162 383 c 1
 151 327 147 281 151 246 c 0
 154 223 159 203 166 188 c 0
 194 136 234 110 289 110 c 0
 352 108 405 127 449 166 c 0
EndSplineSet
EndChar
StartChar: h
Encoding: 104 104 74
OldEncoding: 104
Width: 736
Flags: W
HStem: -1 21G<-61 54 399 518> 642 107<358 445> 990 20G<161 277>
DStem: 161 1010 277 1010 -61 -1 195 640 161 1010 157 473 -61 -1 54 -1 510 496 637 551 399 -1 518 -1
Fore
-61 -1 m 1
 161 1010 l 1
 277 1010 l 1
 195 640 l 1
 239 679 287 709 341 730 c 1
 393 743 427 749 445 749 c 0
 473 749 510 740 557 723 c 0
 600 705 626 679 634 644 c 1
 640 608 l 1
 643 585 642 566 637 551 c 1
 518 -1 l 1
 399 -1 l 1
 510 496 l 2
 515 518 516 540 514 564 c 0
 511 593 499 613 476 624 c 1
 441 636 402 642 358 642 c 1
 321 635 278 614 229 580 c 1
 189 549 165 513 157 473 c 1
 54 -1 l 1
 -61 -1 l 1
EndSplineSet
EndChar
StartChar: i
Encoding: 105 105 75
OldEncoding: 105
Width: 290
Flags: W
HStem: -1 21G<-47 69> 990 20G<175 292>
DStem: 114 728 230 728 -47 -1 69 -1 175 1010 292 1010 144 867 260 867
Fore
230 728 m 1
 69 -1 l 1
 -47 -1 l 1
 114 728 l 1
 230 728 l 1
292 1010 m 1
 260 867 l 1
 144 867 l 1
 175 1010 l 1
 292 1010 l 1
EndSplineSet
EndChar
StartChar: j
Encoding: 106 106 76
OldEncoding: 106
Width: 296
Flags: W
HStem: 725 20G<171 289> 1008 20G<231 349>
DStem: 171 745 289 745 -19 -118 93 -143 231 1028 349 1028 199 884 318 884
Fore
199 884 m 1
 231 1028 l 1
 349 1028 l 1
 318 884 l 1
 199 884 l 1
-177 -287 m 1
 -155 -185 l 1
 -84 -178 l 2
 -65 -176 -49 -168 -41 -156 c 0
 -28 -141 -21 -129 -19 -118 c 2
 171 745 l 1
 289 745 l 1
 93 -143 l 1
 86 -169 73 -196 52 -222 c 1
 28 -248 -3 -266 -41 -278 c 0
 -68 -284 -113 -287 -177 -287 c 1
EndSplineSet
EndChar
StartChar: k
Encoding: 107 107 77
OldEncoding: 107
Width: 656
Flags: W
HStem: -1 21G<-77 38 393 537> 990 20G<144 259>
DStem: 144 1010 259 1010 -77 -1 132 425 144 1010 99 272 -77 -1 38 -1 242 388 346 476 393 -1 537 -1 506 728 657 728 132 425 346 476
Fore
144 1010 m 1
 259 1010 l 1
 132 425 l 1
 506 728 l 1
 657 728 l 1
 346 476 l 1
 537 -1 l 1
 393 -1 l 1
 242 388 l 1
 99 272 l 1
 38 -1 l 1
 -77 -1 l 1
 144 1010 l 1
EndSplineSet
EndChar
StartChar: l
Encoding: 108 108 78
OldEncoding: 108
Width: 289
Flags: W
HStem: -1 21G<-45 71> 990 20G<177 294>
DStem: 177 1010 294 1010 -45 -1 71 -1
Fore
-45 -1 m 1
 177 1010 l 1
 294 1010 l 1
 71 -1 l 1
 -45 -1 l 1
EndSplineSet
EndChar
StartChar: m
Encoding: 109 109 79
OldEncoding: 109
Width: 1093
Flags: W
HStem: 657 107<382 446 798 850> 723 20G<113 229>
DStem: 113 743 170 484 -45 14 70 14 490 537 599 509 375 14 492 14 910 535 1037 583 797 14 914 14
Fore
-45 14 m 1
 113 743 l 1
 229 743 l 1
 209 650 l 1
 250 697 282 725 304 734 c 0
 345 754 393 764 446 764 c 0
 500 764 539 755 564 736 c 0
 589 715 609 688 622 655 c 1
 665 694 l 1
 674 704 685 713 699 722 c 2
 738 745 l 1
 776 758 814 764 850 764 c 0
 915 764 959 756 981 740 c 1
 996 733 1007 720 1015 703 c 1
 1027 686 1035 667 1039 646 c 1
 1040 639 l 2
 1042 616 1041 598 1037 583 c 1
 914 14 l 1
 797 14 l 1
 910 535 l 2
 911 542 911 553 910 566 c 0
 903 627 866 657 798 657 c 0
 749 657 707 643 673 615 c 0
 637 586 613 550 599 509 c 1
 492 14 l 1
 375 14 l 1
 490 537 l 1
 492 553 492 567 491 579 c 0
 486 631 450 657 382 657 c 0
 336 657 293 641 252 608 c 0
 207 571 179 529 170 484 c 1
 70 14 l 1
 -45 14 l 1
EndSplineSet
EndChar
StartChar: n
Encoding: 110 110 80
OldEncoding: 110
Width: 731
Flags: W
HStem: 657 107<431 484> 723 20G<133 249>
DStem: 133 743 173 400 -26 14 90 14 547 521 675 581 435 14 552 14
Fore
133 743 m 1
 249 743 l 1
 229 650 l 1
 269 693 302 720 328 731 c 1
 372 755 423 766 484 764 c 0
 533 764 571 758 599 745 c 1
 623 731 643 711 660 687 c 0
 668 672 674 655 676 636 c 0
 678 620 678 601 675 581 c 1
 552 14 l 1
 435 14 l 1
 547 521 l 1
 552 540 554 556 552 570 c 1
 545 595 l 1
 534 617 519 633 503 641 c 0
 481 652 458 657 431 657 c 0
 377 657 325 637 276 597 c 0
 229 559 195 494 173 400 c 1
 90 14 l 1
 -26 14 l 1
 133 743 l 1
EndSplineSet
EndChar
StartChar: o
Encoding: 111 111 81
OldEncoding: 111
Width: 729
Flags: W
HStem: -17 119<255 281> 650 116<398 427>
Fore
11 126 m 0
 4 147 -2 170 -5 197 c 0
 -10 243 -5 302 10 374 c 1
 34 477 70 560 121 623 c 1
 164 674 212 711 264 733 c 0
 315 755 369 766 427 766 c 0
 480 766 530 754 575 731 c 1
 617 707 645 671 662 623 c 0
 672 596 679 571 682 546 c 0
 687 497 682 439 668 374 c 0
 648 278 610 196 557 126 c 0
 518 78 472 42 418 18 c 0
 361 -5 307 -17 255 -17 c 0
 200 -17 151 -5 107 18 c 0
 64 41 32 77 11 126 c 0
279 102 m 0
 317 102 353 111 387 129 c 0
 423 147 453 175 476 212 c 0
 514 270 537 324 547 374 c 0
 555 418 557 458 553 493 c 1
 546 539 l 1
 539 576 523 604 496 623 c 0
 469 641 437 650 400 650 c 0
 366 650 329 641 288 625 c 1
 251 604 218 576 193 539 c 1
 153 446 l 2
 140 418 133 394 129 374 c 0
 121 343 119 302 125 252 c 2
 129 212 l 1
 140 175 157 148 183 129 c 0
 211 111 243 102 279 102 c 0
EndSplineSet
EndChar
StartChar: p
Encoding: 112 112 82
OldEncoding: 112
Width: 732
Flags: W
HStem: -272 21G<-64 53> -2 121<319 353> 672 110<447 494> 740 20G<162 264>
DStem: 162 760 135 110 -64 -272 53 -272
Fore
53 -272 m 1
 -64 -272 l 1
 162 760 l 1
 264 760 l 1
 243 667 l 1
 266 693 306 722 362 753 c 1
 399 772 443 782 494 782 c 0
 548 782 594 771 631 751 c 0
 678 725 709 684 727 626 c 0
 734 605 740 581 743 554 c 0
 747 518 745 478 737 436 c 2
 730 383 l 1
 718 325 698 270 670 219 c 0
 642 165 608 124 570 93 c 0
 494 30 416 -2 337 -2 c 0
 276 -2 227 13 189 43 c 0
 162 63 145 86 135 110 c 1
 53 -272 l 1
585 605 m 0
 561 652 515 674 447 672 c 0
 429 672 400 664 362 649 c 1
 333 632 309 613 291 592 c 0
 243 534 213 472 200 404 c 0
 191 365 188 324 190 281 c 1
 192 270 l 2
 195 234 201 207 209 188 c 1
 223 165 241 148 265 137 c 1
 286 125 309 119 335 119 c 0
 407 119 464 142 505 188 c 0
 551 237 582 303 598 385 c 1
 609 435 614 479 609 519 c 0
 606 552 598 580 585 605 c 0
EndSplineSet
EndChar
StartChar: q
Encoding: 113 113 83
OldEncoding: 113
Width: 721
Flags: W
HStem: -272 21G<421 538> -2 121<253 306> 672 110<438 446> 740 20G<663 762>
DStem: 504 110 762 760 421 -272 538 -272
Fore
538 -272 m 1
 421 -272 l 1
 504 110 l 1
 485 86 457 63 420 43 c 0
 371 13 315 -2 253 -2 c 0
 175 -2 111 30 62 93 c 0
 37 127 21 168 16 217 c 0
 11 266 15 319 29 378 c 2
 44 436 l 1
 68 509 100 572 139 626 c 0
 179 681 229 722 289 751 c 0
 335 771 385 782 440 782 c 0
 495 782 536 772 561 753 c 0
 597 727 624 698 642 667 c 1
 663 760 l 1
 762 760 l 1
 538 -272 l 1
271 605 m 1
 215 544 177 470 158 383 c 0
 149 339 147 296 151 254 c 0
 154 228 159 206 167 188 c 0
 190 142 236 119 306 119 c 0
 332 119 362 125 393 137 c 0
 417 147 441 164 465 188 c 1
 505 232 534 286 554 351 c 1
 561 365 565 382 569 402 c 0
 577 446 580 486 576 524 c 0
 573 550 568 573 560 592 c 1
 556 613 541 631 517 647 c 0
 490 664 463 672 438 672 c 0
 373 674 317 652 271 605 c 1
EndSplineSet
EndChar
StartChar: r
Encoding: 114 114 84
OldEncoding: 114
Width: 431
Flags: W
HStem: 641 123<430 472> 723 20G<141 260>
DStem: 141 743 182 394 -18 14 100 14
Fore
-18 14 m 1
 141 743 l 1
 260 743 l 1
 234 630 l 1
 261 664 296 697 337 727 c 1
 373 749 405 762 430 764 c 1
 498 764 l 1
 472 641 l 1
 422 641 384 636 357 625 c 0
 308 605 271 578 246 544 c 0
 219 506 197 456 182 394 c 1
 100 14 l 1
 -18 14 l 1
EndSplineSet
EndChar
StartChar: s
Encoding: 115 115 85
OldEncoding: 115
Width: 655
Flags: W
HStem: 746 20G<350 458.5>
Fore
-20 230 m 1
 93 230 l 1
 96 175 l 1
 97 166 l 2
 98 153 105 140 119 127 c 0
 130 114 153 102 187 90 c 1
 204 87 238 85 289 85 c 1
 337 94 369 104 385 115 c 1
 398 121 413 134 427 155 c 1
 441 171 449 187 453 203 c 1
 454 234 l 1
 452 261 431 282 394 296 c 1
 331 312 l 2
 290 322 265 329 258 331 c 2
 194 349 l 2
 172 355 154 362 141 369 c 1
 95 388 70 421 65 469 c 0
 62 492 65 519 71 548 c 0
 85 615 123 668 184 707 c 0
 245 746 312 766 388 766 c 0
 529 766 604 718 614 623 c 0
 616 599 615 572 609 541 c 1
 493 541 l 1
 496 555 496 567 495 579 c 0
 494 594 488 608 478 623 c 0
 461 643 420 654 352 656 c 1
 279 652 227 627 195 581 c 0
 191 575 186 564 183 546 c 1
 182 517 l 1
 183 500 192 487 208 479 c 2
 247 460 l 1
 297 446 l 1
 366 425 l 1
 433 414 485 395 523 369 c 0
 549 352 565 324 569 285 c 0
 572 255 569 224 562 190 c 1
 551 152 529 118 497 87 c 1
 464 52 427 28 389 14 c 0
 345 -5 300 -15 253 -17 c 0
 200 -19 154 -16 113 -7 c 0
 30 11 -16 58 -24 133 c 0
 -27 162 -25 194 -20 230 c 1
EndSplineSet
EndChar
StartChar: t
Encoding: 116 116 86
OldEncoding: 116
Width: 361
Flags: W
HStem: -27 107<91 185> 628 106<47 127 269 358>
DStem: 127 628 245 628 7 77 134 121 195 931 310 931 150 734 269 734
Fore
310 931 m 1
 269 734 l 1
 382 734 l 1
 358 628 l 1
 245 628 l 1
 134 121 l 1
 134 107 l 1
 136 89 153 80 185 80 c 1
 240 85 l 1
 218 -17 l 1
 189 -24 146 -27 91 -27 c 1
 58 -23 35 -9 19 15 c 1
 10 34 5 47 4 56 c 1
 7 77 l 1
 127 628 l 1
 26 628 l 1
 48 734 l 1
 150 734 l 1
 195 931 l 1
 310 931 l 1
EndSplineSet
EndChar
StartChar: u
Encoding: 117 117 87
OldEncoding: 117
Width: 725
Flags: W
HStem: -16 112<196 226> 726 20G<132 248 593 710>
DStem: 132 746 248 746 4 165 133 229 593 746 710 746 506 350 549 17
Fore
549 17 m 1
 433 17 l 1
 451 96 l 1
 412 55 378 28 349 15 c 0
 302 -6 251 -16 196 -16 c 0
 148 -16 111 -10 83 1 c 1
 37 28 11 69 5 123 c 0
 3 142 3 156 4 165 c 1
 132 746 l 1
 248 746 l 1
 133 229 l 1
 129 214 127 196 130 176 c 0
 132 151 143 130 164 114 c 0
 181 102 202 96 226 96 c 0
 260 96 288 98 308 103 c 1
 370 124 415 156 444 198 c 0
 472 237 493 288 506 350 c 2
 593 746 l 1
 710 746 l 1
 549 17 l 1
EndSplineSet
EndChar
StartChar: v
Encoding: 118 118 88
OldEncoding: 118
Width: 640
Flags: W
HStem: 724 20G<45 174 575 707>
Fore
264 15 m 1
 137 15 l 1
 45 744 l 1
 174 744 l 1
 234 154 l 1
 575 744 l 1
 707 744 l 1
 264 15 l 1
EndSplineSet
EndChar
StartChar: w
Encoding: 119 119 89
OldEncoding: 119
Width: 931
Flags: W
HStem: 724 20G<25 153 438 582 866 999>
DStem: 438 744 463 568 172 177 202 15
Fore
72 15 m 1
 25 744 l 1
 153 744 l 1
 172 177 l 1
 438 744 l 1
 582 744 l 1
 592 177 l 1
 866 744 l 1
 999 744 l 1
 620 15 l 1
 492 15 l 1
 463 568 l 1
 202 15 l 1
 72 15 l 1
EndSplineSet
EndChar
StartChar: x
Encoding: 120 120 90
OldEncoding: 120
Width: 654
Flags: W
HStem: 724 20G<84 216 568 700>
DStem: 84 744 216 744 247 388 336 487 247 388 288 289 -94 15 38 15 288 289 374 390 408 15 540 15 568 744 700 744 336 487 374 390
Fore
288 289 m 1
 38 15 l 1
 -94 15 l 1
 247 388 l 1
 84 744 l 1
 216 744 l 1
 336 487 l 1
 568 744 l 1
 700 744 l 1
 374 390 l 1
 540 15 l 1
 408 15 l 1
 288 289 l 1
EndSplineSet
EndChar
StartChar: y
Encoding: 121 121 91
OldEncoding: 121
Width: 651
Flags: W
HStem: -270 113<-3 42> 741 20G<116 239 628 752>
DStem: 116 761 239 761 192 21 302 211 628 761 752 761 302 211 221 -137
Fore
628 761 m 1
 752 761 l 1
 221 -137 l 1
 191 -191 149 -230 94 -252 c 0
 65 -264 32 -270 -3 -270 c 0
 -29 -270 -50 -265 -66 -255 c 1
 -41 -146 l 1
 -23 -154 6 -157 42 -157 c 1
 74 -152 101 -132 122 -95 c 2
 192 21 l 1
 116 761 l 1
 239 761 l 1
 302 211 l 1
 628 761 l 1
EndSplineSet
EndChar
StartChar: z
Encoding: 122 122 92
OldEncoding: 122
Width: 655
Flags: W
HStem: 15 115<109 518> 629 115<119 488>
DStem: 488 629 641 642 -50 110 109 130
Fore
664 744 m 1
 641 642 l 1
 109 130 l 1
 542 130 l 1
 518 15 l 1
 -70 15 l 1
 -50 110 l 1
 488 629 l 1
 95 629 l 1
 120 744 l 1
 664 744 l 1
EndSplineSet
EndChar
StartChar: braceleft
Encoding: 123 123 93
OldEncoding: 123
Width: 427
Flags: W
DStem: 84 129 193 152 33 -110 141 -93 244 857 345 844 192 622 289 596
Fore
20 325 m 1
 40 422 l 1
 85 432 119 453 142 483 c 1
 161 513 178 559 192 622 c 2
 244 857 l 2
 256 907 276 947 307 978 c 0
 341 1011 369 1027 392 1027 c 2
 496 1031 l 1
 476 939 l 1
 411 932 l 2
 392 930 377 922 367 909 c 0
 358 895 351 873 345 844 c 1
 289 596 l 2
 276 535 256 487 228 453 c 1
 204 426 175 399 140 374 c 1
 159 358 177 334 190 303 c 0
 198 290 201 274 203 256 c 0
 206 231 202 197 193 152 c 2
 141 -93 l 1
 133 -118 131 -138 132 -154 c 1
 135 -161 l 1
 139 -173 150 -181 168 -183 c 2
 229 -190 l 1
 211 -280 l 1
 108 -278 l 1
 86 -276 65 -259 45 -227 c 0
 36 -210 30 -192 28 -174 c 0
 26 -156 28 -135 33 -110 c 1
 84 129 l 1
 96 182 100 222 97 250 c 1
 93 268 l 1
 85 297 61 316 20 325 c 1
EndSplineSet
EndChar
StartChar: bar
Encoding: 124 124 94
OldEncoding: 124
Width: 339
Flags: W
HStem: 1007 20G<265 348>
DStem: 265 1027 348 1027 -23 -282 60 -282
Fore
348 1027 m 1
 60 -282 l 1
 -23 -282 l 1
 265 1027 l 1
 348 1027 l 1
EndSplineSet
EndChar
StartChar: braceright
Encoding: 125 125 95
OldEncoding: 125
Width: 447
Flags: W
DStem: 91 152 190 129 38 -93 137 -110 241 844 350 857 189 596 298 622
Fore
365 422 m 1
 343 325 l 1
 295 316 262 297 242 268 c 0
 222 240 205 193 190 129 c 2
 137 -110 l 1
 128 -143 115 -171 98 -195 c 0
 86 -215 66 -235 41 -256 c 1
 22 -268 4 -276 -12 -278 c 1
 -115 -280 l 1
 -96 -190 l 1
 -33 -183 l 2
 -14 -181 1 -173 12 -158 c 0
 23 -143 32 -121 38 -93 c 1
 91 152 l 2
 104 213 126 263 159 300 c 0
 190 335 217 359 240 374 c 1
 227 393 l 1
 218 403 208 419 200 442 c 1
 191 455 185 475 182 501 c 2
 182 508 l 1
 181 513 l 2
 178 538 182 566 189 596 c 1
 241 844 l 1
 248 872 251 890 251 899 c 1
 247 909 l 2
 243 922 232 930 214 932 c 2
 153 939 l 1
 174 1031 l 1
 273 1027 l 1
 291 1025 305 1017 318 1003 c 0
 336 981 346 961 350 943 c 1
 354 921 l 1
 356 905 354 884 350 857 c 1
 298 622 l 1
 287 563 282 522 285 499 c 1
 288 483 l 1
 297 453 324 432 365 422 c 1
EndSplineSet
EndChar
StartChar: asciitilde
Encoding: 126 126 96
OldEncoding: 126
Width: 762
Flags: W
HStem: 371 95<478 503> 522 88<202 221>
DStem: 245 500 290 591 374 405 449 482
Fore
103 405 m 1
 29 405 l 1
 48 479 75 531 111 561 c 1
 147 594 183 610 221 610 c 0
 250 610 273 603 290 591 c 2
 449 482 l 2
 463 471 482 466 503 466 c 0
 521 466 536 471 550 480 c 0
 566 492 581 523 593 572 c 1
 665 572 l 1
 649 511 625 462 591 427 c 0
 556 390 518 371 478 371 c 0
 445 371 411 383 374 405 c 1
 245 500 l 1
 235 514 221 522 202 522 c 0
 182 522 162 511 144 489 c 0
 124 468 111 440 103 405 c 1
EndSplineSet
EndChar
StartChar: uni0E10.descless
Encoding: 128 63232 97
OldEncoding: 63232
Width: 692
Flags: W
HStem: -1 21G<369 484> 198 70<190 206> 411 71<233 254> 652 85<636 658> 721 79<371 397>
DStem: 470 381 570 385 430 191 484 -1
Fore
254 482 m 0
 283 482 309 474 332 458 c 0
 356 440 371 418 379 390 c 1
 430 191 l 1
 470 381 l 2
 478 413 480 441 477 464 c 0
 476 478 473 489 467 498 c 0
 454 519 422 538 373 555 c 0
 329 568 276 580 214 591 c 1
 161 603 118 610 87 613 c 1
 127 662 176 707 232 747 c 1
 287 782 341 800 393 800 c 0
 426 800 452 797 474 792 c 0
 510 780 534 772 545 767 c 2
 607 744 l 1
 624 739 642 737 658 737 c 0
 686 737 714 743 743 756 c 1
 742 675 l 1
 704 660 668 652 636 652 c 0
 614 652 596 654 583 659 c 2
 512 684 l 1
 440 712 l 2
 424 718 404 721 381 721 c 0
 359 721 333 715 302 703 c 1
 275 689 259 678 255 670 c 1
 300 659 l 1
 379 635 l 1
 452 617 l 2
 520 598 561 573 573 540 c 1
 578 513 l 2
 584 485 580 443 570 385 c 1
 484 -1 l 1
 369 -1 l 1
 365 87 l 1
 355 149 l 1
 341 214 330 254 325 268 c 1
 314 248 295 231 269 217 c 0
 243 204 217 198 191 198 c 0
 146 198 115 212 97 240 c 0
 85 257 78 275 76 293 c 0
 75 305 75 320 79 339 c 0
 89 381 109 415 140 441 c 0
 172 469 209 482 254 482 c 0
204 268 m 0
 228 268 247 275 262 288 c 0
 279 303 289 320 291 339 c 1
 293 367 l 1
 286 390 l 1
 278 404 262 411 238 411 c 0
 217 411 198 404 180 390 c 1
 163 373 153 356 148 339 c 1
 148 319 l 1
 150 307 153 297 158 290 c 0
 166 275 182 268 204 268 c 0
EndSplineSet
EndChar
StartChar: uni0E34.left
Encoding: 129 63233 98
OldEncoding: 63233
Width: 0
Flags: W
HStem: 920 67<-662 -571> 1098 72<-486 -455>
DStem: -572 989 -572 989 -662 987 -493 987
Fore
-455 1170 m 1
 -353 1156 -288 1117 -261 1051 c 0
 -238 998 -225 947 -219 899 c 1
 -215 841 l 1
 -330 881 l 1
 -368 893 -423 904 -494 913 c 0
 -533 918 -576 920 -621 920 c 0
 -685 920 -733 919 -761 916 c 0
 -749 916 -779 912 -849 903 c 1
 -832 949 -801 993 -759 1035 c 0
 -720 1077 -673 1110 -617 1135 c 0
 -568 1158 -513 1170 -455 1170 c 1
-486 1098 m 1
 -534 1098 -580 1086 -623 1061 c 0
 -668 1037 -698 1010 -711 982 c 1
 -662 987 l 1
 -572 989 l 1
 -493 987 l 1
 -435 982 -390 973 -358 960 c 0
 -324 946 -304 936 -297 929 c 1
 -319 1026 -382 1082 -486 1098 c 1
EndSplineSet
EndChar
StartChar: uni0E35.left
Encoding: 130 63234 99
OldEncoding: 63234
Width: 0
Flags: W
HStem: 915 67<-672 -579> 1092 73<-496 -461>
DStem: -579 984 -579 984 -672 982 -500 982 -249 1257 -162 1257 -291 1074 -234 935
Fore
-291 1074 m 1
 -249 1257 l 1
 -162 1257 l 5
 -234 935 l 1
 -234 935 l 1
 -233 935 -231 924 -229 900 c 1
 -226 836 l 1
 -255 848 -292 861 -337 875 c 0
 -377 887 -433 898 -504 908 c 0
 -544 913 -585 915 -628 915 c 2
 -769 910 l 1
 -857 898 l 1
 -837 946 -807 991 -767 1032 c 0
 -728 1072 -681 1105 -628 1130 c 0
 -576 1153 -521 1165 -461 1165 c 1
 -425 1160 -393 1151 -366 1136 c 0
 -345 1127 -327 1114 -312 1100 c 0
 -303 1092 -296 1083 -291 1074 c 1
-496 1092 m 1
 -529 1092 -560 1086 -591 1074 c 0
 -624 1062 -650 1047 -670 1030 c 1
 -694 1014 -710 997 -720 977 c 1
 -672 982 l 1
 -579 984 l 1
 -500 982 l 1
 -444 977 -400 968 -366 954 c 0
 -339 944 -319 934 -306 924 c 1
 -313 961 -329 997 -355 1032 c 1
 -385 1066 -432 1085 -496 1092 c 1
EndSplineSet
EndChar
StartChar: uni0E36.left
Encoding: 131 63235 100
OldEncoding: 63235
Width: 0
Flags: W
HStem: 914 67<-672 -580> 1091 77<-507 -497> 1208 62<-262 -246>
DStem: -580 983 -580 983 -672 981 -501 981
Fore
-148 1146 m 0
 -154 1116 -167 1089 -189 1067 c 0
 -211 1043 -234 1029 -260 1025 c 1
 -253 1012 -246 986 -237 948 c 1
 -227 902 l 1
 -225 881 -224 858 -227 835 c 1
 -256 847 -292 860 -337 875 c 0
 -378 887 -434 898 -505 907 c 0
 -544 912 -585 914 -628 914 c 2
 -769 910 l 1
 -858 897 l 1
 -827 975 -776 1040 -702 1091 c 1
 -634 1143 -567 1168 -500 1168 c 0
 -475 1168 -454 1166 -437 1162 c 0
 -418 1156 -405 1152 -399 1148 c 1
 -393 1178 -375 1206 -344 1230 c 1
 -316 1257 -284 1270 -246 1270 c 0
 -205 1270 -177 1258 -163 1233 c 0
 -152 1219 -147 1204 -145 1186 c 0
 -144 1177 -145 1164 -148 1146 c 0
-259 1208 m 0
 -278 1208 -293 1202 -306 1191 c 0
 -317 1180 -326 1167 -331 1150 c 1
 -331 1133 l 1
 -330 1125 -327 1117 -323 1111 c 0
 -313 1098 -301 1091 -284 1091 c 0
 -270 1091 -254 1098 -238 1111 c 0
 -224 1123 -216 1136 -216 1150 c 1
 -213 1171 l 1
 -220 1191 l 1
 -227 1202 -240 1208 -259 1208 c 0
-497 1091 m 1
 -529 1091 -561 1085 -592 1073 c 0
 -625 1061 -651 1047 -671 1029 c 1
 -694 1014 -711 996 -721 976 c 1
 -672 981 l 1
 -580 983 l 1
 -501 981 l 1
 -445 976 -400 967 -367 954 c 0
 -339 943 -319 933 -307 923 c 1
 -313 959 -330 994 -358 1029 c 0
 -385 1062 -431 1082 -497 1091 c 1
EndSplineSet
EndChar
StartChar: uni0E37.left
Encoding: 132 63236 101
OldEncoding: 63236
Width: 0
Flags: W
HStem: 915 67<-686 -593> 1092 77<-520 -507>
DStem: -593 984 -593 984 -686 982 -514 982 -435 1257 -349 1257 -457 1162 -375 1134 -263 1257 -176 1257 -305 1072 -248 933
Fore
-248 933 m 1
 -247 933 -246 929 -245 922 c 1
 -240 836 l 1
 -269 848 -306 861 -351 875 c 0
 -391 887 -447 898 -518 908 c 0
 -558 913 -599 915 -642 915 c 2
 -783 910 l 1
 -871 898 l 1
 -850 951 -820 997 -782 1035 c 1
 -742 1077 -698 1109 -649 1132 c 1
 -601 1157 -554 1169 -507 1169 c 0
 -490 1169 -474 1167 -457 1162 c 1
 -435 1257 l 1
 -349 1257 l 1
 -375 1134 l 1
 -342 1120 -318 1099 -305 1072 c 1
 -263 1257 l 1
 -176 1257 l 1
 -248 933 l 1
-510 1092 m 1
 -559 1092 -605 1080 -647 1056 c 0
 -690 1031 -719 1005 -734 977 c 1
 -686 982 l 1
 -593 984 l 1
 -514 982 l 1
 -458 977 -414 968 -380 954 c 0
 -353 944 -333 934 -320 924 c 1
 -343 1020 -406 1076 -510 1092 c 1
EndSplineSet
EndChar
StartChar: ellipsis
Encoding: 133 8230 102
OldEncoding: 8230
Width: 1087
Flags: W
HStem: -27 21G<47 107.5>
Fore
883 58 m 4
 879 8 847 -20 786 -27 c 5
 732 -27 704 1 702 58 c 5
 710 119 744 150 804 150 c 4
 829 150 849 141 865 123 c 4
 879 107 885 85 883 58 c 4
529 58 m 4
 525 8 493 -20 432 -27 c 5
 378 -27 350 1 349 58 c 5
 355 119 389 150 449 150 c 4
 474 150 495 141 511 123 c 5
 525 105 531 83 529 58 c 4
175 58 m 5
 171 1 138 -27 77 -27 c 4
 17 -27 -10 1 -5 58 c 4
 2 119 35 150 96 150 c 4
 156 150 182 119 175 58 c 5
EndSplineSet
EndChar
StartChar: uni0E48.low_left
Encoding: 134 63237 103
OldEncoding: 63237
Width: 0
Flags: W
DStem: -284 1219 -195 1219 -360 869 -271 869
Fore
-360 869 m 5
 -284 1219 l 5
 -195 1219 l 5
 -271 869 l 5
 -360 869 l 5
EndSplineSet
EndChar
StartChar: uni0E49.low_left
Encoding: 135 63238 104
OldEncoding: 63238
Width: 0
Flags: W
HStem: 854 73<-529 -496> 971 62<-587 -559> 973 60<-564 -557> 1159 67<-532 -515>
Fore
-406 1092 m 4
 -416 1045 -432 1008 -451 980 c 5
 -477 950 -493 932 -498 927 c 5
 -471 927 -441 931 -408 938 c 4
 -374 946 -343 961 -313 985 c 4
 -250 1031 -208 1109 -185 1216 c 5
 -90 1216 l 5
 -127 1052 -207 944 -332 892 c 4
 -395 866 -461 854 -529 854 c 4
 -555 854 -581 856 -608 860 c 6
 -660 869 l 5
 -647 875 -630 886 -611 902 c 4
 -588 920 -568 944 -551 976 c 4
 -551 974 -556 973 -564 973 c 6
 -587 971 l 6
 -600 971 -611 973 -621 976 c 4
 -659 987 -679 1012 -683 1050 c 4
 -685 1065 -685 1080 -681 1097 c 4
 -673 1133 -652 1164 -621 1189 c 4
 -590 1213 -555 1226 -515 1226 c 4
 -472 1226 -440 1212 -422 1186 c 4
 -411 1170 -405 1153 -403 1135 c 4
 -402 1122 -402 1108 -406 1092 c 4
-530 1159 m 4
 -548 1159 -565 1153 -582 1141 c 4
 -594 1131 -603 1116 -609 1097 c 5
 -609 1077 l 5
 -603 1055 l 5
 -594 1040 -580 1033 -559 1033 c 4
 -545 1033 -533 1037 -524 1043 c 4
 -513 1049 -503 1057 -495 1066 c 5
 -487 1078 -483 1088 -483 1097 c 6
 -481 1119 l 5
 -481 1127 -484 1135 -490 1143 c 4
 -497 1153 -511 1159 -530 1159 c 4
EndSplineSet
EndChar
StartChar: uni0E4A.low_left
Encoding: 136 63239 105
OldEncoding: 63239
Width: 0
Flags: W
HStem: 849 42<-617 -602> 993 41<-585 -574> 1092 63<-566 -539 -408 -379>
Fore
-616 849 m 4
 -652 851 -678 868 -693 900 c 4
 -700 915 -705 931 -707 949 c 4
 -709 966 -707 988 -703 1014 c 5
 -693 1052 -674 1086 -646 1116 c 5
 -617 1142 -584 1155 -549 1155 c 4
 -534 1155 -520 1153 -507 1147 c 4
 -497 1142 -487 1135 -478 1127 c 4
 -472 1121 -468 1117 -468 1116 c 5
 -468 1116 l 5
 -460 1125 -449 1133 -436 1141 c 4
 -419 1150 -400 1155 -379 1155 c 4
 -341 1155 -318 1143 -309 1118 c 4
 -303 1107 -300 1094 -299 1081 c 4
 -297 1061 -298 1039 -305 1014 c 5
 -312 976 -328 943 -356 915 c 5
 -308 940 l 6
 -289 951 -272 965 -257 981 c 4
 -232 1011 -218 1042 -212 1072 c 4
 -209 1082 -208 1103 -209 1134 c 5
 -135 1160 l 5
 -133 1142 -135 1121 -139 1097 c 4
 -152 1038 -179 986 -218 942 c 4
 -272 883 -357 854 -471 854 c 5
 -467 858 -455 871 -433 891 c 4
 -422 902 -409 917 -396 937 c 4
 -383 958 -374 979 -370 999 c 4
 -365 1026 -363 1045 -364 1058 c 6
 -365 1067 l 5
 -370 1084 -384 1092 -408 1092 c 4
 -424 1092 -438 1087 -452 1076 c 5
 -480 1048 l 5
 -488 1060 l 6
 -493 1067 -501 1074 -511 1081 c 4
 -521 1088 -536 1092 -554 1092 c 4
 -571 1092 -587 1086 -603 1074 c 5
 -616 1059 -625 1041 -629 1021 c 5
 -607 1030 l 5
 -576 1034 l 5
 -547 1034 -526 1025 -512 1006 c 4
 -507 997 -503 987 -501 975 c 4
 -500 963 -502 951 -504 937 c 4
 -510 914 -523 894 -544 877 c 4
 -568 859 -592 849 -616 849 c 4
-585 993 m 4
 -600 993 -614 988 -625 979 c 5
 -637 966 -643 954 -644 942 c 6
 -645 928 l 5
 -638 907 l 5
 -632 896 -622 891 -606 891 c 4
 -590 891 -576 896 -567 907 c 4
 -555 917 -548 929 -545 942 c 5
 -542 961 l 5
 -549 979 l 5
 -556 988 -568 993 -585 993 c 4
EndSplineSet
EndChar
StartChar: uni0E4B.low_left
Encoding: 137 63240 106
OldEncoding: 63240
Width: 0
Flags: W
HStem: 1025 76<-550 -412 -312 -174>
DStem: -412 1025 -326 1025 -446 869 -360 869 -362 1255 -276 1255 -394 1101 -312 1101
Fore
-412 1025 m 5
 -567 1025 l 5
 -549 1101 l 5
 -394 1101 l 5
 -362 1255 l 5
 -276 1255 l 5
 -312 1101 l 5
 -156 1101 l 5
 -174 1025 l 5
 -326 1025 l 5
 -360 869 l 5
 -446 869 l 5
 -412 1025 l 5
EndSplineSet
EndChar
StartChar: uni0E4C.low_left
Encoding: 138 63241 107
OldEncoding: 63241
Width: 0
Flags: W
HStem: 849 75<-391 -374> 1039 62<-351 -335>
Fore
-447 1043 m 1
 -440 1055 -428 1066 -411 1078 c 0
 -390 1094 -365 1101 -335 1101 c 0
 -299 1103 -273 1092 -255 1067 c 0
 -243 1049 -237 1034 -235 1021 c 0
 -234 1007 -235 994 -239 981 c 0
 -247 947 -264 917 -292 891 c 0
 -322 863 -355 849 -391 849 c 4
 -446 847 -486 862 -509 895 c 1
 -524 912 -532 931 -534 953 c 0
 -536 970 -535 990 -530 1014 c 0
 -508 1101 -459 1161 -383 1191 c 0
 -343 1210 -292 1220 -232 1224 c 0
 -162 1230 -116 1236 -95 1242 c 0
 -67 1252 -47 1277 -38 1317 c 1
 43 1317 l 1
 36 1278 18 1248 -10 1224 c 1
 -35 1200 -63 1183 -94 1173 c 0
 -136 1160 -183 1152 -236 1150 c 0
 -301 1145 -348 1138 -374 1127 c 0
 -403 1116 -427 1088 -447 1043 c 1
-349 1039 m 0
 -367 1039 -384 1034 -399 1023 c 0
 -409 1013 -418 999 -423 981 c 1
 -423 965 l 1
 -422 956 -420 949 -415 942 c 0
 -406 930 -392 924 -374 924 c 0
 -358 924 -343 930 -330 942 c 1
 -314 952 -306 965 -306 981 c 1
 -306 999 l 1
 -311 1023 l 1
 -318 1034 -330 1039 -349 1039 c 0
EndSplineSet
EndChar
StartChar: uni0E48.low
Encoding: 139 63242 108
OldEncoding: 63242
Width: 0
Flags: W
DStem: -30 1219 59 1219 -107 869 -21 869
Fore
-107 869 m 5
 -30 1219 l 5
 59 1219 l 5
 -21 869 l 5
 -107 869 l 5
EndSplineSet
EndChar
StartChar: uni0E49.low
Encoding: 140 63243 109
OldEncoding: 63243
Width: 0
Flags: W
HStem: 854 73<-174 -141> 971 62<-232 -204> 1159 67<-180 -162>
Fore
-51 1092 m 4
 -62 1043 -78 1006 -96 980 c 4
 -117 955 -132 937 -143 927 c 5
 -116 927 -86 931 -53 938 c 4
 -22 945 8 961 39 985 c 4
 104 1034 148 1111 170 1216 c 5
 265 1216 l 5
 229 1051 149 943 27 892 c 4
 -34 866 -101 854 -174 854 c 4
 -200 854 -225 856 -247 860 c 6
 -299 869 l 5
 -295 872 -278 883 -250 902 c 5
 -229 920 -210 945 -196 976 c 5
 -206 973 l 5
 -232 971 l 6
 -244 971 -255 973 -265 976 c 4
 -303 987 -323 1012 -327 1050 c 4
 -329 1065 -329 1080 -325 1097 c 4
 -318 1132 -299 1163 -269 1189 c 5
 -237 1213 -202 1226 -162 1226 c 4
 -119 1226 -88 1212 -70 1186 c 5
 -56 1172 -49 1155 -47 1135 c 4
 -46 1121 -46 1107 -51 1092 c 4
-178 1159 m 4
 -197 1159 -213 1153 -226 1141 c 4
 -240 1129 -249 1114 -252 1097 c 5
 -252 1077 l 5
 -246 1055 l 5
 -239 1040 -226 1033 -204 1033 c 4
 -184 1033 -166 1040 -153 1055 c 5
 -140 1065 -130 1078 -124 1097 c 5
 -124 1117 l 5
 -131 1141 l 5
 -140 1153 -156 1159 -178 1159 c 4
EndSplineSet
EndChar
StartChar: uni0E4A.low
Encoding: 141 63244 110
OldEncoding: 63244
Width: 0
Flags: W
HStem: 849 42<-292 -280> 993 41<-259 -249> 1092 63<-241 -217 -83 -54>
Fore
-291 849 m 4
 -326 851 -353 868 -370 900 c 4
 -378 914 -383 930 -385 949 c 4
 -386 963 -385 985 -380 1014 c 5
 -367 1055 -347 1089 -321 1116 c 5
 -292 1142 -259 1155 -223 1155 c 4
 -209 1155 -195 1153 -182 1147 c 5
 -153 1127 l 6
 -146 1121 -142 1117 -142 1116 c 5
 -142 1116 l 5
 -134 1125 -124 1133 -110 1141 c 4
 -94 1150 -75 1155 -54 1155 c 4
 -16 1155 7 1143 16 1118 c 5
 24 1083 l 5
 26 1065 25 1042 20 1014 c 4
 13 979 -3 946 -29 915 c 5
 17 940 l 6
 38 952 53 966 66 981 c 4
 91 1013 105 1044 111 1074 c 4
 117 1097 119 1117 117 1134 c 5
 190 1160 l 5
 192 1142 191 1121 186 1097 c 4
 173 1038 147 986 107 942 c 5
 51 883 -34 854 -146 854 c 5
 -110 891 l 5
 -98 901 -84 916 -70 937 c 4
 -59 955 -51 976 -45 999 c 4
 -40 1026 -38 1045 -39 1058 c 6
 -40 1067 l 5
 -45 1084 -59 1092 -83 1092 c 4
 -101 1092 -115 1087 -127 1076 c 6
 -155 1048 l 5
 -162 1060 l 6
 -168 1067 -176 1074 -186 1081 c 4
 -196 1088 -211 1092 -229 1092 c 4
 -247 1092 -262 1086 -275 1074 c 4
 -291 1058 -302 1040 -307 1021 c 5
 -282 1030 l 5
 -251 1034 l 5
 -222 1034 -201 1025 -187 1006 c 4
 -181 997 -178 987 -176 975 c 4
 -175 963 -176 951 -179 937 c 4
 -184 914 -198 894 -219 877 c 4
 -243 859 -267 849 -291 849 c 4
-259 993 m 4
 -278 993 -292 988 -303 979 c 5
 -311 969 -317 956 -321 942 c 5
 -324 926 l 5
 -324 921 -320 914 -315 907 c 4
 -309 896 -299 891 -282 891 c 4
 -265 891 -251 896 -241 907 c 4
 -230 917 -223 929 -219 942 c 5
 -219 961 l 5
 -223 979 l 5
 -231 988 -243 993 -259 993 c 4
EndSplineSet
EndChar
StartChar: uni0E4B.low
Encoding: 142 63245 111
OldEncoding: 63245
Width: 0
Flags: W
HStem: 1025 76<-225 -84 19 154>
DStem: -84 1025 2 1025 -118 869 -32 869 -37 1255 51 1255 -70 1101 19 1101
Fore
-84 1025 m 5
 -239 1025 l 5
 -224 1101 l 5
 -70 1101 l 5
 -37 1255 l 5
 51 1255 l 5
 19 1101 l 5
 171 1101 l 5
 154 1025 l 5
 2 1025 l 5
 -32 869 l 5
 -118 869 l 5
 -84 1025 l 5
EndSplineSet
EndChar
StartChar: uni0E4C.low
Encoding: 143 63246 112
OldEncoding: 63246
Width: 0
Flags: W
HStem: 849 75<-172 -154> 1039 62<-132 -116>
Fore
-229 1043 m 1
 -223 1052 -211 1063 -192 1078 c 1
 -170 1094 -144 1101 -116 1101 c 0
 -79 1103 -52 1092 -34 1067 c 1
 -23 1055 -16 1040 -15 1023 c 0
 -13 1009 -16 995 -20 981 c 1
 -29 947 -45 917 -74 891 c 0
 -104 863 -136 849 -172 849 c 4
 -227 847 -266 862 -290 893 c 0
 -304 910 -311 930 -313 955 c 0
 -316 976 -315 996 -310 1014 c 0
 -291 1101 -243 1160 -164 1191 c 0
 -124 1210 -73 1220 -10 1222 c 0
 52 1224 98 1230 127 1240 c 0
 155 1250 174 1275 183 1317 c 1
 264 1317 l 1
 257 1278 239 1248 211 1224 c 1
 186 1200 158 1183 125 1173 c 0
 83 1160 37 1152 -15 1150 c 0
 -80 1145 -127 1138 -153 1127 c 0
 -181 1117 -206 1089 -229 1043 c 1
-130 1039 m 0
 -149 1039 -165 1034 -178 1023 c 0
 -188 1013 -197 999 -202 981 c 1
 -202 963 l 1
 -201 954 -198 946 -194 940 c 0
 -187 929 -173 924 -154 924 c 0
 -139 924 -125 930 -110 942 c 0
 -95 953 -88 966 -87 981 c 1
 -85 999 l 1
 -92 1023 l 1
 -99 1034 -111 1039 -130 1039 c 0
EndSplineSet
EndChar
StartChar: uni0E0D.descless
Encoding: 144 63247 113
OldEncoding: 63247
Width: 1025
Flags: W
HStem: -14 71<176 195> 0 84<394 746> 199 72<219 240> 729 72<440 474> 766 20G<957 1055>
DStem: 123 409 221 414 61 130 187 261 600 578 697 578 490 84 587 84 957 786 1055 786 819 150 916 150
Fore
61 130 m 1
 123 409 l 1
 144 499 189 556 257 578 c 1
 247 587 228 600 200 618 c 0
 180 631 145 644 97 657 c 1
 121 683 164 713 226 748 c 0
 292 783 370 801 459 801 c 0
 612 801 694 754 704 660 c 0
 706 635 704 608 697 578 c 2
 587 84 l 1
 731 84 l 2
 763 84 784 88 794 97 c 1
 804 103 812 121 819 150 c 2
 957 786 l 1
 1055 786 l 1
 916 150 l 1
 908 111 896 78 880 53 c 0
 866 31 847 17 825 11 c 0
 797 3 760 0 714 0 c 2
 376 0 l 1
 395 84 l 1
 490 84 l 1
 600 578 l 2
 605 599 606 617 604 634 c 0
 602 655 593 675 576 691 c 0
 550 716 510 729 457 729 c 0
 386 729 313 709 238 671 c 1
 251 667 274 656 307 638 c 0
 333 624 360 602 386 574 c 1
 373 574 358 571 341 565 c 0
 318 558 296 543 272 521 c 1
 248 493 232 457 221 414 c 2
 187 261 l 1
 196 268 214 271 240 271 c 0
 285 271 315 257 332 229 c 0
 341 210 347 194 348 180 c 0
 350 162 349 145 344 130 c 0
 337 92 319 59 288 30 c 0
 257 1 220 -14 176 -14 c 0
 135 -14 104 -1 81 26 c 0
 68 42 60 60 58 79 c 0
 56 95 57 112 61 130 c 1
193 57 m 0
 215 57 234 64 250 79 c 0
 264 92 273 109 277 130 c 1
 278 150 l 1
 277 160 274 169 270 178 c 1
 259 192 243 199 222 199 c 0
 199 199 180 192 165 178 c 0
 150 164 139 148 134 130 c 1
 132 106 l 1
 133 94 137 85 144 79 c 1
 152 64 168 57 193 57 c 0
EndSplineSet
EndChar
StartChar: quoteleft
Encoding: 145 8216 114
OldEncoding: 8216
Width: 300
Flags: W
Fore
132 840 m 0
 143 904 172 953 217 989 c 0
 260 1021 306 1041 355 1048 c 5
 373 1048 382 1045 383 1039 c 2
 383 1037 l 1
 373 1026 l 1
 289 986 l 1
 256 967 235 943 225 914 c 1
 244 918 l 1
 271 923 l 1
 316 918 340 898 343 863 c 0
 344 853 344 840 341 826 c 0
 335 799 321 776 301 757 c 1
 279 738 252 729 223 729 c 0
 164 729 133 752 128 799 c 0
 127 811 128 825 132 840 c 0
EndSplineSet
EndChar
StartChar: quoteright
Encoding: 146 8217 115
OldEncoding: 8217
Width: 299
Flags: W
Fore
256 932 m 4
 260 866 244 810 209 764 c 4
 177 722 138 692 93 673 c 5
 76 668 66 669 64 675 c 5
 63 677 l 5
 70 691 l 5
 140 750 l 5
 166 776 181 805 184 837 c 5
 168 829 l 5
 143 817 l 5
 100 811 71 826 60 860 c 4
 57 870 54 883 54 898 c 4
 53 926 60 952 74 976 c 5
 92 1000 114 1015 143 1022 c 4
 198 1036 234 1020 249 975 c 4
 253 962 255 948 256 932 c 4
EndSplineSet
EndChar
StartChar: quotedblleft
Encoding: 147 8220 116
OldEncoding: 8220
Width: 460
Flags: W
Fore
39 853 m 4
 54 916 86 963 133 996 c 4
 176 1025 223 1043 275 1049 c 5
 293 1048 302 1044 302 1037 c 5
 302 1035 l 5
 292 1024 l 5
 271 1018 242 1006 205 989 c 4
 173 973 150 951 138 922 c 5
 156 925 l 5
 183 929 l 5
 229 921 252 900 253 864 c 4
 254 853 253 841 248 828 c 4
 242 801 227 779 206 762 c 4
 185 744 159 736 125 738 c 4
 67 741 37 765 35 811 c 4
 33 823 35 837 39 853 c 4
295 840 m 4
 310 902 341 950 389 982 c 4
 432 1011 479 1029 530 1035 c 5
 549 1034 559 1029 558 1023 c 5
 559 1020 l 5
 553 1014 549 1011 547 1010 c 4
 524 1004 497 993 463 975 c 4
 428 959 406 937 392 909 c 5
 412 912 l 5
 439 915 l 5
 485 908 508 886 511 851 c 4
 511 842 509 830 504 815 c 4
 497 788 483 765 461 748 c 4
 440 731 413 723 383 724 c 4
 324 727 293 752 290 798 c 4
 290 810 291 824 295 840 c 4
EndSplineSet
EndChar
StartChar: quotedblright
Encoding: 148 8221 117
OldEncoding: 8221
Width: 465
Flags: W
HStem: 710 23<16 34> 1029 21G<148.5 193.5 403.5 449>
Fore
511 919 m 4
 500 855 471 805 425 771 c 4
 384 739 338 719 288 710 c 5
 270 710 261 713 260 720 c 6
 260 722 l 5
 270 733 l 5
 291 741 319 754 354 773 c 4
 386 791 407 815 417 844 c 5
 400 840 l 5
 372 835 l 5
 327 840 303 860 299 895 c 4
 298 906 299 919 302 932 c 4
 308 959 322 982 341 1001 c 4
 361 1020 387 1029 420 1029 c 4
 478 1029 509 1006 514 960 c 4
 515 948 514 934 511 919 c 4
257 919 m 4
 246 855 217 805 171 771 c 4
 130 739 84 719 34 710 c 5
 15 710 5 713 4 720 c 6
 4 722 l 5
 10 729 14 733 16 733 c 4
 37 741 65 754 99 773 c 4
 131 791 152 815 163 844 c 5
 145 840 l 5
 118 835 l 5
 72 840 48 860 44 895 c 4
 43 904 45 916 48 932 c 4
 54 959 67 982 87 1001 c 4
 107 1020 133 1029 164 1029 c 4
 223 1029 254 1006 259 960 c 4
 260 948 260 934 257 919 c 4
EndSplineSet
EndChar
StartChar: bullet
Encoding: 149 8226 118
OldEncoding: 8226
Width: 370
Flags: W
Fore
132 208 m 0
 71 208 27 228 -2 268 c 1
 -15 289 -23 313 -26 343 c 0
 -28 364 -27 385 -24 405 c 0
 -14 441 0 473 19 500 c 0
 42 529 71 554 105 574 c 0
 138 593 176 602 217 602 c 0
 259 602 293 593 320 574 c 0
 345 556 361 532 369 502 c 1
 374 477 l 1
 376 455 374 431 367 405 c 0
 357 351 331 304 287 266 c 0
 246 228 194 208 132 208 c 0
EndSplineSet
EndChar
StartChar: endash
Encoding: 150 8211 119
OldEncoding: 8211
Width: 1090
Flags: W
HStem: 349 58<-29 1058>
Fore
-41 349 m 1
 -28 407 l 1
 1069 407 l 1
 1058 349 l 1
 -41 349 l 1
EndSplineSet
EndChar
StartChar: emdash
Encoding: 151 8212 120
OldEncoding: 8212
Width: 2183
Flags: W
HStem: 349 58<-96 2149>
Fore
-108 349 m 1
 -95 407 l 1
 2160 407 l 1
 2149 349 l 1
 -108 349 l 1
EndSplineSet
EndChar
StartChar: uni0E31.left
Encoding: 152 63248 121
OldEncoding: 63248
Width: 0
Flags: W
HStem: 849 124<-493 -346> 1107 67<-467 -450>
Fore
-613 1021 m 1
 -607 1066 -589 1102 -559 1130 c 1
 -530 1159 -493 1174 -450 1174 c 0
 -405 1174 -374 1160 -355 1134 c 1
 -344 1121 -337 1105 -335 1086 c 0
 -334 1072 -335 1057 -337 1039 c 1
 -348 1001 -369 968 -402 942 c 1
 -364 935 l 1
 -324 931 l 1
 -252 933 -184 954 -121 995 c 0
 -57 1034 -9 1086 22 1151 c 1
 99 1112 l 1
 74 1065 39 1022 -6 984 c 0
 -55 945 -108 912 -166 887 c 0
 -228 862 -287 849 -346 849 c 0
 -424 849 -491 863 -544 889 c 1
 -587 913 -610 945 -615 986 c 1
 -613 1021 l 1
-493 973 m 0
 -472 973 -454 979 -440 993 c 0
 -425 1005 -414 1020 -410 1039 c 1
 -408 1065 l 1
 -409 1073 -412 1081 -417 1088 c 0
 -426 1101 -442 1107 -465 1107 c 0
 -486 1107 -503 1101 -516 1088 c 0
 -533 1073 -542 1057 -544 1039 c 2
 -547 1019 l 1
 -546 1008 -542 1000 -537 993 c 0
 -529 979 -514 973 -493 973 c 0
EndSplineSet
EndChar
StartChar: uni0E4D.left
Encoding: 153 63249 122
OldEncoding: 63249
Width: 0
Flags: W
HStem: 908 66<-327 -310> 1128 64<-281 -263>
Fore
-325 908 m 4
 -368 908 -400 922 -421 952 c 4
 -432 969 -438 987 -440 1005 c 4
 -441 1020 -441 1035 -438 1051 c 4
 -431 1087 -411 1120 -376 1148 c 5
 -347 1178 -309 1192 -263 1192 c 4
 -218 1192 -187 1178 -168 1151 c 4
 -157 1135 -152 1118 -150 1100 c 4
 -148 1082 -149 1066 -153 1051 c 5
 -160 1013 -180 979 -212 949 c 5
 -245 922 -282 908 -325 908 c 4
-277 1128 m 4
 -303 1128 -323 1120 -340 1104 c 4
 -357 1090 -369 1072 -373 1051 c 5
 -375 1029 l 5
 -374 1015 -371 1004 -364 996 c 4
 -352 981 -335 974 -312 974 c 4
 -286 974 -266 981 -249 996 c 4
 -231 1013 -220 1032 -215 1051 c 5
 -213 1077 l 5
 -217 1086 l 5
 -222 1101 -229 1111 -239 1117 c 5
 -250 1124 -263 1128 -277 1128 c 4
EndSplineSet
EndChar
StartChar: uni0E47.left
Encoding: 154 63250 123
OldEncoding: 63250
Width: 0
Flags: W
HStem: 844 53<-330 -315> 956 73<-522 -508> 1002 51<-296 -284> 1104 64<-363 -317> 1110 67<-488 -459>
Fore
-330 844 m 0
 -352 844 -370 849 -386 861 c 0
 -405 874 -422 888 -439 905 c 2
 -482 943 l 1
 -496 951 -509 956 -522 956 c 0
 -556 953 -583 939 -602 912 c 1
 -624 872 -636 848 -638 839 c 1
 -667 858 -688 884 -699 918 c 1
 -709 965 l 1
 -712 985 -710 1006 -704 1029 c 0
 -700 1051 -692 1070 -680 1087 c 1
 -643 1147 -577 1177 -482 1177 c 1
 -421 1175 l 1
 -389 1170 -357 1168 -326 1168 c 0
 -282 1168 -249 1176 -226 1191 c 0
 -203 1205 -186 1231 -178 1270 c 1
 -104 1270 l 1
 -116 1210 -142 1166 -182 1140 c 0
 -219 1116 -277 1104 -353 1104 c 0
 -384 1104 -419 1106 -459 1110 c 1
 -515 1110 -554 1105 -579 1093 c 0
 -610 1081 -628 1061 -633 1034 c 0
 -635 1022 -637 1008 -635 992 c 1
 -627 960 l 1
 -623 966 -609 981 -586 1004 c 1
 -566 1021 -540 1029 -508 1029 c 0
 -481 1029 -458 1023 -438 1011 c 1
 -425 1000 -413 988 -403 976 c 1
 -375 1027 -336 1053 -284 1053 c 0
 -250 1053 -227 1043 -213 1022 c 1
 -207 1009 -203 997 -202 985 c 1
 -204 951 l 1
 -210 920 -224 895 -246 877 c 0
 -271 855 -299 844 -330 844 c 0
-317 897 m 0
 -299 897 -285 903 -275 914 c 1
 -266 922 -259 935 -257 951 c 1
 -256 971 l 1
 -261 987 l 1
 -269 997 -280 1002 -293 1002 c 0
 -311 1002 -325 997 -336 987 c 0
 -350 976 -357 964 -361 951 c 1
 -361 934 l 1
 -360 927 -358 921 -352 914 c 1
 -347 903 -335 897 -317 897 c 0
EndSplineSet
EndChar
StartChar: uni0E48.left
Encoding: 155 63251 124
OldEncoding: 63251
Width: 0
Flags: W
DStem: -187 1580 -99 1580 -247 1309 -159 1309
Fore
-247 1309 m 5
 -187 1580 l 5
 -99 1580 l 5
 -159 1309 l 5
 -247 1309 l 5
EndSplineSet
EndChar
StartChar: uni0E49.left
Encoding: 156 63252 125
OldEncoding: 63252
Width: 0
Flags: W
HStem: 1570 60<-382 -364>
Fore
-266 1508 m 5
 -274 1470 -287 1437 -307 1411 c 5
 -326 1385 -340 1369 -351 1363 c 5
 -298 1367 l 6
 -277 1370 -259 1374 -246 1378 c 4
 -229 1384 -208 1396 -183 1413 c 4
 -148 1438 -123 1468 -108 1501 c 4
 -95 1528 -82 1568 -67 1621 c 5
 16 1621 l 5
 -14 1478 -85 1382 -194 1332 c 4
 -250 1307 -311 1295 -376 1295 c 5
 -451 1299 l 5
 -494 1309 l 5
 -483 1314 -467 1323 -448 1337 c 4
 -425 1354 -409 1376 -397 1404 c 5
 -408 1401 l 5
 -428 1399 l 5
 -458 1404 l 5
 -493 1416 -511 1438 -515 1471 c 4
 -516 1483 -515 1498 -513 1515 c 5
 -506 1540 -496 1559 -484 1573 c 4
 -471 1590 -454 1605 -433 1617 c 5
 -412 1626 -389 1630 -364 1630 c 4
 -326 1630 -299 1619 -283 1596 c 4
 -271 1580 -265 1564 -264 1548 c 4
 -262 1534 -263 1521 -266 1508 c 5
-380 1570 m 4
 -397 1570 -411 1565 -424 1555 c 5
 -436 1540 -443 1527 -447 1515 c 5
 -447 1494 l 5
 -441 1475 l 5
 -432 1463 -419 1457 -402 1457 c 4
 -387 1457 -372 1463 -355 1475 c 5
 -342 1488 -335 1501 -334 1515 c 5
 -332 1531 l 5
 -333 1540 -336 1548 -340 1555 c 4
 -347 1565 -361 1570 -380 1570 c 4
EndSplineSet
EndChar
StartChar: uni0E4A.left
Encoding: 157 63253 126
OldEncoding: 63253
Width: 0
Flags: W
HStem: 1288 42<-476 -461> 1432 42<-447 -433> 1531 62<-424 -399 -266 -237>
Fore
-476 1288 m 4
 -512 1290 -536 1308 -551 1341 c 4
 -559 1356 -563 1373 -565 1392 c 4
 -568 1414 -567 1434 -563 1452 c 4
 -550 1496 -532 1529 -507 1551 c 5
 -479 1579 -447 1593 -409 1593 c 4
 -392 1593 -378 1591 -369 1587 c 4
 -355 1578 -344 1571 -338 1565 c 6
 -328 1554 l 5
 -324 1559 -313 1568 -296 1580 c 5
 -279 1589 -259 1593 -237 1593 c 4
 -188 1593 -162 1570 -157 1524 c 4
 -155 1506 -157 1482 -163 1452 c 4
 -171 1417 -186 1384 -210 1353 c 5
 -164 1379 l 6
 -145 1390 -129 1403 -117 1419 c 5
 -91 1446 -75 1477 -70 1512 c 5
 -66 1575 l 5
 9 1598 l 5
 10 1587 9 1568 4 1540 c 5
 -11 1477 -38 1424 -76 1381 c 4
 -127 1324 -210 1295 -327 1295 c 5
 -318 1303 -307 1314 -294 1330 c 5
 -280 1342 -268 1357 -257 1376 c 5
 -242 1396 -232 1417 -228 1438 c 4
 -223 1463 -222 1483 -223 1496 c 6
 -224 1505 l 5
 -228 1522 -242 1531 -266 1531 c 4
 -282 1531 -296 1525 -311 1514 c 4
 -320 1507 -330 1498 -339 1487 c 5
 -342 1494 -349 1503 -359 1514 c 5
 -366 1525 -384 1531 -412 1531 c 4
 -429 1531 -445 1525 -461 1512 c 4
 -473 1501 -482 1483 -488 1459 c 5
 -465 1468 l 6
 -455 1472 -444 1474 -435 1474 c 4
 -406 1474 -384 1465 -370 1448 c 4
 -365 1441 -361 1431 -360 1417 c 4
 -359 1406 -360 1392 -363 1376 c 4
 -367 1357 -380 1336 -403 1315 c 5
 -426 1297 -451 1288 -476 1288 c 4
-446 1432 m 4
 -461 1432 -473 1426 -484 1415 c 4
 -495 1404 -501 1393 -502 1381 c 5
 -503 1366 l 5
 -498 1346 l 5
 -493 1335 -482 1330 -467 1330 c 4
 -449 1330 -434 1335 -424 1346 c 5
 -415 1352 -408 1364 -403 1381 c 5
 -402 1399 l 5
 -409 1417 l 5
 -417 1427 -429 1432 -446 1432 c 4
EndSplineSet
EndChar
StartChar: uni0E4B.left
Encoding: 158 63254 127
OldEncoding: 63254
Width: 0
Flags: W
HStem: 1422 79<-350 -222 -118 12>
DStem: -222 1422 -133 1422 -248 1309 -158 1309 -180 1617 -92 1617 -206 1501 -118 1501
Fore
-222 1422 m 5
 -365 1422 l 5
 -349 1501 l 5
 -206 1501 l 5
 -180 1617 l 5
 -92 1617 l 5
 -118 1501 l 5
 28 1501 l 5
 12 1422 l 5
 -133 1422 l 5
 -158 1309 l 5
 -248 1309 l 5
 -222 1422 l 5
EndSplineSet
EndChar
StartChar: uni0E4C.left
Encoding: 159 63255 128
OldEncoding: 63255
Width: 0
Flags: W
HStem: 1237 62<-381 -365>
Fore
-420 1403 m 5
 -414 1415 -405 1425 -395 1434 c 4
 -382 1443 -360 1449 -331 1452 c 5
 -297 1449 -273 1439 -258 1420 c 4
 -251 1409 -247 1396 -245 1383 c 4
 -244 1369 -246 1357 -248 1345 c 4
 -255 1316 -270 1292 -292 1272 c 4
 -318 1249 -348 1237 -381 1237 c 4
 -427 1235 -459 1248 -480 1277 c 5
 -490 1288 -496 1304 -498 1325 c 4
 -500 1342 -499 1359 -495 1378 c 4
 -480 1452 -439 1503 -372 1531 c 4
 -342 1544 -300 1551 -244 1553 c 4
 -196 1556 -156 1562 -126 1573 c 5
 -101 1579 -84 1600 -76 1637 c 5
 -6 1637 l 5
 -14 1603 -30 1576 -51 1556 c 5
 -74 1535 -99 1522 -123 1515 c 5
 -153 1503 -194 1496 -246 1494 c 4
 -292 1491 -330 1485 -359 1475 c 4
 -384 1466 -405 1442 -420 1403 c 5
-345 1396 m 4
 -377 1396 -396 1380 -402 1348 c 5
 -402 1334 l 5
 -398 1315 l 5
 -392 1304 -382 1299 -367 1299 c 4
 -351 1299 -337 1304 -327 1313 c 5
 -316 1325 -307 1336 -302 1348 c 5
 -301 1364 l 5
 -302 1370 -305 1377 -308 1383 c 4
 -315 1392 -328 1396 -345 1396 c 4
EndSplineSet
EndChar
StartChar: uni0E01
Encoding: 161 3585 130
OldEncoding: 3585
Width: 794
Flags: W
HStem: -1 21G<-3 94 490 587> 716 84<428 450>
DStem: 84 390 183 394 -3 -1 94 -1 611 545 708 545 490 -1 587 -1
Fore
52 617 m 5
 83 650 133 689 200 732 c 4
 271 777 353 800 448 800 c 4
 504 800 555 791 601 772 c 4
 646 755 678 726 698 686 c 4
 705 672 710 652 713 628 c 4
 716 603 713 576 708 545 c 5
 587 -1 l 5
 490 -1 l 5
 611 545 l 5
 614 562 614 578 613 593 c 4
 611 610 607 624 601 635 c 4
 586 662 564 682 535 695 c 4
 505 709 472 716 432 716 c 4
 349 716 271 691 201 640 c 5
 209 638 230 630 265 615 c 5
 293 600 318 580 341 555 c 5
 319 549 291 535 255 513 c 4
 218 490 195 450 183 394 c 6
 94 -1 l 5
 -3 -1 l 5
 84 390 l 5
 95 438 111 474 133 496 c 4
 155 520 181 538 210 549 c 5
 202 558 185 570 158 587 c 4
 128 605 92 615 52 617 c 5
EndSplineSet
EndChar
StartChar: uni0E02
Encoding: 162 3586 131
OldEncoding: 3586
Width: 797
Flags: W
HStem: -1 84<120 455> 462 73<136 173> 726 75<311 329.804> 765 20G<665 762>
DStem: 279 359 374 346 218 83 315 83 665 785 762 785 526 149 623 149
Fore
311 801 m 0
 359 801 399 791 433 772 c 1
 465 751 487 726 496 695 c 0
 502 681 506 668 507 654 c 0
 509 634 508 615 504 598 c 0
 498 565 490 542 481 529 c 0
 472 515 458 497 438 476 c 1
 398 423 l 1
 390 409 382 383 374 346 c 2
 315 83 l 1
 441 83 l 2
 471 83 491 87 502 96 c 0
 510 101 518 119 526 149 c 1
 665 785 l 1
 762 785 l 1
 623 149 l 1
 608 84 587 43 562 27 c 1
 536 8 489 -1 421 -1 c 2
 101 -1 l 1
 121 83 l 1
 218 83 l 1
 279 359 l 2
 287 392 294 414 302 427 c 0
 313 445 326 462 341 478 c 1
 359 495 373 512 383 529 c 0
 393 542 403 563 412 591 c 1
 416 608 417 625 416 640 c 0
 414 661 408 677 398 688 c 0
 378 713 349 726 313 726 c 1
 276 721 l 1
 288 719 303 708 319 688 c 0
 328 678 333 666 334 652 c 0
 337 631 335 611 329 591 c 1
 320 550 298 519 263 496 c 0
 228 474 186 462 136 462 c 1
 77 469 44 501 38 557 c 0
 36 580 38 606 45 635 c 1
 66 686 103 727 155 756 c 0
 209 785 262 801 311 801 c 0
205 679 m 0
 182 679 163 672 149 659 c 0
 132 642 121 625 117 608 c 1
 116 587 l 1
 117 577 121 568 126 559 c 0
 134 544 150 535 173 535 c 0
 198 535 218 544 232 559 c 0
 249 574 258 590 260 608 c 1
 262 635 l 1
 255 659 l 1
 246 672 230 679 205 679 c 0
EndSplineSet
EndChar
StartChar: uni0E03
Encoding: 163 3587 132
OldEncoding: 3587
Width: 851
Flags: W
HStem: -1 84<173 513> 350 72<111 130> 566 67<154 176> 765 20G<718 816>
DStem: 364 506 459 501 272 83 369 83 718 785 816 785 580 149 677 149
Fore
565 652 m 1
 560 633 554 620 548 613 c 2
 516 582 l 1
 504 574 492 564 481 549 c 0
 471 538 464 522 459 501 c 2
 369 83 l 1
 494 83 l 2
 524 83 545 87 555 96 c 0
 563 101 572 119 580 149 c 1
 718 785 l 1
 816 785 l 1
 677 149 l 1
 661 84 641 43 615 27 c 1
 591 8 544 -1 475 -1 c 2
 156 -1 l 1
 174 83 l 1
 272 83 l 1
 364 506 l 2
 371 536 378 557 388 571 c 0
 397 583 407 594 418 606 c 1
 463 633 l 2
 475 640 482 648 485 659 c 1
 484 670 l 2
 483 678 478 689 469 703 c 1
 454 718 442 726 433 728 c 1
 321 663 l 1
 225 728 l 1
 192 721 164 704 141 677 c 0
 118 653 105 630 99 608 c 1
 102 611 110 616 124 624 c 0
 134 630 151 633 176 633 c 0
 218 631 249 619 271 598 c 0
 285 583 294 565 296 545 c 0
 298 527 295 510 291 492 c 0
 280 447 257 412 221 388 c 0
 185 363 148 350 111 350 c 0
 68 350 33 368 7 403 c 1
 -5 425 -12 446 -14 469 c 0
 -17 492 -14 518 -8 545 c 0
 2 585 14 618 29 644 c 1
 50 689 85 727 134 758 c 0
 181 786 220 800 250 800 c 1
 340 737 l 1
 442 800 l 1
 480 787 512 768 536 744 c 0
 555 724 566 704 568 684 c 1
 565 652 l 1
162 566 m 0
 137 566 117 559 104 545 c 1
 86 531 76 514 74 494 c 2
 71 474 l 1
 72 464 75 454 81 445 c 0
 90 430 106 422 130 422 c 0
 153 422 171 429 185 443 c 1
 203 465 214 482 217 494 c 1
 219 522 l 1
 218 530 215 538 210 545 c 0
 199 559 184 566 162 566 c 0
EndSplineSet
EndChar
StartChar: uni0E04
Encoding: 164 3588 133
OldEncoding: 3588
Width: 799
Flags: W
HStem: -1 21G<60 155 490 590> 327 69<315 333> 540 72<360 378> 727 79<408 438>
DStem: 91 140 234 354 60 -1 155 -1 607 524 708 533 490 -1 590 -1
Fore
128 519 m 0
 124 502 123 482 126 460 c 1
 131 425 l 1
 142 367 l 1
 145 341 l 1
 159 415 l 1
 172 470 197 517 235 557 c 1
 274 594 321 612 378 612 c 0
 421 612 452 598 472 570 c 1
 482 553 487 536 488 519 c 0
 490 500 489 483 485 469 c 1
 477 428 458 395 429 369 c 0
 397 341 359 327 315 327 c 0
 274 327 247 336 234 354 c 1
 155 -1 l 1
 60 -1 l 1
 91 140 l 1
 98 167 101 191 99 213 c 1
 94 232 l 2
 91 246 80 278 60 330 c 0
 44 370 35 403 29 429 c 1
 28 440 l 2
 26 461 29 489 35 524 c 0
 49 587 77 637 116 677 c 1
 158 721 207 753 263 774 c 0
 319 796 377 806 436 806 c 0
 525 806 598 782 654 734 c 0
 688 705 707 667 712 621 c 0
 715 593 714 564 708 533 c 1
 590 -1 l 1
 490 -1 l 1
 607 524 l 1
 612 549 613 570 611 588 c 0
 608 622 594 651 570 674 c 0
 532 710 480 727 412 727 c 0
 348 727 287 710 232 674 c 0
 176 638 141 587 128 519 c 0
362 540 m 0
 338 540 319 533 304 519 c 0
 290 507 279 490 275 469 c 1
 273 445 l 1
 274 435 277 427 282 420 c 1
 290 404 306 396 331 396 c 0
 354 396 374 404 389 420 c 0
 405 435 415 451 416 469 c 1
 418 493 l 1
 410 519 l 1
 403 533 386 540 362 540 c 0
EndSplineSet
EndChar
StartChar: uni0E05
Encoding: 165 3589 134
OldEncoding: 3589
Width: 799
Flags: W
HStem: -1 21G<62 157 494 592> 328 69<317 335> 540 72<362 380>
DStem: 93 140 236 355 62 -1 157 -1 310 719 318 800 378 668 434 710 584 800 562 719 434 710 416 635 611 524 710 533 494 -1 592 -1
Fore
35 524 m 0
 47 578 81 630 135 681 c 0
 189 733 250 772 318 800 c 1
 434 710 l 1
 584 800 l 1
 664 757 708 698 715 624 c 0
 719 594 717 564 710 533 c 1
 592 -1 l 1
 494 -1 l 1
 611 524 l 2
 617 553 620 582 620 612 c 1
 618 628 l 1
 618 643 616 655 610 666 c 1
 607 675 600 684 589 695 c 0
 574 707 565 715 562 719 c 1
 416 635 l 1
 416 635 l 1
 416 636 403 647 378 668 c 1
 310 719 l 1
 255 694 215 666 189 635 c 0
 160 599 140 561 130 520 c 0
 126 503 125 483 128 460 c 1
 133 425 l 1
 144 367 l 1
 147 341 l 1
 161 416 l 1
 174 473 199 520 237 557 c 1
 279 594 326 612 380 612 c 0
 423 612 454 599 474 571 c 0
 486 553 493 536 494 520 c 0
 496 502 494 485 489 469 c 1
 482 430 462 397 431 370 c 0
 399 342 361 328 317 328 c 0
 276 328 249 337 236 355 c 1
 157 -1 l 1
 62 -1 l 1
 93 140 l 1
 100 167 103 192 101 214 c 1
 96 233 l 2
 93 246 82 279 62 330 c 0
 46 370 37 403 31 429 c 1
 30 441 l 2
 27 466 29 493 35 524 c 0
364 540 m 0
 340 540 321 533 306 520 c 0
 291 507 281 490 277 469 c 1
 274 445 l 1
 275 435 279 427 284 420 c 1
 291 405 308 397 333 397 c 0
 356 397 375 405 390 420 c 1
 405 434 416 450 421 469 c 1
 422 494 l 1
 421 504 418 513 412 520 c 0
 404 533 388 540 364 540 c 0
EndSplineSet
EndChar
StartChar: uni0E06
Encoding: 166 3590 135
OldEncoding: 3590
Width: 996
Flags: W
HStem: -14 80<227 245> 0 21G<694 791> 351 72<125 142> 567 67<169 187> 766 20G<865 962>
DStem: 324 271 421 266 287 106 387 119 374 507 469 501 338 342 435 342 865 786 962 786 730 164 791 0
Fore
338 342 m 1
 374 507 l 1
 384 541 392 562 398 571 c 0
 404 583 416 595 433 609 c 1
 474 634 l 2
 486 641 492 649 495 660 c 1
 495 671 l 1
 495 679 490 690 481 704 c 1
 468 718 455 726 443 729 c 1
 332 664 l 1
 237 729 l 1
 207 723 178 706 151 678 c 0
 126 650 111 627 107 609 c 1
 135 625 l 2
 145 631 162 634 187 634 c 0
 228 632 259 619 282 596 c 0
 296 584 303 567 306 545 c 0
 307 534 305 516 300 492 c 0
 290 448 267 413 231 388 c 0
 195 364 159 351 125 351 c 0
 77 351 42 369 20 404 c 0
 8 425 1 447 -1 470 c 0
 -4 491 -1 516 5 545 c 0
 10 576 22 610 41 645 c 0
 65 691 99 729 144 759 c 1
 191 787 230 801 261 801 c 1
 347 738 l 1
 455 801 l 1
 491 788 521 769 546 744 c 0
 565 726 576 706 578 684 c 0
 579 675 578 664 574 653 c 0
 571 635 565 622 555 613 c 0
 547 604 537 594 524 583 c 1
 508 571 497 561 490 550 c 1
 481 539 474 523 469 501 c 2
 435 342 l 1
 487 338 533 325 572 305 c 1
 610 288 644 266 673 238 c 0
 702 210 721 185 730 164 c 1
 865 786 l 1
 962 786 l 1
 791 0 l 1
 694 0 l 1
 694 35 l 1
 692 57 685 80 672 104 c 0
 647 146 614 181 573 210 c 0
 529 239 478 258 421 266 c 1
 387 119 l 1
 376 77 357 44 333 22 c 0
 306 -2 271 -14 227 -14 c 0
 182 -14 151 3 130 37 c 0
 120 54 114 72 113 90 c 0
 111 108 112 130 118 155 c 0
 130 207 155 251 192 284 c 0
 233 321 282 340 338 342 c 1
206 88 m 0
 214 74 226 66 243 66 c 0
 265 66 280 80 287 106 c 1
 324 271 l 1
 294 271 267 260 241 238 c 1
 220 213 205 186 200 159 c 0
 196 145 194 131 196 117 c 0
 197 104 200 95 206 88 c 0
171 567 m 0
 147 567 129 560 116 545 c 1
 99 533 89 516 84 495 c 1
 84 472 l 1
 85 462 88 453 93 444 c 0
 104 430 119 423 140 423 c 0
 163 423 183 430 201 444 c 1
 214 457 222 474 227 495 c 1
 229 523 l 1
 222 545 l 1
 211 560 194 567 171 567 c 0
EndSplineSet
EndChar
StartChar: uni0E07
Encoding: 167 3591 136
OldEncoding: 3591
Width: 625
Flags: W
HStem: -16 87<293 306> 512 71<387 408> 724 72<431 450>
DStem: 16 493 103 535 178 53 269 97 435 521 562 653 346 109 441 102
Fore
346 109 m 1
 435 521 l 1
 426 515 410 512 387 512 c 0
 345 512 314 527 295 556 c 0
 284 572 277 590 275 611 c 0
 273 624 275 639 277 655 c 0
 287 696 308 730 338 757 c 0
 370 784 407 796 450 796 c 0
 479 796 504 790 524 778 c 0
 543 765 554 749 562 727 c 1
 566 706 l 1
 568 687 567 669 562 653 c 1
 441 102 l 1
 434 66 416 36 387 14 c 0
 360 -6 328 -16 293 -16 c 0
 266 -16 244 -10 226 0 c 0
 207 11 191 28 178 53 c 1
 16 493 l 1
 103 535 l 1
 269 97 l 1
 274 80 285 71 304 71 c 0
 314 71 322 75 330 81 c 0
 339 90 344 99 346 109 c 1
435 724 m 0
 415 724 396 718 378 704 c 1
 361 684 351 668 347 655 c 1
 348 632 l 1
 349 622 351 614 357 607 c 0
 367 591 383 583 406 583 c 0
 431 583 451 591 465 607 c 0
 482 622 491 638 493 655 c 2
 495 676 l 1
 494 685 491 694 486 704 c 1
 474 718 457 724 435 724 c 0
EndSplineSet
EndChar
StartChar: uni0E08
Encoding: 168 3592 137
OldEncoding: 3592
Width: 741
Flags: W
HStem: -1 21G<437 534> 286 69<259 275> 496 77<305 321> 726 75<373 406>
DStem: 556 540 653 540 507 319 534 -1
Fore
321 573 m 0
 368 573 404 557 430 524 c 0
 456 491 475 450 487 401 c 2
 507 319 l 1
 556 540 l 1
 560 561 561 582 559 603 c 0
 556 632 545 656 526 675 c 0
 490 709 443 726 382 726 c 0
 277 728 186 685 106 598 c 1
 54 646 l 1
 88 688 135 724 196 754 c 0
 257 785 325 801 399 801 c 0
 458 801 509 790 552 770 c 0
 596 748 626 719 643 681 c 0
 651 667 656 649 658 626 c 0
 661 600 659 571 653 540 c 1
 534 -1 l 1
 437 -1 l 1
 445 37 451 84 452 142 c 1
 446 222 l 1
 438 279 l 1
 429 321 418 352 404 372 c 1
 396 358 381 341 358 321 c 0
 336 300 304 288 259 286 c 0
 220 286 189 300 169 328 c 0
 156 343 149 361 147 383 c 0
 145 401 146 418 150 434 c 0
 161 477 181 510 212 533 c 0
 244 560 281 573 321 573 c 0
307 496 m 0
 282 496 263 489 248 476 c 0
 234 462 224 446 219 427 c 1
 219 406 l 1
 221 394 224 385 228 379 c 1
 237 363 253 355 275 355 c 0
 296 355 314 362 330 376 c 0
 345 390 354 407 360 427 c 1
 361 452 l 1
 360 462 358 470 352 476 c 1
 344 489 328 496 307 496 c 0
EndSplineSet
EndChar
StartChar: uni0E09
Encoding: 169 3593 138
OldEncoding: 3593
Width: 856
Flags: W
HStem: -14 76<594 630> 0 21G<100 198> 266 69<114 135> 479 71<158 177> 724 77<447 481>
DStem: 160 275 288 404 100 0 235 169 562 261 659 261 523 79 619 83 624 541 721 541 579 338 676 338
Fore
288 404 m 2
 235 169 l 1
 277 214 332 252 399 284 c 1
 465 313 525 331 579 338 c 1
 624 541 l 2
 631 565 632 587 630 607 c 0
 627 634 617 657 599 675 c 0
 568 708 520 724 457 724 c 0
 405 724 355 711 306 684 c 1
 262 663 222 632 186 592 c 1
 135 640 l 1
 178 688 227 726 284 755 c 0
 345 785 410 801 475 801 c 0
 566 801 634 778 681 731 c 0
 709 704 726 670 730 629 c 0
 733 600 730 571 721 541 c 1
 676 338 l 1
 723 329 758 309 778 278 c 1
 785 263 790 245 792 225 c 0
 794 206 793 183 788 155 c 0
 778 106 753 66 715 35 c 1
 679 2 639 -14 594 -14 c 0
 566 -14 546 -6 532 11 c 0
 525 19 521 30 519 44 c 0
 518 55 519 67 523 79 c 1
 562 261 l 1
 494 248 438 229 392 203 c 1
 345 179 302 146 261 104 c 0
 229 69 207 34 198 0 c 1
 100 0 l 1
 160 275 l 1
 152 269 137 266 114 266 c 0
 71 266 38 281 20 309 c 0
 9 326 2 343 0 360 c 0
 -2 377 -0 393 2 409 c 0
 9 447 28 481 62 509 c 0
 93 536 131 550 177 550 c 0
 221 550 253 536 272 509 c 0
 282 492 288 475 290 458 c 0
 292 441 292 423 288 404 c 2
162 479 m 0
 140 479 120 472 103 458 c 1
 88 443 78 426 74 406 c 1
 71 384 l 1
 72 374 76 365 83 356 c 0
 90 342 107 335 131 335 c 0
 152 335 171 342 189 356 c 1
 203 373 212 390 218 406 c 1
 219 435 l 1
 218 443 216 451 211 458 c 0
 201 472 186 479 162 479 c 0
714 155 m 1
 716 172 717 187 716 201 c 1
 710 229 l 1
 702 248 684 258 659 261 c 1
 619 83 l 1
 619 71 l 1
 619 65 623 62 630 62 c 0
 648 62 665 71 681 90 c 0
 697 109 707 130 714 155 c 1
EndSplineSet
EndChar
StartChar: uni0E0A
Encoding: 170 3594 139
OldEncoding: 3594
Width: 793
Flags: W
HStem: -4 84<107 441> 460 73<124 160> 588 71<491 504.578> 723 75<298 316.326>
DStem: 266 357 361 343 206 80 303 80 578 450 681 469 513 147 610 147
Fore
605 628 m 1
 614 628 626 625 641 619 c 1
 656 611 668 595 679 573 c 1
 687 542 l 1
 689 523 687 498 681 469 c 1
 610 147 l 1
 595 83 575 43 551 25 c 0
 523 6 475 -4 408 -4 c 2
 88 -4 l 1
 108 80 l 1
 206 80 l 1
 266 357 l 2
 274 389 281 412 288 425 c 0
 296 438 309 455 327 476 c 1
 346 493 360 510 371 526 c 0
 382 544 392 564 399 588 c 0
 403 606 405 622 403 637 c 0
 401 658 395 674 385 686 c 0
 363 711 335 723 299 723 c 1
 263 718 l 1
 276 716 290 705 305 686 c 0
 314 676 319 664 321 650 c 0
 323 628 321 608 315 588 c 0
 307 549 285 518 250 494 c 0
 215 471 174 460 124 460 c 1
 64 466 32 498 26 555 c 0
 23 577 25 603 30 633 c 1
 53 685 90 725 141 753 c 0
 196 783 248 798 298 798 c 0
 332 798 365 791 397 778 c 0
 423 768 445 751 464 727 c 0
 480 707 488 684 491 659 c 1
 516 659 554 671 607 695 c 0
 663 718 720 767 782 842 c 1
 840 798 l 1
 803 743 762 702 717 677 c 1
 661 650 623 633 605 628 c 1
487 588 m 1
 484 565 476 544 464 524 c 0
 449 501 436 484 425 473 c 1
 384 418 l 1
 373 396 366 371 361 343 c 1
 303 80 l 1
 427 80 l 2
 456 80 477 85 488 94 c 0
 497 100 506 117 513 147 c 2
 578 450 l 1
 585 474 588 496 586 515 c 0
 581 564 547 588 487 588 c 1
193 677 m 0
 169 677 150 670 136 656 c 0
 120 641 110 624 106 605 c 1
 104 584 l 1
 105 575 108 566 113 557 c 0
 121 541 136 533 160 533 c 0
 185 533 204 541 219 557 c 0
 235 571 245 587 249 605 c 1
 251 633 l 1
 251 642 247 650 242 656 c 0
 234 670 218 677 193 677 c 0
EndSplineSet
EndChar
StartChar: uni0E0B
Encoding: 171 3595 140
OldEncoding: 3595
Width: 846
Flags: W
HStem: -5 84<159 483> 347 72<96 114> 562 67<138 161>
DStem: 348 502 444 497 257 79 354 79 635 467 732 467 564 145 661 145
Fore
554 671 m 1
 590 680 632 698 679 724 c 0
 733 752 786 798 838 863 c 1
 899 817 l 1
 872 783 841 751 805 722 c 1
 767 696 735 678 709 666 c 0
 673 650 654 641 651 640 c 1
 670 638 692 626 718 604 c 0
 730 593 736 576 739 553 c 0
 742 534 740 506 732 467 c 1
 661 145 l 1
 646 82 627 41 603 23 c 0
 575 4 527 -5 460 -5 c 2
 140 -5 l 1
 160 79 l 1
 257 79 l 1
 348 502 l 1
 356 537 368 563 385 580 c 0
 401 598 422 615 448 629 c 0
 459 636 466 644 469 655 c 1
 468 666 l 2
 467 673 462 684 453 699 c 0
 441 713 429 722 418 724 c 1
 306 660 l 1
 209 724 l 1
 177 717 148 700 124 673 c 0
 103 649 88 626 83 604 c 1
 109 620 l 2
 118 626 136 629 161 629 c 0
 202 627 233 615 256 594 c 0
 269 580 277 562 279 541 c 0
 281 524 280 507 276 488 c 0
 264 444 241 409 205 384 c 0
 169 359 133 347 96 347 c 0
 51 347 16 364 -9 400 c 1
 -20 421 -28 443 -30 465 c 0
 -32 489 -30 514 -24 541 c 0
 -18 569 -5 603 15 640 c 0
 41 688 75 726 118 754 c 1
 165 782 204 796 236 796 c 1
 324 733 l 1
 426 796 l 1
 462 788 487 776 503 759 c 0
 523 739 536 719 542 701 c 1
 554 671 l 1
 554 671 l 1
533 604 m 1
 500 578 l 1
 481 567 469 557 463 548 c 0
 453 526 447 509 444 497 c 2
 354 79 l 1
 478 79 l 2
 511 79 531 83 542 92 c 0
 549 97 556 114 564 145 c 1
 635 467 l 1
 639 492 641 512 640 527 c 0
 634 579 599 604 533 604 c 1
146 562 m 0
 124 562 105 555 87 541 c 0
 72 527 62 510 58 490 c 1
 56 470 l 1
 57 460 61 450 66 441 c 0
 75 426 92 419 114 419 c 0
 136 419 155 426 172 439 c 1
 186 456 196 473 201 490 c 1
 204 518 l 1
 203 527 200 534 194 541 c 0
 183 555 167 562 146 562 c 0
EndSplineSet
EndChar
StartChar: uni0E0C
Encoding: 172 3596 141
OldEncoding: 3596
Width: 1032
Flags: W
HStem: -14 71<121 136> -14 88<415 421> 0 21G<731 828> 199 72<161 185> 729 72<381 421> 766 20G<902 1000>
DStem: 70 409 166 414 6 130 135 261 467 222 561 210 439 92 535 88 545 578 642 578 481 289 578 287 902 786 1000 786 763 141 828 0
Fore
166 414 m 1
 135 261 l 1
 141 268 158 271 185 271 c 0
 226 271 256 257 277 229 c 1
 286 210 292 194 293 180 c 0
 295 162 294 145 289 130 c 0
 282 94 263 61 230 30 c 0
 200 1 163 -14 121 -14 c 0
 79 -14 48 -1 24 26 c 0
 13 41 5 58 3 79 c 0
 1 95 2 112 6 130 c 2
 70 409 l 1
 89 500 135 556 202 578 c 1
 191 589 173 602 148 618 c 0
 127 630 91 643 42 657 c 1
 64 683 108 713 171 748 c 0
 235 783 312 801 402 801 c 0
 556 801 638 754 648 660 c 0
 650 636 648 608 642 578 c 1
 578 287 l 1
 615 280 650 264 685 238 c 0
 720 213 746 180 763 141 c 1
 902 786 l 1
 1000 786 l 1
 828 0 l 1
 731 0 l 1
 726 24 720 48 710 71 c 0
 700 94 683 120 659 148 c 0
 638 172 605 193 561 210 c 1
 535 88 l 1
 521 20 482 -14 419 -14 c 0
 380 -14 354 2 339 32 c 1
 331 44 326 59 324 79 c 0
 322 97 324 118 330 143 c 0
 337 183 355 217 383 245 c 0
 410 272 442 287 481 289 c 1
 545 578 l 2
 549 596 550 615 548 634 c 0
 546 656 537 675 521 691 c 1
 495 716 453 729 399 729 c 0
 329 729 257 709 183 671 c 1
 193 668 216 657 252 638 c 0
 278 624 305 602 331 574 c 1
 318 574 303 571 286 565 c 0
 267 559 245 544 217 521 c 1
 190 490 174 454 166 414 c 1
439 92 m 1
 467 222 l 1
 429 214 405 185 395 134 c 1
 394 106 l 1
 395 98 395 94 397 92 c 0
 403 80 409 74 417 74 c 0
 425 74 433 80 439 92 c 1
134 57 m 0
 158 57 178 64 193 79 c 0
 208 93 217 110 221 130 c 1
 221 150 l 1
 220 162 217 171 212 178 c 0
 204 192 188 199 166 199 c 0
 144 199 125 192 108 178 c 1
 94 164 83 148 78 130 c 1
 76 106 l 1
 77 95 80 86 86 79 c 0
 97 64 113 57 134 57 c 0
EndSplineSet
EndChar
StartChar: uni0E0D
Encoding: 173 3597 142
OldEncoding: 3597
Width: 1025
Flags: W
HStem: -372 69<505 520> -129 74<469 492> 8 71<174 193> 22 84<392 744> 220 72<214 237> 750 72<438 471>
DStem: 121 431 219 436 59 151 184 283 598 600 695 600 488 106 585 106 955 808 1053 808 817 172 914 172
Fore
861 -60 m 1
 849 -127 823 -185 784 -233 c 1
 750 -281 707 -316 660 -337 c 1
 613 -360 565 -372 516 -372 c 0
 450 -372 398 -355 361 -321 c 1
 334 -300 318 -273 314 -242 c 0
 313 -227 313 -212 317 -197 c 0
 325 -163 344 -129 372 -96 c 1
 403 -67 443 -53 492 -55 c 0
 532 -55 560 -69 578 -96 c 0
 587 -110 591 -126 593 -145 c 0
 595 -160 594 -176 590 -191 c 0
 587 -209 577 -231 561 -256 c 1
 548 -272 529 -288 505 -303 c 1
 555 -303 606 -287 658 -256 c 0
 707 -227 743 -162 766 -60 c 1
 861 -60 l 1
59 151 m 1
 121 431 l 1
 141 521 186 577 255 600 c 1
 245 609 226 622 198 640 c 0
 177 652 143 666 95 679 c 1
 119 705 162 735 224 770 c 0
 289 805 368 822 457 822 c 0
 610 822 691 776 701 681 c 0
 704 657 702 629 695 600 c 2
 585 106 l 1
 729 106 l 2
 761 106 781 110 791 119 c 1
 802 125 810 142 817 172 c 2
 955 808 l 1
 1053 808 l 1
 914 172 l 1
 906 133 893 100 878 75 c 0
 863 53 845 39 823 33 c 0
 794 25 758 22 712 22 c 2
 374 22 l 1
 393 106 l 1
 488 106 l 1
 598 600 l 2
 603 620 604 639 602 655 c 0
 600 677 591 697 574 713 c 0
 547 738 508 750 455 750 c 0
 384 750 311 731 236 693 c 1
 249 689 272 678 305 660 c 0
 331 646 357 624 383 596 c 1
 370 596 356 593 338 587 c 0
 316 580 294 565 270 542 c 1
 246 515 230 479 219 436 c 2
 184 283 l 1
 194 289 211 292 237 292 c 0
 282 292 313 279 330 251 c 0
 339 232 344 216 346 202 c 0
 348 184 346 167 342 151 c 0
 335 114 316 81 286 52 c 0
 255 23 218 8 174 8 c 0
 133 8 102 21 79 48 c 0
 65 64 57 82 55 101 c 0
 54 117 55 134 59 151 c 1
440 -254 m 0
 461 -254 478 -248 491 -235 c 1
 505 -225 514 -210 517 -191 c 1
 517 -171 l 1
 513 -148 l 1
 504 -135 490 -129 469 -129 c 0
 450 -129 433 -135 420 -148 c 1
 405 -159 395 -174 389 -191 c 1
 387 -210 l 1
 388 -221 392 -229 399 -235 c 1
 408 -248 422 -254 440 -254 c 0
191 79 m 0
 213 79 232 86 247 101 c 0
 262 113 270 130 275 151 c 1
 276 172 l 1
 275 182 272 191 268 200 c 1
 257 214 241 220 220 220 c 0
 197 220 178 214 163 200 c 0
 147 186 137 170 132 151 c 1
 130 128 l 1
 131 116 135 107 141 101 c 1
 150 86 166 79 191 79 c 0
EndSplineSet
EndChar
StartChar: uni0E0E
Encoding: 174 3598 143
OldEncoding: 3598
Width: 881
Flags: W
HStem: -378 90<124 160> -142 85<198 226> 8 71<99 120> 221 72<145 161> 739 84<578 600>
DStem: 235 413 334 417 206 283 274 147 762 568 857 568 584 -245 650 -374
Fore
206 283 m 1
 235 413 l 2
 241 442 251 469 266 494 c 1
 283 520 299 537 312 545 c 0
 327 556 345 565 364 572 c 1
 359 578 341 591 309 610 c 0
 279 628 244 638 204 640 c 1
 230 671 280 709 352 755 c 1
 426 801 508 823 598 823 c 0
 692 823 764 801 812 758 c 1
 843 732 861 697 865 654 c 0
 868 629 865 600 857 568 c 1
 650 -374 l 1
 556 -374 l 1
 535 -333 506 -296 470 -263 c 0
 449 -243 422 -223 392 -203 c 1
 373 -244 336 -284 284 -323 c 0
 232 -362 179 -380 124 -378 c 0
 76 -378 40 -363 19 -332 c 1
 7 -317 -1 -297 -3 -274 c 0
 -5 -257 -3 -237 2 -214 c 0
 12 -165 39 -126 83 -96 c 0
 123 -70 170 -57 224 -57 c 0
 266 -57 311 -65 362 -82 c 1
 380 -45 l 1
 404 22 l 1
 488 4 l 1
 461 -71 l 1
 437 -119 l 1
 470 -137 503 -159 531 -184 c 1
 559 -210 576 -230 584 -245 c 1
 762 568 l 1
 767 583 768 599 766 616 c 0
 764 634 760 648 753 658 c 1
 738 685 716 705 687 718 c 0
 657 732 623 739 584 739 c 0
 503 739 426 714 354 663 c 1
 366 660 386 652 417 638 c 0
 443 625 469 605 495 578 c 1
 473 573 444 559 410 536 c 0
 371 511 346 472 334 417 c 2
 274 147 l 1
 267 107 247 74 215 50 c 1
 184 22 145 8 99 8 c 0
 56 8 26 22 6 50 c 0
 -5 66 -11 84 -13 103 c 0
 -15 121 -13 137 -9 152 c 0
 -1 190 19 223 51 251 c 0
 84 279 121 293 161 293 c 0
 181 293 197 290 206 283 c 1
208 -276 m 0
 235 -265 258 -247 279 -221 c 1
 318 -163 l 1
 276 -149 237 -142 203 -142 c 0
 138 -142 101 -166 92 -214 c 1
 92 -249 l 1
 97 -275 119 -288 160 -288 c 0
 175 -288 191 -284 208 -276 c 0
118 79 m 0
 142 79 161 87 174 101 c 0
 193 118 203 135 207 152 c 1
 207 174 l 1
 206 185 203 194 197 200 c 0
 187 214 170 221 147 221 c 0
 124 221 106 214 91 200 c 0
 74 184 63 168 61 152 c 1
 59 130 l 1
 60 119 63 110 68 103 c 1
 76 87 93 79 118 79 c 0
EndSplineSet
EndChar
StartChar: uni0E0F
Encoding: 175 3599 144
OldEncoding: 3599
Width: 882
Flags: W
HStem: -378 76<87 114> -179 76<144 164> 8 71<99 120> 221 72<144 162> 739 84<576 610>
DStem: 236 413 334 417 207 283 275 147 494 -148 479 -245 370 -254 333 -378 762 568 857 568 582 -258 651 -374
Fore
207 283 m 1
 236 413 l 2
 242 442 252 469 267 494 c 1
 284 520 300 537 312 545 c 0
 328 556 345 565 365 572 c 1
 360 578 342 591 310 610 c 0
 280 628 245 638 205 640 c 1
 231 671 280 709 353 755 c 1
 427 800 508 823 599 823 c 0
 693 823 765 801 813 758 c 1
 843 732 862 697 866 654 c 0
 869 629 866 600 857 568 c 1
 651 -374 l 1
 556 -374 l 1
 479 -245 l 1
 333 -378 l 1
 325 -356 316 -336 305 -316 c 1
 274 -267 l 1
 260 -286 236 -309 205 -336 c 0
 172 -364 133 -378 87 -378 c 0
 50 -378 21 -364 2 -336 c 0
 -7 -322 -13 -306 -15 -288 c 0
 -16 -272 -15 -250 -10 -223 c 1
 2 -186 22 -155 52 -133 c 1
 82 -113 116 -103 155 -103 c 0
 198 -103 237 -116 271 -142 c 1
 280 -131 291 -108 307 -73 c 1
 322 -44 335 -13 346 22 c 1
 427 4 l 1
 420 -16 404 -52 383 -101 c 1
 352 -157 334 -189 328 -196 c 1
 330 -196 345 -215 370 -254 c 1
 494 -148 l 1
 582 -258 l 1
 762 568 l 1
 768 583 769 599 767 616 c 0
 765 634 761 648 753 658 c 1
 738 685 716 705 688 718 c 0
 658 732 624 739 585 739 c 0
 504 739 427 714 355 663 c 1
 367 660 387 652 418 638 c 0
 443 625 470 605 496 578 c 1
 474 573 444 559 411 536 c 0
 372 511 346 472 334 417 c 2
 275 147 l 1
 268 107 248 74 216 50 c 1
 185 22 145 8 99 8 c 0
 57 8 27 22 7 50 c 0
 -4 66 -10 84 -12 103 c 0
 -14 121 -12 137 -8 152 c 0
 0 190 20 223 52 251 c 0
 85 279 121 293 162 293 c 0
 185 293 201 290 207 283 c 1
147 -290 m 0
 162 -282 179 -267 199 -247 c 1
 226 -210 l 1
 205 -189 179 -179 148 -179 c 0
 112 -179 86 -193 73 -221 c 1
 70 -237 69 -251 71 -263 c 0
 73 -287 88 -300 114 -302 c 0
 125 -302 136 -298 147 -290 c 0
118 79 m 0
 143 79 162 87 175 101 c 0
 194 118 204 135 208 152 c 1
 208 174 l 1
 207 185 204 194 198 200 c 0
 188 214 171 221 147 221 c 0
 125 221 107 214 92 200 c 0
 75 184 64 168 62 152 c 1
 60 130 l 1
 61 119 64 110 69 103 c 1
 77 87 94 79 118 79 c 0
EndSplineSet
EndChar
StartChar: uni0E10
Encoding: 176 3600 145
OldEncoding: 3600
Width: 702
Flags: W
HStem: -410 62<-17 6> -289 20G<405 412> -271 55<389 403 405 412> -246 63<27 45> -105 59<424 438> 224 70<270 288> 437 71<312 333> 678 85<715 737> 747 79<451 480>
DStem: 549 407 648 411 509 217 564 25
Fore
333 508 m 0
 362 508 388 500 412 484 c 0
 435 466 450 444 458 416 c 1
 509 217 l 1
 549 407 l 1
 558 443 561 471 559 490 c 0
 558 505 554 516 547 524 c 0
 534 545 503 563 455 581 c 1
 407 595 354 607 297 617 c 1
 241 629 198 636 169 638 c 1
 212 692 260 737 312 773 c 1
 368 808 422 826 473 826 c 0
 507 826 533 823 552 818 c 0
 585 808 609 800 625 793 c 2
 687 769 l 1
 704 765 720 763 737 763 c 0
 764 763 792 769 823 782 c 1
 824 700 l 1
 784 685 748 678 715 678 c 0
 697 678 680 680 661 685 c 1
 594 710 l 1
 519 738 l 2
 504 744 484 747 460 747 c 0
 440 747 415 741 384 729 c 1
 357 715 341 704 337 696 c 1
 379 685 l 1
 459 661 l 1
 531 643 l 2
 602 623 643 598 656 566 c 1
 660 539 l 1
 664 508 660 465 648 411 c 2
 564 25 l 1
 448 25 l 1
 451 51 451 80 447 113 c 0
 445 132 441 152 435 175 c 0
 420 240 410 280 404 294 c 1
 394 275 376 258 349 243 c 0
 324 230 297 224 270 224 c 0
 226 224 195 238 175 265 c 0
 164 281 159 299 156 319 c 0
 155 335 156 351 161 365 c 1
 167 406 187 439 220 467 c 1
 250 494 288 508 333 508 c 0
395 -318 m 2
 398 -315 402 -308 406 -295 c 1
 412 -269 l 1
 405 -269 l 1
 390 -271 l 1
 351 -271 325 -260 312 -239 c 0
 303 -224 298 -210 297 -198 c 0
 296 -186 296 -174 299 -163 c 0
 305 -132 321 -105 347 -82 c 0
 372 -58 403 -46 438 -46 c 0
 472 -46 497 -57 513 -77 c 0
 520 -87 525 -100 526 -117 c 0
 528 -133 527 -149 522 -163 c 1
 495 -300 l 1
 490 -313 484 -326 478 -339 c 1
 472 -345 462 -353 448 -362 c 2
 408 -384 l 1
 332 -424 l 1
 256 -366 l 1
 150 -419 l 1
 125 -336 l 1
 89 -388 41 -413 -17 -410 c 0
 -70 -410 -98 -387 -103 -341 c 0
 -105 -323 -104 -306 -99 -291 c 0
 -90 -259 -72 -233 -45 -214 c 0
 -17 -193 13 -183 45 -183 c 0
 74 -183 101 -193 126 -211 c 1
 132 -202 140 -185 151 -161 c 1
 182 -57 l 1
 253 -57 l 1
 238 -130 210 -200 169 -267 c 1
 193 -322 l 1
 224 -309 l 1
 275 -283 l 1
 356 -341 l 1
 395 -318 l 2
403 -216 m 0
 421 -216 435 -211 447 -200 c 1
 459 -186 465 -173 468 -161 c 1
 468 -141 l 1
 462 -121 l 1
 455 -111 442 -105 426 -105 c 0
 405 -105 391 -111 381 -121 c 0
 370 -132 362 -146 357 -161 c 1
 356 -176 l 1
 363 -200 l 1
 370 -211 384 -216 403 -216 c 0
286 294 m 0
 307 294 326 300 344 314 c 1
 359 331 368 348 372 365 c 1
 374 393 l 1
 366 416 l 1
 357 430 340 437 318 437 c 0
 297 437 278 430 259 416 c 1
 245 402 236 385 231 365 c 1
 231 345 l 1
 232 332 235 323 240 316 c 0
 248 301 264 294 286 294 c 0
28 -246 m 0
 8 -246 -8 -252 -16 -262 c 0
 -28 -275 -35 -288 -37 -300 c 1
 -38 -313 l 1
 -32 -331 l 1
 -25 -343 -12 -348 6 -348 c 0
 21 -348 34 -343 46 -333 c 1
 60 -324 71 -315 78 -304 c 2
 92 -283 l 1
 90 -278 83 -271 71 -260 c 0
 61 -251 47 -246 28 -246 c 0
EndSplineSet
EndChar
StartChar: uni0E11
Encoding: 177 3601 146
OldEncoding: 3601
Width: 1026
Flags: W
HStem: -1 21G<245 343 721 818> 350 72<103 122> 566 67<151 168> 697 88<818 843>
DStem: 359 506 453 501 245 -1 425 376 857 608 954 608 721 -1 818 -1
Fore
245 -1 m 1
 359 506 l 2
 365 536 373 557 382 571 c 0
 391 583 401 594 412 606 c 1
 455 633 l 2
 470 640 477 649 477 659 c 1
 478 670 l 1
 477 679 471 690 461 703 c 1
 446 718 434 726 425 728 c 1
 313 663 l 1
 217 728 l 1
 184 721 156 704 133 677 c 0
 110 653 97 630 91 608 c 1
 94 611 102 616 116 624 c 0
 126 630 143 633 168 633 c 0
 210 631 241 619 263 598 c 0
 277 583 286 565 288 545 c 0
 290 527 287 510 283 492 c 0
 272 447 249 412 213 388 c 0
 177 363 140 350 103 350 c 0
 60 350 25 368 -1 403 c 1
 -13 425 -20 446 -22 469 c 0
 -25 492 -22 518 -16 545 c 0
 -6 585 6 618 21 644 c 1
 42 689 77 727 126 758 c 0
 173 786 212 800 242 800 c 1
 332 737 l 1
 434 800 l 1
 472 787 504 768 528 744 c 1
 549 725 560 705 562 684 c 0
 563 673 562 663 557 652 c 1
 555 635 550 622 542 613 c 0
 532 601 520 591 508 582 c 0
 496 574 484 564 473 549 c 0
 465 540 459 524 453 501 c 2
 425 376 l 1
 515 515 l 1
 560 582 611 642 667 695 c 1
 727 755 785 785 843 785 c 0
 891 785 925 768 944 732 c 0
 952 718 956 700 959 679 c 0
 961 652 960 628 954 608 c 1
 818 -1 l 1
 721 -1 l 1
 857 608 l 2
 861 626 862 643 861 659 c 0
 858 684 844 697 818 697 c 0
 791 697 754 674 709 626 c 0
 660 576 611 515 561 443 c 0
 512 374 465 296 422 211 c 0
 384 139 358 68 343 -1 c 1
 245 -1 l 1
154 566 m 0
 129 566 109 559 96 545 c 1
 78 531 68 514 66 494 c 2
 63 474 l 1
 64 464 67 454 73 445 c 0
 82 430 98 422 122 422 c 0
 145 422 163 429 177 443 c 1
 195 465 206 482 209 494 c 1
 211 522 l 1
 210 530 207 538 202 545 c 0
 191 559 176 566 154 566 c 0
EndSplineSet
EndChar
StartChar: uni0E12
Encoding: 178 3602 147
OldEncoding: 3602
Width: 1090
Flags: W
HStem: -14 88<473 480> 0 21G<31 128 791 886> 527 71<354 372> 766 20G<962 1057>
DStem: 291 720 300 801 360 669 415 710 525 222 618 210 496 92 592 88 565 801 543 720 415 710 397 636 590 521 687 521 538 289 635 287 962 786 1057 786 822 141 886 0
Fore
538 289 m 1
 590 521 l 2
 599 561 602 597 599 631 c 2
 598 640 l 1
 593 669 574 695 543 720 c 1
 397 636 l 1
 397 636 l 1
 360 669 l 1
 291 720 l 1
 180 668 114 595 95 501 c 0
 88 473 87 440 91 402 c 0
 95 361 105 322 120 284 c 0
 133 247 140 218 142 199 c 1
 142 178 l 1
 217 269 l 2
 231 284 249 301 271 319 c 1
 243 328 221 345 206 373 c 0
 200 384 196 398 194 414 c 0
 193 427 194 442 197 458 c 0
 204 497 223 530 255 558 c 0
 288 585 326 598 372 598 c 0
 416 598 448 584 466 556 c 0
 475 538 481 519 483 501 c 0
 485 484 484 468 479 453 c 0
 475 432 467 413 457 395 c 1
 445 379 432 365 416 351 c 2
 368 309 l 1
 337 281 306 249 271 212 c 1
 241 183 214 150 191 115 c 0
 168 83 147 44 128 0 c 1
 31 0 l 1
 47 19 58 40 62 62 c 0
 66 81 66 112 62 155 c 2
 60 169 l 2
 59 184 50 215 37 261 c 0
 24 302 14 345 7 388 c 1
 6 400 l 2
 2 433 4 472 12 516 c 1
 30 581 65 637 117 684 c 0
 172 735 233 774 300 801 c 1
 415 710 l 1
 565 801 l 1
 613 774 646 749 666 724 c 1
 684 699 693 673 696 645 c 2
 697 640 l 2
 700 607 697 567 687 521 c 2
 635 287 l 1
 666 281 701 264 739 238 c 0
 780 208 808 176 822 141 c 1
 962 786 l 1
 1057 786 l 1
 886 0 l 1
 791 0 l 1
 763 110 706 180 618 210 c 1
 592 88 l 1
 578 20 540 -14 476 -14 c 0
 437 -14 411 2 397 32 c 1
 389 45 385 60 383 79 c 0
 381 95 382 117 387 143 c 0
 397 185 415 219 440 245 c 0
 467 272 500 287 538 289 c 1
356 527 m 0
 333 527 314 521 300 507 c 0
 282 490 272 472 268 455 c 1
 265 435 l 1
 267 423 270 414 275 406 c 0
 284 391 300 384 322 384 c 0
 348 384 368 391 382 404 c 0
 398 419 407 436 412 455 c 1
 413 481 l 1
 412 490 410 499 404 507 c 0
 395 521 380 527 356 527 c 0
496 92 m 1
 525 222 l 1
 487 214 463 185 452 134 c 1
 449 125 448 116 449 106 c 0
 449 100 451 95 454 92 c 1
 461 80 467 74 475 74 c 0
 483 74 490 80 496 92 c 1
EndSplineSet
EndChar
StartChar: uni0E13
Encoding: 179 3603 148
OldEncoding: 3603
Width: 1068
Flags: W
HStem: -36 20G<796.5 830> -14 71<122 137> 0 21G<419 516> 199 72<162 185> 729 72<386 421> 766 20G<890 987>
DStem: 71 409 167 415 7 130 135 261 546 578 643 578 419 0 554 169 772 254 872 267 734 71 834 88 890 786 987 786 792 333 890 340
Fore
7 130 m 2
 71 409 l 1
 90 500 134 557 203 578 c 1
 192 589 174 602 148 618 c 0
 128 630 92 643 43 657 c 1
 65 683 109 713 172 748 c 0
 236 783 312 801 403 801 c 0
 556 801 639 754 649 660 c 0
 651 636 649 609 643 578 c 1
 554 169 l 1
 627 254 708 308 792 333 c 1
 890 786 l 1
 987 786 l 1
 890 340 l 1
 935 333 968 315 989 287 c 0
 999 273 1005 256 1007 236 c 0
 1009 218 1007 192 1000 159 c 1
 984 100 960 57 926 30 c 0
 889 -1 850 -16 810 -16 c 0
 783 -16 762 -8 747 7 c 0
 738 16 733 29 731 44 c 1
 734 71 l 1
 772 254 l 1
 713 234 659 196 610 139 c 0
 562 84 531 37 516 0 c 1
 419 0 l 1
 546 578 l 2
 550 596 551 615 549 634 c 0
 547 656 538 676 522 691 c 1
 495 716 454 729 400 729 c 0
 330 729 258 709 184 671 c 1
 194 668 217 657 253 638 c 0
 279 624 306 602 332 574 c 1
 319 574 304 571 287 565 c 0
 268 559 246 544 218 521 c 1
 191 490 174 454 167 415 c 1
 135 261 l 1
 142 268 159 271 185 271 c 0
 227 271 257 257 277 229 c 1
 287 210 293 194 294 181 c 0
 296 163 295 146 290 130 c 0
 283 94 264 61 231 30 c 0
 200 1 164 -14 122 -14 c 0
 80 -14 48 -1 25 26 c 0
 13 41 6 59 4 79 c 0
 2 95 3 112 7 130 c 2
834 88 m 1
 832 74 l 1
 833 66 837 62 845 62 c 0
 859 62 876 71 894 90 c 1
 910 105 922 128 927 159 c 0
 932 176 933 193 931 208 c 0
 928 241 909 260 872 267 c 1
 834 88 l 1
135 57 m 0
 159 57 178 65 194 79 c 0
 209 93 218 110 222 130 c 1
 222 150 l 1
 221 162 218 172 212 178 c 0
 205 192 189 199 166 199 c 0
 145 199 126 192 108 178 c 1
 95 164 84 148 78 130 c 1
 77 106 l 1
 78 95 81 86 87 79 c 0
 97 65 114 57 135 57 c 0
EndSplineSet
EndChar
StartChar: uni0E14
Encoding: 180 3604 149
OldEncoding: 3604
Width: 800
Flags: W
HStem: -1 21G<49 146 491 590> 526 71<372 389> 732 72<420 470>
DStem: 608 524 705 520 491 -1 590 -1
Fore
118 511 m 0
 109 474 107 436 111 396 c 0
 115 360 124 324 138 288 c 0
 148 259 154 236 156 217 c 0
 158 200 158 184 154 168 c 1
 181 206 207 237 232 262 c 2
 289 318 l 1
 261 327 239 344 224 372 c 0
 217 382 213 396 212 413 c 0
 210 427 211 442 215 457 c 0
 222 496 241 529 272 557 c 0
 306 584 344 597 389 597 c 0
 434 597 466 583 484 555 c 0
 494 537 500 518 501 500 c 0
 503 482 502 466 496 452 c 1
 493 435 485 416 474 394 c 1
 459 375 445 360 433 350 c 0
 411 333 395 319 385 308 c 0
 341 267 309 234 289 211 c 1
 259 182 232 149 209 114 c 0
 185 82 164 43 146 -1 c 1
 49 -1 l 1
 66 21 76 41 80 61 c 0
 84 80 83 111 79 153 c 2
 77 168 l 2
 75 188 68 219 54 262 c 0
 44 299 33 341 24 390 c 1
 23 396 l 2
 19 436 22 475 32 515 c 0
 55 595 102 663 174 721 c 0
 245 776 338 804 452 804 c 0
 614 804 701 747 713 633 c 0
 717 602 714 564 705 520 c 1
 590 -1 l 1
 491 -1 l 1
 608 524 l 2
 615 556 616 587 613 617 c 0
 611 641 606 660 598 674 c 0
 582 713 528 732 438 732 c 0
 360 732 291 711 231 670 c 0
 169 627 132 574 118 511 c 0
374 526 m 0
 351 526 332 520 318 506 c 0
 301 490 290 473 286 454 c 1
 285 434 l 1
 293 405 l 1
 302 390 317 383 340 383 c 0
 366 383 385 390 400 403 c 0
 416 418 425 435 427 454 c 1
 429 480 l 1
 422 506 l 1
 413 520 398 526 374 526 c 0
EndSplineSet
EndChar
StartChar: uni0E15
Encoding: 181 3605 150
OldEncoding: 3605
Width: 799
Flags: W
HStem: -1 21G<51 148 493 592> 527 71<373 391>
DStem: 310 719 318 800 379 668 435 710 585 800 562 719 435 710 417 635 607 520 704 520 493 -1 592 -1
Fore
162 177 m 1
 233 267 l 1
 234 268 l 1
 288 319 l 1
 259 327 237 345 225 372 c 1
 218 382 212 396 210 414 c 0
 209 429 211 443 216 458 c 1
 224 496 243 529 274 557 c 0
 308 584 346 598 391 598 c 0
 436 598 467 584 485 555 c 0
 496 537 501 519 503 501 c 0
 505 483 504 466 498 452 c 1
 494 435 487 416 475 394 c 1
 461 375 447 360 435 350 c 0
 413 333 396 319 387 309 c 0
 343 267 311 235 291 211 c 1
 261 182 234 150 211 114 c 0
 187 82 166 43 148 -1 c 1
 51 -1 l 1
 67 19 77 39 82 61 c 0
 86 80 85 111 81 154 c 2
 79 168 l 2
 78 183 71 214 57 260 c 0
 43 301 34 344 27 388 c 1
 26 399 l 2
 23 432 24 471 32 515 c 1
 50 580 84 636 136 684 c 0
 192 734 253 773 318 800 c 1
 435 710 l 1
 585 800 l 1
 632 774 665 748 686 723 c 1
 704 698 713 672 716 644 c 2
 717 640 l 1
 718 602 714 562 704 520 c 2
 592 -1 l 1
 493 -1 l 1
 607 520 l 1
 618 564 622 601 619 631 c 2
 618 640 l 1
 612 668 594 695 562 719 c 1
 417 635 l 1
 417 635 l 1
 417 636 404 647 379 668 c 1
 310 719 l 1
 200 667 135 594 114 501 c 0
 107 472 107 439 111 401 c 0
 115 361 124 321 139 284 c 0
 153 246 160 217 162 198 c 1
 162 177 l 1
375 527 m 0
 353 527 334 520 320 506 c 0
 302 488 289 471 285 454 c 1
 285 434 l 1
 287 423 290 413 295 406 c 0
 304 391 319 383 342 383 c 0
 368 383 387 390 402 403 c 0
 418 419 427 435 429 454 c 1
 431 480 l 1
 424 506 l 1
 415 520 400 527 375 527 c 0
EndSplineSet
EndChar
StartChar: uni0E16
Encoding: 182 3606 151
OldEncoding: 3606
Width: 792
Flags: W
HStem: -14 71<139 157> 0 21G<490 587> 199 72<182 203> 717 84<422 456>
DStem: 84 391 184 395 27 130 155 261 611 545 708 545 490 0 587 0
Fore
27 130 m 1
 84 391 l 1
 92 434 109 469 135 497 c 0
 159 522 185 539 212 550 c 1
 207 556 189 568 160 587 c 0
 130 605 95 616 55 618 c 1
 85 650 134 689 203 733 c 0
 271 778 353 801 447 801 c 0
 504 801 555 791 601 773 c 0
 646 755 678 727 698 687 c 0
 705 672 710 653 713 629 c 0
 716 604 713 576 708 545 c 1
 587 0 l 1
 490 0 l 1
 611 545 l 1
 614 563 614 579 613 594 c 0
 611 611 607 625 601 636 c 0
 586 663 564 683 535 696 c 0
 505 710 472 717 432 717 c 0
 349 717 271 692 201 640 c 1
 212 639 233 631 265 616 c 0
 294 601 319 581 341 556 c 1
 318 550 290 536 256 514 c 0
 221 491 197 452 184 395 c 2
 155 261 l 1
 160 268 177 271 203 271 c 0
 244 271 275 257 295 229 c 0
 306 212 312 196 314 180 c 0
 316 162 315 145 310 130 c 0
 301 93 281 60 248 30 c 0
 218 1 181 -14 139 -14 c 0
 97 -14 66 -1 45 26 c 0
 33 41 26 58 24 79 c 0
 22 95 23 112 27 130 c 1
153 57 m 0
 177 57 196 64 212 79 c 0
 226 93 235 110 240 130 c 1
 242 150 l 1
 241 163 237 172 230 178 c 1
 222 192 207 199 184 199 c 0
 163 199 144 192 126 178 c 1
 112 164 102 148 96 130 c 1
 97 106 l 1
 98 95 101 86 107 79 c 0
 115 64 131 57 153 57 c 0
EndSplineSet
EndChar
StartChar: uni0E17
Encoding: 183 3607 152
OldEncoding: 3607
Width: 839
Flags: W
HStem: -1 21G<91 188 566 665> 511 69<160 176> 698 88<667 688> 724 72<203 223>
DStem: 207 518 331 652 91 -1 271 377 698 608 795 608 566 -1 665 -1
Fore
91 -1 m 1
 207 518 l 1
 191 513 176 511 160 511 c 0
 115 511 84 526 66 555 c 1
 53 570 46 589 44 611 c 0
 42 625 44 640 48 655 c 1
 55 693 75 726 107 754 c 0
 140 782 178 796 223 796 c 0
 249 796 272 789 292 777 c 0
 311 765 323 748 330 726 c 1
 335 705 l 1
 337 686 336 668 331 652 c 1
 271 377 l 1
 348 492 l 1
 373 532 409 579 455 633 c 0
 494 677 534 714 574 744 c 0
 612 772 650 786 688 786 c 0
 723 786 750 777 768 761 c 1
 784 743 795 721 800 693 c 1
 801 682 l 2
 804 660 801 635 795 608 c 1
 665 -1 l 1
 566 -1 l 1
 698 608 l 2
 704 631 706 648 705 659 c 0
 702 685 689 698 667 698 c 0
 640 698 602 674 555 626 c 0
 506 574 457 513 408 443 c 0
 354 364 307 287 268 212 c 0
 233 144 206 73 188 -1 c 1
 91 -1 l 1
205 724 m 0
 182 724 164 717 149 703 c 0
 132 685 121 668 117 652 c 1
 115 629 l 1
 116 619 120 611 125 604 c 0
 134 588 151 580 174 580 c 0
 198 580 217 588 231 604 c 1
 248 617 258 633 260 652 c 1
 263 677 l 1
 262 686 259 695 253 703 c 0
 245 717 229 724 205 724 c 0
EndSplineSet
EndChar
StartChar: uni0E18
Encoding: 184 3608 153
OldEncoding: 3608
Width: 706
Flags: W
HStem: -1 84<-9 343> 657 78<617 630> 728 72<330 359>
DStem: 180 501 275 501 90 83 182 83 473 385 568 383 420 149 518 149
Fore
201 661 m 1
 237 659 293 649 369 633 c 0
 441 618 500 587 547 540 c 0
 565 521 576 501 579 478 c 0
 580 462 577 431 568 383 c 1
 518 149 l 1
 503 86 484 45 459 27 c 0
 431 8 384 -1 317 -1 c 2
 -26 -1 l 1
 -8 83 l 1
 90 83 l 1
 180 501 l 1
 275 501 l 1
 182 83 l 1
 332 83 l 2
 364 83 386 87 396 96 c 1
 405 102 414 120 420 149 c 2
 473 385 l 2
 478 414 481 436 479 452 c 0
 477 471 468 488 451 503 c 0
 420 534 373 557 314 573 c 0
 257 588 193 596 121 596 c 1
 46 591 l 1
 64 624 101 668 155 723 c 1
 208 774 274 800 355 800 c 0
 402 800 455 789 515 767 c 0
 576 745 613 735 628 735 c 0
 658 735 686 742 714 756 c 1
 733 688 l 1
 689 667 650 657 617 657 c 0
 596 657 573 661 547 670 c 2
 472 697 l 1
 407 719 l 2
 389 725 365 728 339 728 c 0
 302 728 272 719 247 703 c 0
 225 687 209 673 201 661 c 1
EndSplineSet
EndChar
StartChar: uni0E19
Encoding: 185 3609 154
OldEncoding: 3609
Width: 854
Flags: W
HStem: -16 78<597 636> 0 21G<94 191> 512 71<163 181> 724 72<206 226> 767 20G<676 773>
DStem: 209 519 336 653 94 0 224 150 562 267 659 267 518 71 620 88 676 787 773 787 577 342 674 340
Fore
94 0 m 1
 209 519 l 1
 195 514 179 512 163 512 c 0
 118 512 87 527 69 556 c 1
 56 571 49 590 47 611 c 0
 45 626 47 640 51 655 c 1
 58 692 78 726 110 755 c 0
 143 783 182 796 226 796 c 0
 252 796 276 790 295 778 c 0
 312 766 326 749 336 727 c 1
 340 706 l 1
 342 687 341 669 336 653 c 1
 224 150 l 1
 327 256 444 320 577 342 c 1
 676 787 l 1
 773 787 l 1
 674 340 l 1
 724 333 758 316 775 287 c 1
 785 274 792 257 794 236 c 0
 796 216 794 190 788 159 c 1
 774 104 749 61 712 31 c 0
 675 0 637 -16 597 -16 c 0
 570 -16 549 -8 533 7 c 0
 523 16 517 28 515 44 c 1
 518 71 l 1
 562 267 l 1
 506 257 452 234 400 199 c 0
 344 163 301 127 270 93 c 1
 239 60 212 29 191 0 c 1
 94 0 l 1
208 724 m 0
 185 724 167 718 152 704 c 0
 135 686 124 670 120 655 c 1
 121 632 l 1
 122 620 125 611 130 605 c 0
 138 590 155 583 179 583 c 0
 203 583 222 590 237 605 c 0
 250 619 259 636 264 655 c 1
 266 676 l 1
 265 686 262 696 256 704 c 0
 249 718 232 724 208 724 c 0
620 88 m 1
 618 77 l 1
 619 67 625 62 636 62 c 0
 648 62 663 72 681 90 c 0
 696 109 707 132 713 159 c 0
 719 176 721 192 719 208 c 0
 716 241 696 261 659 267 c 1
 620 88 l 1
EndSplineSet
EndChar
StartChar: uni0E1A
Encoding: 186 3610 155
OldEncoding: 3610
Width: 853
Flags: W
HStem: -1 84<18 513> 511 69<164 180> 724 72<207 227> 766 20G<721 818>
DStem: 211 518 337 652 114 83 212 83 721 786 818 786 582 149 679 149
Fore
114 83 m 1
 211 518 l 1
 196 513 180 511 164 511 c 0
 119 511 88 526 70 555 c 1
 57 570 50 589 48 611 c 0
 46 625 48 640 52 655 c 1
 59 693 79 726 111 754 c 0
 144 782 182 796 227 796 c 0
 253 796 277 789 296 777 c 0
 314 765 327 748 337 726 c 1
 341 705 l 1
 343 686 342 668 337 652 c 1
 212 83 l 1
 496 83 l 2
 526 83 547 87 557 96 c 0
 565 102 574 119 582 149 c 1
 721 786 l 1
 818 786 l 1
 679 149 l 1
 664 84 643 43 618 27 c 1
 593 9 546 -1 477 -1 c 2
 0 -1 l 1
 19 83 l 1
 114 83 l 1
209 724 m 0
 186 724 168 717 153 703 c 0
 136 685 125 668 121 652 c 1
 119 629 l 1
 120 619 124 611 129 604 c 0
 139 588 155 580 178 580 c 0
 202 580 221 588 236 604 c 1
 252 617 262 633 265 652 c 1
 267 677 l 1
 266 686 263 695 257 703 c 0
 250 717 233 724 209 724 c 0
EndSplineSet
EndChar
StartChar: uni0E1B
Encoding: 187 3611 156
OldEncoding: 3611
Width: 852
Flags: W
HStem: -17 84<-24 471> 495 71<122 140> 708 72<165 185>
DStem: 167 502 295 637 72 67 169 67 741 1055 838 1055 540 134 637 134
Fore
72 67 m 1
 167 502 l 1
 155 498 139 495 122 495 c 0
 77 495 45 510 27 539 c 1
 15 554 8 573 5 595 c 0
 4 609 5 624 10 639 c 1
 16 676 35 709 68 738 c 0
 101 766 140 780 185 780 c 0
 211 780 234 774 253 761 c 0
 271 750 285 733 293 710 c 1
 298 690 l 1
 301 670 299 652 295 637 c 1
 169 67 l 1
 454 67 l 2
 484 67 504 72 514 81 c 1
 525 87 533 104 540 134 c 2
 741 1055 l 1
 838 1055 l 1
 637 134 l 1
 622 70 601 30 575 12 c 0
 551 -7 504 -17 435 -17 c 2
 -42 -17 l 1
 -23 67 l 1
 72 67 l 1
167 708 m 0
 144 708 125 701 111 687 c 0
 93 669 82 653 79 639 c 1
 79 615 l 1
 81 604 83 595 88 588 c 0
 98 574 114 566 138 566 c 0
 159 566 179 574 196 588 c 1
 209 602 217 619 222 639 c 1
 225 659 l 1
 224 670 220 679 215 687 c 0
 206 701 191 708 167 708 c 0
EndSplineSet
EndChar
StartChar: uni0E1C
Encoding: 188 3612 157
OldEncoding: 3612
Width: 818
Flags: W
HStem: -1 21G<-17 80 513 610> 511 69<234 253> 724 72<280 297> 766 20G<685 782>
DStem: 124 652 194 520 -17 -1 126 203 372 333 393 439 498 143 557 203 393 439 372 333 126 203 160 143 685 786 782 786 557 203 610 -1
Fore
194 520 m 1
 126 203 l 1
 393 439 l 1
 557 203 l 1
 685 786 l 1
 782 786 l 1
 610 -1 l 1
 513 -1 l 1
 519 29 521 57 518 83 c 0
 516 107 509 127 498 143 c 2
 372 333 l 1
 160 143 l 1
 121 110 95 62 80 -1 c 1
 -17 -1 l 1
 124 652 l 2
 134 694 154 728 187 756 c 1
 220 783 256 796 297 796 c 0
 342 796 375 782 395 754 c 0
 406 737 411 720 413 703 c 0
 415 685 414 669 409 655 c 1
 402 615 383 580 351 552 c 0
 319 525 280 511 234 511 c 0
 219 511 206 514 194 520 c 1
251 580 m 0
 276 580 296 588 311 604 c 0
 327 620 338 636 343 652 c 1
 343 675 l 1
 342 685 339 695 333 703 c 0
 322 717 305 724 282 724 c 0
 260 724 241 717 226 703 c 1
 211 685 202 668 197 652 c 1
 195 631 l 1
 196 622 200 613 205 604 c 0
 212 588 228 580 251 580 c 0
EndSplineSet
EndChar
StartChar: uni0E1D
Encoding: 189 3613 158
OldEncoding: 3613
Width: 817
Flags: W
HStem: -17 21G<-59 38 471 568> 495 71<192 213> 708 72<238 255>
DStem: 82 637 152 504 -59 -17 83 187 330 317 350 423 456 127 513 187 350 423 330 317 83 187 118 127 705 1055 802 1055 513 187 568 -17
Fore
152 504 m 1
 83 187 l 1
 350 423 l 1
 513 187 l 1
 705 1055 l 1
 802 1055 l 1
 568 -17 l 1
 471 -17 l 1
 477 14 478 41 475 67 c 0
 472 91 466 111 456 127 c 2
 330 317 l 1
 118 127 l 1
 79 94 52 46 38 -17 c 1
 -59 -17 l 1
 82 637 l 1
 94 679 114 714 143 740 c 1
 177 767 214 780 255 780 c 0
 300 780 332 766 351 738 c 0
 362 722 369 705 371 687 c 0
 373 669 371 653 367 639 c 1
 360 599 341 565 309 536 c 0
 277 509 238 495 192 495 c 0
 177 495 164 498 152 504 c 1
211 566 m 0
 236 566 255 574 268 590 c 1
 285 604 295 620 300 639 c 1
 301 659 l 1
 300 668 296 678 291 687 c 1
 278 701 262 708 240 708 c 0
 218 708 199 701 183 687 c 1
 170 670 159 654 154 639 c 1
 152 615 l 1
 153 605 156 597 162 590 c 1
 170 574 186 566 211 566 c 0
EndSplineSet
EndChar
StartChar: uni0E1E
Encoding: 190 3614 159
OldEncoding: 3614
Width: 938
Flags: W
HStem: -1 21G<83 180 648 745> 511 71<152 170> 724 72<194 215> 766 20G<820 917>
DStem: 199 518 325 652 83 -1 237 253 546 598 586 786 650 96 704 251 586 786 546 598 237 253 219 96 820 786 917 786 704 251 745 -1
Fore
83 -1 m 1
 199 518 l 1
 184 513 168 511 152 511 c 0
 107 511 76 526 58 555 c 1
 46 570 38 589 36 611 c 0
 34 625 36 640 40 655 c 1
 48 693 68 726 99 754 c 0
 132 782 171 796 215 796 c 0
 241 796 265 789 284 777 c 0
 302 765 315 748 325 726 c 1
 329 705 l 1
 331 686 330 668 325 652 c 1
 237 253 l 1
 586 786 l 1
 704 251 l 1
 820 786 l 1
 917 786 l 1
 745 -1 l 1
 648 -1 l 1
 652 43 l 1
 652 76 l 1
 650 96 l 1
 546 598 l 1
 219 96 l 2
 214 87 206 70 195 43 c 1
 180 -1 l 1
 83 -1 l 1
197 724 m 0
 175 724 156 717 141 703 c 0
 124 685 113 669 109 655 c 1
 110 631 l 1
 111 620 114 611 120 604 c 0
 128 589 144 582 168 582 c 0
 193 582 212 589 226 604 c 0
 242 620 251 637 253 655 c 2
 255 675 l 1
 254 685 251 695 245 703 c 0
 238 717 221 724 197 724 c 0
EndSplineSet
EndChar
StartChar: uni0E1F
Encoding: 191 3615 160
OldEncoding: 3615
Width: 938
Flags: W
HStem: -17 21G<41 138 606 703> 495 69<110 125> 708 72<152 173>
DStem: 155 502 283 637 41 -17 192 238 503 582 543 770 606 81 660 235 543 770 503 582 192 238 176 81 840 1055 937 1055 660 235 703 -17
Fore
41 -17 m 1
 155 502 l 1
 143 498 127 495 110 495 c 0
 65 495 33 510 15 539 c 1
 3 554 -4 573 -7 595 c 0
 -8 609 -7 624 -2 639 c 1
 4 676 23 709 56 738 c 0
 89 766 128 780 173 780 c 0
 199 780 222 774 241 761 c 0
 259 750 273 733 281 710 c 1
 286 690 l 1
 289 670 287 652 283 637 c 1
 192 238 l 1
 543 770 l 1
 660 235 l 1
 840 1055 l 1
 937 1055 l 1
 703 -17 l 1
 606 -17 l 1
 610 27 l 1
 609 60 l 1
 606 81 l 1
 503 582 l 1
 176 81 l 2
 171 72 163 54 152 27 c 1
 138 -17 l 1
 41 -17 l 1
155 708 m 0
 133 708 113 701 97 687 c 1
 81 671 71 654 67 637 c 1
 65 613 l 1
 66 603 69 595 74 588 c 0
 86 572 102 564 123 564 c 0
 148 564 168 572 181 588 c 1
 196 601 206 618 210 637 c 1
 213 661 l 1
 212 670 209 679 203 687 c 0
 194 701 179 708 155 708 c 0
EndSplineSet
EndChar
StartChar: uni0E20
Encoding: 192 3616 161
OldEncoding: 3616
Width: 886
Flags: W
HStem: -14 71<44 62> 0 21G<587 682> 199 72<89 108> 717 84<523 546>
DStem: 181 391 279 395 153 261 220 125 706 545 801 545 587 0 682 0
Fore
153 261 m 1
 181 391 l 1
 187 423 196 450 208 472 c 1
 226 496 241 513 255 523 c 0
 273 534 290 543 307 550 c 1
 303 556 284 568 252 587 c 0
 222 605 188 616 148 618 c 1
 175 648 225 686 297 733 c 0
 370 778 453 801 544 801 c 0
 636 801 706 779 757 735 c 0
 785 710 803 676 808 631 c 0
 810 605 807 576 801 545 c 1
 682 0 l 1
 587 0 l 1
 706 545 l 1
 708 563 709 579 708 594 c 0
 708 611 704 625 696 636 c 1
 684 662 663 682 632 696 c 0
 602 710 568 717 529 717 c 0
 446 717 368 692 298 640 c 1
 306 639 327 631 362 616 c 1
 389 601 414 581 438 556 c 1
 415 550 387 536 353 514 c 0
 316 490 292 451 279 395 c 2
 220 125 l 1
 210 86 190 54 161 28 c 0
 129 0 90 -14 44 -14 c 0
 0 -14 -32 0 -50 28 c 1
 -60 45 -66 63 -68 81 c 0
 -69 96 -68 112 -66 130 c 0
 -59 167 -39 200 -7 229 c 0
 26 257 65 271 108 271 c 0
 130 271 144 268 153 261 c 1
60 57 m 0
 83 57 103 64 121 79 c 0
 135 92 145 109 150 130 c 1
 153 152 l 1
 152 164 147 172 139 178 c 1
 129 192 113 199 91 199 c 0
 70 199 51 192 33 178 c 1
 20 162 10 145 3 130 c 1
 3 108 l 1
 4 96 8 87 14 81 c 1
 22 65 37 57 60 57 c 0
EndSplineSet
EndChar
StartChar: uni0E21
Encoding: 193 3617 162
OldEncoding: 3617
Width: 850
Flags: W
HStem: -14 80<82 98> 0 21G<549 646> 512 69<184 203> 724 72<227 247> 766 20G<720 817>
DStem: 177 271 272 267 141 106 238 120 229 519 357 653 193 342 290 342 720 786 817 786 585 164 646 0
Fore
193 342 m 1
 229 519 l 1
 219 514 204 512 184 512 c 0
 142 512 112 525 92 553 c 1
 81 570 74 588 72 607 c 0
 71 623 71 639 74 655 c 0
 84 694 105 727 136 755 c 0
 168 783 204 796 247 796 c 0
 274 796 298 790 318 777 c 0
 336 766 349 749 356 727 c 1
 361 706 l 1
 363 687 362 669 357 653 c 1
 290 342 l 1
 341 338 387 325 426 305 c 1
 465 288 499 266 528 238 c 1
 553 211 571 186 585 164 c 1
 720 786 l 1
 817 786 l 1
 646 0 l 1
 549 0 l 1
 549 35 l 1
 547 58 539 81 525 104 c 0
 502 146 468 182 424 210 c 1
 382 240 331 258 272 267 c 1
 238 120 l 2
 229 78 211 45 185 23 c 0
 158 -2 123 -14 82 -14 c 0
 35 -14 3 3 -16 37 c 0
 -25 55 -31 72 -32 90 c 0
 -34 108 -33 130 -28 155 c 0
 -17 206 8 249 46 285 c 0
 85 321 134 340 193 342 c 1
61 88 m 0
 69 74 81 66 96 66 c 0
 119 66 134 80 141 106 c 1
 177 271 l 1
 147 271 120 260 95 238 c 0
 73 216 59 189 53 159 c 0
 49 140 49 127 49 120 c 0
 51 109 54 99 61 88 c 0
232 724 m 0
 210 724 192 718 175 704 c 1
 161 686 151 669 146 653 c 1
 145 632 l 1
 146 623 148 614 154 605 c 0
 162 589 177 581 201 581 c 0
 226 581 245 589 260 605 c 0
 275 618 284 634 290 653 c 1
 292 678 l 1
 291 687 288 696 283 704 c 1
 271 718 254 724 232 724 c 0
EndSplineSet
EndChar
StartChar: uni0E22
Encoding: 194 3618 163
OldEncoding: 3618
Width: 759
Flags: W
HStem: -1 84<85 420> 328 86<294 313> 529 69<268 283> 732 68<311 328> 765 20G<627 724>
DStem: 12 191 109 191 -31 -1 85 83 627 785 724 785 488 149 586 149
Fore
181 372 m 1
 136 387 107 413 91 450 c 0
 83 467 78 486 76 506 c 0
 74 524 76 547 81 573 c 0
 93 632 123 684 170 730 c 0
 218 777 271 800 328 800 c 0
 369 800 399 787 419 761 c 0
 431 744 438 727 439 710 c 0
 441 693 439 678 434 663 c 0
 426 624 407 593 377 568 c 0
 344 542 308 529 268 529 c 0
 239 529 218 534 203 545 c 0
 190 556 181 565 178 573 c 1
 172 549 170 530 172 518 c 0
 174 492 186 470 203 452 c 1
 236 426 272 414 313 414 c 1
 296 328 l 1
 243 328 201 315 170 290 c 0
 139 266 119 232 109 191 c 2
 85 83 l 1
 403 83 l 2
 433 83 454 87 464 96 c 0
 472 101 480 119 488 149 c 1
 627 785 l 1
 724 785 l 1
 586 149 l 1
 570 84 549 43 524 27 c 1
 498 8 451 -1 383 -1 c 2
 -31 -1 l 1
 12 191 l 1
 19 228 32 260 51 286 c 0
 70 311 90 328 107 339 c 2
 153 365 l 1
 181 372 l 1
283 598 m 0
 328 600 356 623 364 666 c 1
 367 688 l 1
 366 699 363 707 357 714 c 0
 349 726 334 732 313 732 c 0
 293 732 275 726 260 714 c 0
 247 702 238 686 232 666 c 1
 230 644 l 1
 231 634 234 626 239 619 c 0
 249 605 264 598 283 598 c 0
EndSplineSet
EndChar
StartChar: uni0E23
Encoding: 195 3619 164
OldEncoding: 3619
Width: 672
Flags: W
HStem: -14 71<296 315> 199 72<342 359> 653 85<592 613> 724 77<330 352>
DStem: 427 382 525 386 401 263 467 125
Fore
525 386 m 1
 467 125 l 1
 458 84 438 50 405 22 c 0
 373 -2 337 -14 296 -14 c 0
 251 -14 219 1 199 30 c 0
 188 46 182 64 180 83 c 0
 179 98 180 112 185 127 c 0
 192 164 212 197 246 229 c 1
 279 257 317 271 357 271 c 0
 368 271 382 268 401 263 c 1
 427 382 l 1
 434 424 437 454 435 472 c 2
 435 477 l 1
 429 501 420 518 405 527 c 0
 387 536 363 546 332 556 c 0
 282 570 228 582 168 592 c 2
 46 613 l 1
 90 668 138 712 189 748 c 0
 244 783 297 801 350 801 c 0
 382 801 409 798 430 793 c 0
 466 781 490 773 501 768 c 2
 565 744 l 1
 581 740 597 738 613 738 c 0
 641 738 670 744 698 757 c 1
 698 675 l 1
 661 660 624 653 592 653 c 0
 569 653 550 655 537 660 c 2
 468 687 l 1
 394 715 l 2
 377 721 357 724 333 724 c 0
 311 724 285 718 254 706 c 1
 224 692 208 680 201 671 c 1
 201 671 l 1
 406 618 l 2
 476 600 517 575 529 541 c 1
 535 514 l 2
 540 486 536 443 525 386 c 1
313 57 m 0
 337 57 356 64 370 79 c 0
 386 94 395 111 399 130 c 1
 402 152 l 1
 401 163 398 171 392 178 c 0
 384 192 368 199 344 199 c 0
 321 199 303 192 288 178 c 0
 273 162 263 146 256 130 c 1
 257 106 l 1
 258 96 261 88 265 81 c 1
 274 65 289 57 313 57 c 0
EndSplineSet
EndChar
StartChar: uni0E24
Encoding: 196 3620 165
OldEncoding: 3620
Width: 784
Flags: W
HStem: 9 71<194 213> 221 72<235 257> 740 84<477 511>
DStem: 139 413 237 418 82 152 207 283 665 568 762 568 457 -387 554 -387
Fore
82 152 m 1
 139 413 l 1
 146 455 162 490 189 520 c 1
 214 545 240 562 267 573 c 1
 260 581 243 593 215 610 c 0
 186 628 151 638 110 641 c 1
 145 677 193 716 255 756 c 0
 326 801 407 824 501 824 c 0
 558 824 610 814 658 795 c 0
 701 778 732 749 752 709 c 0
 761 696 766 677 768 652 c 0
 771 625 769 598 762 568 c 2
 554 -387 l 1
 457 -387 l 1
 665 568 l 1
 668 586 669 602 667 617 c 1
 669 632 665 646 656 659 c 1
 641 686 619 706 589 719 c 0
 560 733 526 740 488 740 c 0
 405 740 328 714 255 663 c 1
 269 661 290 653 320 638 c 0
 346 625 372 606 399 578 c 1
 376 573 347 559 313 537 c 0
 275 512 249 472 237 418 c 2
 207 283 l 1
 215 290 230 293 257 293 c 0
 302 293 333 280 350 252 c 0
 360 235 367 218 369 203 c 0
 371 185 369 168 365 152 c 0
 356 114 336 81 306 53 c 0
 275 24 238 9 194 9 c 0
 154 9 122 22 100 48 c 0
 87 64 80 81 78 102 c 0
 77 118 78 135 82 152 c 1
211 80 m 0
 234 80 252 87 266 102 c 0
 284 118 295 135 298 152 c 1
 298 173 l 1
 297 185 294 194 288 201 c 0
 277 215 261 221 240 221 c 0
 217 221 198 215 184 201 c 0
 167 187 157 170 154 152 c 1
 152 129 l 1
 154 117 157 108 162 102 c 0
 170 87 187 80 211 80 c 0
EndSplineSet
EndChar
StartChar: uni0E25
Encoding: 197 3621 166
OldEncoding: 3621
Width: 763
Flags: W
HStem: -14 69<137 154> 0 21G<462 559> 199 72<182 200> 497 81<278 292> 724 77<402 429>
DStem: 580 541 678 541 521 271 559 0
Fore
278 497 m 1
 209 490 164 432 141 324 c 1
 128 252 l 1
 152 263 l 2
 162 268 178 271 200 271 c 0
 243 271 274 257 295 229 c 0
 306 212 313 195 314 178 c 0
 316 162 315 145 312 130 c 1
 298 84 277 50 248 28 c 1
 218 0 180 -14 137 -14 c 0
 91 -14 60 1 42 30 c 0
 30 49 22 71 19 97 c 1
 20 132 l 1
 27 191 38 257 54 329 c 0
 69 396 96 452 137 499 c 0
 175 545 223 571 280 578 c 1
 342 578 390 558 426 518 c 0
 460 478 484 430 497 375 c 1
 521 271 l 1
 580 541 l 1
 586 570 588 591 587 604 c 0
 583 633 571 657 551 675 c 0
 517 708 468 724 404 724 c 0
 301 724 209 682 130 599 c 1
 79 647 l 1
 109 686 156 721 221 755 c 1
 288 785 358 801 427 801 c 0
 516 801 585 778 635 733 c 1
 664 704 682 670 686 629 c 0
 689 600 686 571 678 541 c 1
 559 0 l 1
 462 0 l 1
 468 25 469 67 465 125 c 1
 463 139 l 2
 457 197 448 249 436 293 c 0
 422 345 401 394 370 439 c 0
 345 478 314 497 278 497 c 1
184 199 m 0
 160 199 141 192 126 178 c 0
 110 162 101 145 97 127 c 1
 94 104 l 1
 95 94 98 86 104 79 c 0
 112 63 129 55 152 55 c 0
 175 55 194 63 211 79 c 0
 225 92 235 109 240 127 c 1
 242 152 l 1
 241 163 237 171 232 178 c 0
 222 192 205 199 184 199 c 0
EndSplineSet
EndChar
StartChar: uni0E26
Encoding: 198 3622 167
OldEncoding: 3622
Width: 879
Flags: W
HStem: 9 71<99 120> 221 72<145 162> 740 84<578 600>
DStem: 236 413 332 418 207 283 274 148 760 568 855 568 551 -387 648 -387
Fore
207 283 m 1
 236 413 l 1
 240 440 250 467 266 495 c 1
 283 520 299 537 312 546 c 0
 325 555 342 564 362 573 c 1
 355 581 338 593 309 610 c 0
 280 628 244 638 203 641 c 1
 237 675 287 714 352 756 c 1
 426 801 508 824 598 824 c 0
 693 824 764 802 812 758 c 0
 842 732 859 697 863 654 c 0
 866 629 863 601 855 568 c 1
 648 -387 l 1
 551 -387 l 1
 760 568 l 1
 765 583 766 599 764 617 c 0
 762 635 758 649 751 659 c 1
 739 686 718 706 686 719 c 1
 659 733 625 740 585 740 c 0
 502 740 425 714 352 663 c 1
 366 661 387 653 417 638 c 0
 442 625 468 605 493 578 c 1
 471 573 442 559 408 537 c 0
 369 512 344 472 332 418 c 1
 274 148 l 1
 268 107 248 75 216 51 c 1
 184 23 145 9 99 9 c 0
 57 9 27 23 8 51 c 0
 -4 66 -11 83 -13 104 c 0
 -15 119 -13 135 -11 152 c 1
 -1 192 20 225 51 252 c 0
 85 280 121 293 162 293 c 0
 185 293 201 290 207 283 c 1
118 80 m 0
 143 80 162 87 175 102 c 0
 191 117 201 134 205 152 c 1
 207 175 l 1
 205 186 203 194 198 201 c 0
 187 215 170 221 147 221 c 0
 124 221 105 215 91 201 c 0
 76 185 65 169 59 152 c 1
 59 131 l 1
 60 120 63 111 69 104 c 1
 77 88 93 80 118 80 c 0
EndSplineSet
EndChar
StartChar: uni0E27
Encoding: 199 3623 168
OldEncoding: 3623
Width: 719
Flags: W
HStem: -14 71<370 388> 199 72<411 432> 724 77<358 387>
DStem: 534 541 629 541 476 263 541 130
Fore
629 541 m 1
 541 130 l 2
 533 91 515 58 486 30 c 1
 461 1 422 -14 371 -14 c 0
 326 -14 295 0 276 28 c 0
 265 44 260 61 257 81 c 0
 256 96 256 112 258 130 c 0
 265 167 285 200 317 229 c 0
 348 257 387 271 432 271 c 0
 445 271 460 268 476 263 c 1
 534 541 l 2
 539 568 541 591 539 609 c 0
 536 636 527 659 511 678 c 1
 480 709 433 724 367 724 c 0
 316 724 265 711 214 684 c 0
 170 662 131 631 96 592 c 1
 47 640 l 1
 65 661 93 688 133 720 c 1
 165 741 204 761 250 777 c 0
 295 793 340 801 385 801 c 0
 475 801 544 778 591 731 c 1
 617 703 633 669 637 629 c 0
 640 600 637 571 629 541 c 1
413 199 m 0
 392 199 374 192 360 178 c 0
 343 161 333 145 327 130 c 1
 326 106 l 1
 327 96 330 88 335 81 c 0
 345 65 361 57 384 57 c 0
 409 57 428 64 442 79 c 0
 457 93 466 110 469 130 c 1
 471 152 l 1
 464 178 l 1
 456 192 439 199 413 199 c 0
EndSplineSet
EndChar
StartChar: uni0E28
Encoding: 200 3624 169
OldEncoding: 3624
Width: 792
Flags: W
HStem: -3 21G<48 143 480 578> 326 69<303 321> 538 72<348 366> 726 77<397 424>
DStem: 79 138 222 353 48 -3 143 -3 597 522 696 531 480 -3 578 -3
Fore
665 712 m 1
 702 761 l 1
 748 832 l 1
 823 788 l 1
 804 752 783 723 759 701 c 0
 733 675 712 654 696 640 c 1
 700 615 l 1
 703 590 702 562 696 531 c 1
 578 -3 l 1
 480 -3 l 1
 597 522 l 2
 600 534 602 551 603 573 c 1
 542 540 l 2
 518 527 496 518 477 513 c 1
 477 492 l 1
 474 460 l 1
 467 424 447 392 413 365 c 0
 380 339 344 326 303 326 c 0
 262 326 235 335 222 353 c 1
 143 -3 l 1
 48 -3 l 1
 79 138 l 2
 86 169 89 194 87 212 c 0
 86 220 83 226 81 231 c 1
 78 248 66 281 49 328 c 0
 32 368 23 401 17 427 c 1
 16 439 l 2
 14 459 17 487 23 522 c 0
 37 582 64 633 104 675 c 0
 145 718 193 750 249 770 c 0
 311 792 369 803 422 803 c 0
 532 803 613 773 665 712 c 1
583 638 m 1
 575 653 557 672 528 693 c 0
 500 715 459 726 404 726 c 0
 366 726 328 720 293 708 c 0
 257 696 221 674 185 640 c 0
 150 610 127 569 117 518 c 0
 112 501 111 481 114 458 c 1
 120 423 l 1
 131 365 l 1
 133 339 l 1
 147 414 l 1
 160 468 185 515 224 555 c 1
 262 592 309 610 366 610 c 0
 388 610 405 608 417 604 c 1
 431 595 441 588 448 580 c 2
 458 569 l 1
 478 575 498 584 519 596 c 1
 583 638 l 1
350 538 m 0
 327 538 307 531 292 518 c 0
 277 504 268 487 263 467 c 1
 261 443 l 1
 262 434 265 425 270 418 c 1
 278 403 294 395 319 395 c 0
 342 395 362 403 376 418 c 0
 392 433 403 449 407 467 c 1
 408 492 l 1
 407 502 404 511 399 518 c 0
 390 531 374 538 350 538 c 0
EndSplineSet
EndChar
StartChar: uni0E29
Encoding: 201 3625 170
OldEncoding: 3625
Width: 872
Flags: W
HStem: -1 84<14 509> 284 71<545 581.517> 503 61<475 495> 511 69<160 175> 724 72<203 223> 766 20G<716 814>
DStem: 206 518 333 652 110 83 207 83 608 288 712 319 578 149 675 149 716 786 814 786 622 357 727 395
Fore
712 319 m 1
 675 149 l 1
 659 84 638 43 613 27 c 1
 589 9 542 -1 473 -1 c 2
 -4 -1 l 1
 15 83 l 1
 110 83 l 1
 206 518 l 1
 191 513 176 511 160 511 c 0
 115 511 84 526 66 555 c 1
 53 570 46 589 44 611 c 0
 42 625 44 640 48 655 c 1
 55 693 75 726 107 754 c 0
 140 782 178 796 223 796 c 0
 249 796 272 789 291 777 c 0
 310 765 323 748 332 726 c 1
 337 705 l 1
 339 686 338 668 333 652 c 1
 207 83 l 1
 492 83 l 2
 522 83 543 87 553 96 c 0
 561 102 569 119 578 149 c 1
 608 288 l 1
 591 285 570 284 545 284 c 0
 482 286 431 299 390 321 c 0
 360 338 344 363 340 397 c 1
 341 439 l 1
 351 473 369 502 393 525 c 0
 419 551 453 564 495 564 c 0
 537 564 567 552 584 529 c 1
 594 514 599 499 600 483 c 0
 601 472 601 458 599 441 c 1
 588 402 569 373 542 355 c 1
 622 357 l 1
 716 786 l 1
 814 786 l 1
 727 395 l 1
 744 404 764 422 787 450 c 0
 809 476 825 511 836 555 c 1
 912 555 l 1
 896 484 871 434 839 404 c 0
 805 374 763 346 712 319 c 1
454 379 m 0
 469 379 481 382 489 388 c 0
 501 395 511 403 518 412 c 0
 523 419 527 429 531 441 c 1
 532 465 l 1
 531 474 528 481 524 485 c 1
 515 497 501 503 482 503 c 0
 465 503 448 497 431 485 c 0
 418 475 410 460 406 441 c 2
 404 423 l 1
 405 412 408 404 413 397 c 0
 422 385 435 379 454 379 c 0
205 724 m 0
 182 724 164 717 149 703 c 0
 132 685 121 668 117 652 c 1
 115 629 l 1
 116 619 120 611 125 604 c 0
 134 588 151 580 173 580 c 0
 198 580 217 588 231 604 c 1
 248 617 258 633 260 652 c 1
 263 677 l 1
 262 686 259 695 253 703 c 0
 245 717 229 724 205 724 c 0
EndSplineSet
EndChar
StartChar: uni0E2A
Encoding: 202 3626 171
OldEncoding: 3626
Width: 759
Flags: W
HStem: -18 69<122 139> -4 21G<445 542> 195 72<161 184> 493 82<262 275> 720 77<385 419>
DStem: 565 537 663 537 505 267 542 -4
Fore
169 195 m 0
 144 195 124 188 111 175 c 0
 94 159 85 143 81 124 c 1
 78 100 l 1
 80 90 82 82 88 75 c 1
 96 59 112 51 137 51 c 0
 162 51 181 59 194 75 c 1
 210 89 219 105 224 124 c 1
 226 149 l 1
 225 159 221 168 217 175 c 0
 208 188 193 195 169 195 c 0
560 632 m 1
 558 625 538 601 500 561 c 0
 461 522 440 498 438 489 c 1
 450 471 463 445 474 411 c 1
 495 327 l 1
 505 267 l 1
 565 537 l 2
 569 556 569 576 567 597 c 1
 560 632 l 1
410 544 m 2
 410 544 430 567 471 612 c 1
 532 676 l 1
 502 706 455 720 391 720 c 0
 286 720 194 679 114 595 c 1
 63 643 l 1
 93 682 141 718 204 751 c 1
 272 782 340 797 410 797 c 0
 479 797 538 783 586 755 c 1
 589 755 607 773 638 808 c 0
 669 844 689 862 698 862 c 1
 718 848 l 1
 746 822 l 2
 752 816 757 810 757 804 c 2
 758 802 l 1
 689 738 l 1
 658 714 642 701 643 698 c 1
 657 675 666 650 669 623 c 0
 671 601 669 573 663 537 c 1
 542 -4 l 1
 445 -4 l 1
 452 21 453 63 449 121 c 1
 448 135 l 2
 442 187 432 239 417 290 c 0
 401 349 380 397 353 436 c 1
 329 474 299 493 262 493 c 1
 192 486 145 429 122 320 c 1
 112 248 l 1
 137 259 l 2
 146 265 162 267 184 267 c 0
 227 267 258 253 278 225 c 0
 289 209 297 192 299 175 c 0
 301 156 298 140 294 126 c 0
 282 81 262 48 232 24 c 1
 200 -4 164 -18 122 -18 c 0
 76 -18 44 -3 26 26 c 0
 13 47 5 69 2 93 c 1
 2 128 l 1
 10 192 21 258 37 325 c 0
 55 393 83 450 121 495 c 0
 159 541 207 568 265 575 c 1
 312 575 345 569 367 556 c 1
 376 554 l 1
 397 549 l 1
 410 544 l 2
EndSplineSet
EndChar
StartChar: uni0E2B
Encoding: 203 3627 172
OldEncoding: 3627
Width: 871
Flags: W
HStem: -1 21G<90 187 567 664> 511 69<159 175> 724 72<202 222 681 699>
DStem: 206 518 332 652 90 -1 251 293 651 372 746 372 567 -1 664 -1
Fore
90 -1 m 1
 206 518 l 1
 191 513 175 511 159 511 c 0
 114 511 83 526 65 555 c 1
 52 570 45 589 43 611 c 0
 41 625 43 640 47 655 c 1
 54 693 74 726 106 754 c 0
 139 782 178 796 222 796 c 0
 248 796 272 789 291 777 c 0
 309 765 322 748 332 726 c 1
 336 705 l 1
 338 686 337 668 332 652 c 1
 251 293 l 1
 293 360 344 414 406 455 c 1
 470 499 517 528 547 540 c 1
 528 559 517 580 515 604 c 0
 513 622 515 638 520 652 c 1
 529 688 550 722 583 754 c 1
 616 782 654 796 699 796 c 0
 743 796 776 782 795 754 c 1
 806 736 811 719 813 703 c 0
 815 685 814 669 809 655 c 0
 804 630 792 606 775 582 c 1
 753 556 729 538 705 529 c 1
 718 525 730 510 743 485 c 1
 749 478 752 467 753 452 c 0
 756 428 754 401 746 372 c 1
 664 -1 l 1
 567 -1 l 1
 651 372 l 1
 657 397 660 418 658 436 c 0
 657 449 654 458 648 465 c 0
 637 481 627 492 617 496 c 1
 507 447 413 376 336 284 c 0
 259 192 211 107 193 30 c 1
 187 -1 l 1
 90 -1 l 1
683 726 m 0
 661 726 641 719 628 705 c 0
 608 690 597 673 593 655 c 1
 592 633 l 1
 593 624 597 615 602 606 c 0
 613 590 629 582 652 582 c 0
 677 582 696 590 709 606 c 1
 725 620 734 636 736 655 c 1
 739 679 l 1
 731 705 l 1
 723 719 707 726 683 726 c 0
204 724 m 0
 181 724 163 717 148 703 c 0
 131 685 120 668 116 652 c 1
 114 626 l 1
 115 618 119 611 124 604 c 0
 134 588 150 580 173 580 c 0
 198 580 217 588 231 604 c 1
 247 617 257 633 260 652 c 1
 262 677 l 1
 261 686 258 695 252 703 c 0
 245 717 228 724 204 724 c 0
EndSplineSet
EndChar
StartChar: uni0E2C
Encoding: 204 3628 173
OldEncoding: 3628
Width: 930
Flags: W
HStem: -27 20G<609 609> -7 21G<609 708> 505 69<129 148> 650 67<748 756> 717 72<171 191> 838 62<776 795>
DStem: 174 511 299 646 61 -7 212 245 510 549 556 745 618 90 665 245 556 745 510 549 212 245 199 90 756 650 855 669 665 245 708 -7
Fore
61 -7 m 1
 174 511 l 1
 164 507 148 505 129 505 c 0
 84 505 53 519 34 549 c 1
 22 563 15 582 13 604 c 0
 11 618 12 633 17 648 c 0
 25 685 46 718 78 748 c 0
 111 776 149 789 191 789 c 0
 216 789 241 783 263 770 c 1
 279 760 291 743 298 719 c 1
 303 699 l 1
 305 679 303 662 299 646 c 1
 212 245 l 1
 556 745 l 1
 665 245 l 1
 756 650 l 1
 704 650 669 663 652 687 c 0
 640 701 634 716 632 733 c 0
 630 750 632 766 638 779 c 1
 646 813 665 842 695 865 c 0
 726 889 758 900 795 900 c 0
 828 900 855 888 874 863 c 1
 883 848 889 832 890 814 c 0
 892 798 891 782 886 766 c 1
 897 770 915 782 938 801 c 0
 961 820 981 846 997 876 c 1
 1054 838 l 1
 1033 798 1001 762 957 728 c 0
 912 695 878 675 855 669 c 1
 708 -7 l 1
 609 -7 l 1
 609 -7 l 1
 611 11 l 1
 619 53 l 1
 618 90 l 1
 510 549 l 1
 199 90 l 1
 184 67 175 50 171 39 c 1
 158 -7 l 1
 61 -7 l 1
177 717 m 0
 153 717 133 710 119 697 c 0
 103 682 93 666 89 646 c 1
 88 622 l 1
 89 612 92 604 96 597 c 1
 104 582 121 574 146 574 c 0
 169 574 187 582 200 597 c 1
 217 611 228 627 232 646 c 1
 234 671 l 1
 234 680 231 689 225 697 c 0
 214 710 199 717 177 717 c 0
751 717 m 0
 767 717 783 723 800 735 c 1
 811 749 818 763 820 777 c 1
 822 801 l 1
 816 821 l 1
 808 832 795 838 777 838 c 0
 760 838 745 832 731 819 c 0
 718 808 710 794 704 777 c 1
 702 759 l 1
 703 751 706 744 712 735 c 0
 720 723 734 717 751 717 c 0
EndSplineSet
EndChar
StartChar: uni0E2D
Encoding: 205 3629 174
OldEncoding: 3629
Width: 784
Flags: W
HStem: -1 84<159 444> 279 71<203 217> 492 72<245 266> 726 74<418 444>
DStem: 89 420 158 288 29 149 126 149 599 540 696 540 512 149 609 149
Fore
158 288 m 1
 126 149 l 1
 123 133 122 121 123 112 c 0
 124 104 126 99 129 96 c 0
 135 87 152 83 181 83 c 2
 424 83 l 2
 456 83 477 87 488 96 c 1
 497 102 505 120 512 149 c 2
 599 540 l 1
 603 567 605 588 604 603 c 0
 600 633 589 657 568 675 c 1
 534 709 486 726 422 726 c 0
 320 728 228 685 145 598 c 1
 97 646 l 1
 127 685 173 721 239 754 c 1
 305 785 373 800 442 800 c 0
 500 800 551 790 595 770 c 0
 639 748 669 719 686 681 c 0
 694 667 698 649 700 626 c 0
 703 600 702 571 696 540 c 1
 609 149 l 2
 595 86 576 45 551 27 c 0
 523 8 475 -1 408 -1 c 2
 165 -1 l 2
 121 -1 87 3 62 10 c 0
 40 17 28 31 24 52 c 1
 19 63 l 1
 17 81 21 109 29 149 c 1
 89 420 l 1
 95 445 104 465 115 480 c 0
 132 506 151 525 173 538 c 1
 197 555 228 564 266 564 c 0
 309 564 340 550 360 522 c 0
 371 506 378 489 380 469 c 0
 381 452 380 437 376 423 c 1
 368 382 348 348 316 321 c 1
 285 293 249 279 205 279 c 0
 193 279 176 282 158 288 c 1
215 350 m 0
 238 350 257 358 274 374 c 1
 289 385 299 401 303 420 c 1
 305 445 l 1
 304 456 301 464 295 471 c 0
 287 485 271 492 247 492 c 0
 223 492 204 486 189 474 c 1
 174 459 165 442 160 423 c 1
 157 397 l 1
 158 387 162 379 167 372 c 0
 178 358 194 350 215 350 c 0
EndSplineSet
EndChar
StartChar: uni0E2E
Encoding: 206 3630 175
OldEncoding: 3630
Width: 776
Flags: W
HStem: -1 84<152 426> 202 70<175 192> 416 71<216 237> 524 79<328 378> 728 72<376 426>
DStem: 598 582 699 612 502 149 599 149
Fore
18 149 m 1
 60 341 l 1
 68 373 86 406 116 438 c 0
 143 471 185 487 237 487 c 0
 282 487 313 473 332 445 c 0
 343 429 349 411 351 392 c 0
 352 378 352 363 349 346 c 0
 343 309 323 275 290 244 c 1
 257 216 219 202 175 202 c 0
 158 202 142 205 130 211 c 1
 115 149 l 1
 113 133 111 121 112 112 c 0
 113 104 116 99 119 96 c 0
 124 87 141 83 171 83 c 2
 414 83 l 2
 445 83 467 87 477 96 c 1
 487 102 495 120 502 149 c 2
 598 582 l 1
 575 567 541 553 493 542 c 0
 436 530 388 524 350 524 c 0
 278 524 218 536 167 559 c 0
 125 577 103 601 100 630 c 1
 102 656 l 1
 111 689 131 716 163 737 c 0
 196 758 237 774 282 785 c 0
 326 795 368 800 408 800 c 0
 465 800 514 793 553 781 c 0
 587 770 617 755 642 737 c 1
 662 723 672 715 672 714 c 1
 672 714 l 1
 707 742 740 772 771 804 c 1
 825 751 l 1
 796 719 770 694 747 677 c 2
 694 639 l 1
 697 636 699 632 699 626 c 1
 699 612 l 1
 599 149 l 1
 585 86 565 45 541 27 c 0
 512 8 465 -1 397 -1 c 2
 154 -1 l 2
 110 -1 76 2 51 10 c 0
 30 17 17 31 13 52 c 1
 9 63 l 1
 8 80 11 109 18 149 c 1
366 603 m 0
 408 603 445 608 479 617 c 1
 516 624 544 632 559 639 c 2
 592 656 l 1
 585 666 565 682 534 703 c 1
 503 719 455 728 392 728 c 0
 346 728 305 722 266 712 c 0
 227 700 205 683 201 661 c 1
 199 652 l 1
 203 619 259 603 366 603 c 0
190 272 m 0
 213 272 232 279 246 292 c 1
 261 310 272 327 276 343 c 1
 277 372 l 1
 271 394 l 1
 259 408 243 416 222 416 c 0
 198 416 179 408 165 394 c 1
 148 382 137 365 132 343 c 1
 132 321 l 1
 134 309 137 299 142 292 c 0
 151 279 166 272 190 272 c 0
EndSplineSet
EndChar
StartChar: uni0E2F
Encoding: 207 3631 176
OldEncoding: 3631
Width: 720
Flags: W
HStem: 354 86<260 290> 522 67<222 242> 730 72<256 278> 767 20G<591 689>
DStem: 532 517 689 787 474 255 573 246
Fore
276 802 m 0
 320 802 352 789 373 762 c 1
 382 743 388 727 389 711 c 0
 391 693 390 677 385 663 c 0
 376 625 358 593 328 566 c 0
 298 536 263 522 224 522 c 0
 201 522 185 525 174 531 c 2
 153 542 l 1
 158 513 171 490 192 471 c 0
 213 450 242 440 281 440 c 0
 324 440 366 456 409 489 c 0
 454 524 492 567 523 617 c 0
 558 670 581 727 591 787 c 1
 689 787 l 1
 573 246 l 1
 555 168 522 107 473 65 c 0
 424 23 354 -9 261 -30 c 1
 259 58 l 1
 332 75 383 97 412 124 c 1
 438 146 459 189 474 255 c 1
 532 517 l 1
 497 462 459 422 413 396 c 0
 364 368 316 354 268 354 c 0
 216 354 171 369 133 398 c 0
 93 429 70 467 65 515 c 2
 65 517 l 1
 66 546 68 574 72 600 c 0
 84 657 107 705 141 743 c 0
 174 782 219 802 276 802 c 0
233 589 m 0
 257 589 276 595 292 610 c 0
 306 624 317 641 321 661 c 1
 322 681 l 1
 321 693 318 702 312 709 c 0
 305 723 288 730 264 730 c 0
 241 730 223 723 208 709 c 0
 198 697 188 681 182 661 c 1
 179 635 l 1
 187 610 l 1
 195 595 211 589 233 589 c 0
EndSplineSet
EndChar
StartChar: uni0E30
Encoding: 208 3632 177
OldEncoding: 3632
Width: 603
Flags: W
HStem: -1 88<80 137> 222 62<110 123> 515 88<194 249> 737 63<220 238> 765 20G<505 602>
Fore
249 515 m 0
 177 515 127 530 99 559 c 1
 80 576 70 597 67 624 c 0
 66 635 67 648 70 663 c 0
 77 699 97 731 129 761 c 1
 163 787 199 800 236 800 c 0
 283 800 315 788 334 763 c 1
 344 746 350 730 352 714 c 0
 353 700 352 686 349 672 c 0
 341 643 325 616 301 591 c 1
 327 591 364 603 411 626 c 1
 457 652 489 705 505 785 c 1
 602 785 l 1
 590 723 568 674 537 637 c 1
 509 600 468 569 416 545 c 0
 369 525 313 515 249 515 c 0
137 -1 m 0
 66 -1 17 14 -11 43 c 1
 -31 61 -43 83 -45 107 c 0
 -47 120 -46 133 -43 147 c 0
 -34 183 -14 215 17 242 c 0
 50 272 86 286 123 284 c 0
 153 284 179 277 200 262 c 0
 219 250 230 235 234 217 c 2
 239 198 l 1
 241 184 239 170 237 156 c 0
 231 127 214 101 189 76 c 1
 217 76 254 88 298 112 c 0
 344 135 376 188 394 270 c 1
 491 270 l 1
 475 208 452 158 423 122 c 0
 390 81 350 50 300 29 c 0
 257 9 202 -1 137 -1 c 0
110 222 m 0
 91 222 72 215 55 202 c 1
 41 190 33 173 31 154 c 2
 28 133 l 1
 29 123 33 114 38 107 c 0
 46 94 60 87 80 87 c 0
 102 87 120 93 135 105 c 1
 147 119 157 135 163 154 c 1
 165 180 l 1
 164 188 160 196 156 202 c 0
 145 215 130 222 110 222 c 0
222 737 m 0
 203 737 185 731 170 719 c 0
 158 707 148 690 143 670 c 1
 141 649 l 1
 142 639 145 631 149 624 c 0
 159 610 174 603 194 603 c 0
 215 603 233 610 247 624 c 1
 261 634 270 649 273 670 c 0
 276 681 277 690 277 697 c 0
 274 724 256 737 222 737 c 0
EndSplineSet
EndChar
StartChar: uni0E31
Encoding: 209 3633 178
OldEncoding: 3633
Width: 0
Flags: W
HStem: 1107 67<-342 -323>
Fore
-492 1021 m 1
 -484 1066 -465 1102 -435 1130 c 0
 -407 1159 -369 1174 -323 1174 c 0
 -281 1174 -251 1160 -231 1134 c 0
 -221 1118 -214 1101 -212 1081 c 0
 -210 1069 -211 1056 -214 1041 c 0
 -221 1004 -243 971 -281 942 c 1
 -240 935 l 1
 -201 931 l 1
 -153 933 -108 943 -65 961 c 1
 -19 978 22 1003 58 1037 c 1
 97 1069 126 1107 147 1151 c 1
 218 1112 l 1
 193 1067 158 1025 113 984 c 0
 73 949 22 918 -43 889 c 0
 -107 863 -166 849 -224 849 c 0
 -298 847 -364 860 -423 889 c 0
 -466 911 -489 942 -493 984 c 1
 -492 1021 l 1
-370 973 m 0
 -352 973 -334 979 -317 991 c 1
 -305 1003 -296 1020 -291 1039 c 1
 -289 1067 l 1
 -288 1073 -290 1080 -296 1088 c 0
 -305 1101 -319 1107 -340 1107 c 0
 -357 1107 -375 1101 -393 1088 c 0
 -408 1076 -417 1060 -423 1039 c 1
 -423 1019 l 1
 -422 1008 -419 999 -412 993 c 1
 -405 979 -390 973 -370 973 c 0
EndSplineSet
EndChar
StartChar: uni0E32
Encoding: 210 3634 179
OldEncoding: 3634
Width: 642
Flags: W
HStem: -1 21G<337 435> 728 72<323 344>
DStem: 463 573 560 568 337 -1 435 -1
Fore
38 626 m 1
 78 682 122 725 168 756 c 0
 213 785 272 800 342 800 c 0
 421 800 482 780 523 739 c 0
 548 713 561 683 565 649 c 0
 567 625 566 598 560 568 c 1
 435 -1 l 1
 337 -1 l 1
 463 573 l 2
 467 591 468 609 466 628 c 0
 463 652 455 672 442 688 c 1
 415 715 375 728 325 728 c 0
 279 728 238 715 200 690 c 0
 162 666 129 633 101 591 c 1
 70 610 l 1
 38 626 l 1
EndSplineSet
EndChar
StartChar: uni0E33
Encoding: 211 3635 180
OldEncoding: 3635
Width: 661
Flags: W
HStem: -25 21G<293 390> 704 72<275 297> 907 63<-141 -123> 1128 62<-95 -78>
DStem: 416 549 514 545 293 -25 390 -25
Fore
-138 907 m 4
 -182 907 -214 921 -234 949 c 0
 -245 966 -250 983 -252 1000 c 0
 -254 1018 -253 1034 -248 1049 c 1
 -240 1089 -222 1122 -192 1148 c 0
 -161 1176 -122 1190 -78 1190 c 0
 -33 1190 -1 1176 18 1148 c 1
 29 1135 36 1119 38 1099 c 0
 40 1083 38 1066 34 1049 c 0
 24 1009 3 976 -28 949 c 0
 -61 921 -98 907 -138 907 c 4
-7 602 m 1
 35 660 78 703 125 732 c 0
 170 762 227 776 295 776 c 0
 374 776 436 756 478 715 c 1
 502 690 517 660 520 625 c 0
 523 600 521 573 514 545 c 1
 390 -25 l 1
 293 -25 l 1
 416 549 l 1
 423 570 425 589 423 605 c 0
 421 629 412 649 395 664 c 0
 370 691 333 704 283 704 c 0
 235 704 192 692 155 667 c 0
 117 643 85 610 56 567 c 1
 24 586 l 1
 -7 602 l 1
-93 1128 m 0
 -120 1128 -139 1120 -152 1104 c 1
 -170 1090 -181 1071 -186 1049 c 1
 -185 1022 l 1
 -178 993 l 1
 -170 978 -153 970 -127 970 c 0
 -111 970 -96 974 -82 982 c 0
 -70 987 -58 997 -45 1012 c 0
 -39 1022 -34 1034 -29 1049 c 1
 -27 1077 l 1
 -28 1086 -32 1095 -37 1104 c 0
 -47 1120 -66 1128 -93 1128 c 0
EndSplineSet
EndChar
StartChar: uni0E34
Encoding: 212 3636 181
OldEncoding: 3636
Width: 0
Flags: W
HStem: 920 67<-460 -369> 1098 72<-283 -249>
DStem: -369 989 -369 989 -460 987 -290 987
Fore
-249 1170 m 1
 -149 1156 -84 1117 -57 1051 c 0
 -37 1006 -23 955 -17 899 c 1
 -13 841 l 1
 -127 881 l 1
 -165 893 -221 904 -292 913 c 0
 -332 918 -375 920 -418 920 c 2
 -556 916 l 1
 -645 903 l 1
 -628 948 -598 992 -557 1035 c 0
 -516 1078 -471 1111 -419 1133 c 1
 -370 1157 -313 1170 -249 1170 c 1
-283 1098 m 1
 -331 1098 -377 1086 -421 1061 c 1
 -469 1033 -497 1006 -507 982 c 1
 -460 987 l 1
 -369 989 l 1
 -290 987 l 1
 -231 982 -187 973 -156 960 c 0
 -130 950 -110 940 -96 929 c 1
 -117 1026 -180 1082 -283 1098 c 1
EndSplineSet
EndChar
StartChar: uni0E35
Encoding: 213 3637 182
OldEncoding: 3637
Width: 0
Flags: W
HStem: 915 67<-468 -376> 1092 73<-293 -259>
DStem: -376 984 -376 984 -468 982 -297 982 -44 1257 42 1257 -85 1074 -28 935
Fore
-85 1074 m 5
 -44 1257 l 5
 42 1257 l 5
 -28 935 l 5
 -28 935 l 5
 -24 910 l 5
 -22 892 -21 867 -22 836 c 5
 -56 849 -93 862 -134 875 c 4
 -172 887 -227 898 -298 908 c 4
 -338 913 -381 915 -427 915 c 4
 -490 915 -537 913 -566 910 c 4
 -554 911 -583 907 -653 898 c 5
 -636 942 -607 986 -565 1030 c 4
 -528 1071 -480 1104 -426 1130 c 4
 -374 1153 -318 1165 -259 1165 c 5
 -222 1160 -191 1151 -165 1136 c 5
 -144 1127 -125 1115 -109 1100 c 4
 -96 1089 -89 1080 -85 1074 c 5
-293 1092 m 5
 -326 1092 -357 1086 -389 1074 c 4
 -423 1061 -448 1047 -466 1030 c 5
 -489 1016 -506 998 -516 977 c 5
 -468 982 l 5
 -376 984 l 5
 -297 982 l 5
 -240 977 -195 968 -162 954 c 4
 -132 942 -113 932 -104 924 c 5
 -110 964 -127 1000 -154 1032 c 4
 -181 1066 -227 1085 -293 1092 c 5
EndSplineSet
EndChar
StartChar: uni0E36
Encoding: 214 3638 183
OldEncoding: 3638
Width: 0
Flags: W
HStem: 914 67<-452 -363> 1091 77<-303 -280> 1208 62<-46 -27>
DStem: -363 983 -363 983 -452 981 -284 981
Fore
72 1146 m 1
 64 1116 50 1089 29 1067 c 0
 6 1043 -18 1029 -44 1025 c 1
 -40 1018 -30 994 -16 951 c 1
 -9 905 l 1
 -7 882 -7 859 -10 835 c 1
 -39 847 -75 860 -120 875 c 0
 -159 887 -214 898 -285 907 c 0
 -326 912 -368 914 -414 914 c 2
 -550 910 l 1
 -638 897 l 1
 -621 944 -592 989 -552 1033 c 2
 -551 1034 l 1
 -549 1036 l 2
 -508 1078 -464 1111 -415 1133 c 1
 -371 1157 -326 1168 -282 1168 c 1
 -233 1164 l 1
 -196 1155 l 1
 -179 1148 l 1
 -172 1179 -154 1206 -125 1230 c 1
 -97 1257 -64 1270 -29 1270 c 0
 11 1270 39 1258 55 1235 c 0
 65 1220 70 1204 72 1186 c 1
 72 1146 l 1
-39 1208 m 0
 -61 1208 -77 1202 -88 1191 c 1
 -103 1180 -112 1167 -114 1150 c 1
 -112 1133 l 1
 -106 1111 l 1
 -96 1098 -83 1091 -64 1091 c 0
 -48 1091 -33 1098 -20 1111 c 0
 -7 1122 1 1135 3 1150 c 0
 6 1158 8 1165 7 1171 c 0
 6 1177 4 1183 -1 1191 c 0
 -8 1202 -21 1208 -39 1208 c 0
-280 1091 m 1
 -312 1091 -344 1085 -375 1073 c 0
 -410 1061 -435 1046 -453 1029 c 1
 -474 1014 -490 997 -501 976 c 1
 -452 981 l 1
 -363 983 l 1
 -284 981 l 1
 -226 976 -181 967 -149 954 c 0
 -116 940 -96 930 -88 923 c 1
 -94 962 -112 997 -141 1029 c 1
 -167 1062 -213 1082 -280 1091 c 1
EndSplineSet
EndChar
StartChar: uni0E37
Encoding: 215 3639 184
OldEncoding: 3639
Width: 0
Flags: W
HStem: 915 67<-468 -376> 1092 77<-302 -289>
DStem: -376 984 -376 984 -468 982 -297 982 -220 1257 -132 1257 -239 1162 -158 1134 -44 1257 42 1257 -85 1072 -28 933
Fore
-28 933 m 1
 -26 933 -26 928 -25 919 c 1
 -22 836 l 1
 -56 849 -93 862 -134 875 c 0
 -172 887 -227 898 -298 908 c 0
 -338 913 -381 915 -427 915 c 0
 -490 915 -537 913 -566 910 c 0
 -554 911 -583 907 -653 898 c 1
 -637 945 -607 991 -564 1035 c 0
 -519 1079 -475 1111 -431 1132 c 1
 -383 1157 -336 1169 -289 1169 c 0
 -272 1169 -255 1167 -239 1162 c 1
 -220 1257 l 1
 -132 1257 l 1
 -158 1134 l 1
 -126 1121 -102 1100 -85 1072 c 1
 -44 1257 l 1
 42 1257 l 1
 -28 933 l 1
-293 1092 m 1
 -343 1092 -389 1080 -429 1056 c 0
 -475 1031 -505 1005 -516 977 c 1
 -468 982 l 1
 -376 984 l 1
 -297 982 l 1
 -240 977 -195 968 -162 954 c 0
 -132 942 -113 932 -104 924 c 1
 -125 1020 -188 1076 -293 1092 c 1
EndSplineSet
EndChar
StartChar: uni0E38
Encoding: 216 3640 185
OldEncoding: 3640
Width: 0
Flags: W
HStem: -316 72<-416 -392> -104 72<-368 -349>
DStem: -366 -309 -239 -170 -408 -513 -311 -513
Fore
-311 -513 m 1
 -408 -513 l 1
 -366 -309 l 1
 -381 -314 -398 -316 -416 -316 c 0
 -458 -316 -488 -302 -508 -274 c 1
 -518 -257 -523 -240 -525 -223 c 0
 -526 -205 -525 -189 -521 -175 c 0
 -513 -137 -493 -103 -461 -73 c 0
 -431 -45 -394 -32 -349 -32 c 4
 -307 -32 -276 -44 -257 -69 c 0
 -244 -81 -238 -99 -235 -122 c 0
 -233 -138 -235 -154 -239 -170 c 1
 -311 -513 l 1
-392 -244 m 0
 -372 -244 -354 -237 -338 -223 c 0
 -322 -211 -312 -195 -308 -175 c 1
 -305 -149 l 1
 -306 -139 -309 -131 -315 -124 c 0
 -324 -110 -341 -104 -363 -104 c 0
 -387 -104 -407 -111 -425 -126 c 0
 -439 -141 -448 -157 -451 -175 c 1
 -453 -195 l 1
 -451 -207 -448 -217 -444 -223 c 0
 -433 -237 -416 -244 -392 -244 c 0
EndSplineSet
EndChar
StartChar: uni0E39
Encoding: 217 3641 186
OldEncoding: 3641
Width: 0
Flags: W
HStem: -534 78<-473 -451> -317 72<-630 -610> -104 72<-583 -565>
DStem: -579 -310 -453 -171 -601 -398 -504 -398 -308 -41 -208 -41 -383 -398 -285 -398
Fore
-601 -398 m 2
 -579 -310 l 1
 -597 -315 -614 -317 -630 -317 c 0
 -674 -317 -704 -302 -722 -273 c 0
 -733 -257 -740 -239 -742 -220 c 0
 -744 -203 -742 -188 -738 -173 c 1
 -730 -139 -711 -106 -679 -74 c 1
 -647 -46 -610 -32 -565 -32 c 0
 -524 -32 -493 -45 -473 -69 c 0
 -460 -82 -453 -100 -451 -123 c 0
 -449 -143 -449 -159 -453 -171 c 1
 -504 -398 l 1
 -504 -416 l 1
 -503 -425 -501 -432 -495 -439 c 0
 -488 -450 -475 -456 -458 -456 c 0
 -438 -456 -422 -450 -411 -439 c 1
 -397 -428 -387 -415 -383 -398 c 1
 -308 -41 l 1
 -208 -41 l 5
 -285 -398 l 1
 -297 -440 -319 -473 -355 -498 c 0
 -390 -522 -430 -534 -473 -534 c 0
 -514 -534 -547 -521 -574 -495 c 0
 -592 -480 -602 -460 -604 -437 c 0
 -605 -425 -604 -412 -601 -398 c 2
-612 -245 m 0
 -588 -245 -569 -238 -553 -224 c 0
 -538 -209 -528 -193 -523 -176 c 1
 -521 -153 l 1
 -522 -142 -526 -133 -533 -127 c 1
 -540 -112 -557 -104 -581 -104 c 0
 -605 -104 -624 -111 -639 -125 c 0
 -654 -140 -663 -157 -667 -176 c 1
 -668 -198 l 1
 -667 -209 -664 -217 -658 -224 c 0
 -649 -238 -633 -245 -612 -245 c 0
EndSplineSet
EndChar
StartChar: uni0E3A
Encoding: 218 3642 187
OldEncoding: 3642
Width: 0
Flags: W
Fore
-290 -74 m 0
 -266 -74 -251 -80 -242 -94 c 1
 -234 -120 l 1
 -236 -148 l 1
 -241 -165 -250 -182 -266 -199 c 1
 -281 -213 -300 -219 -324 -219 c 0
 -348 -219 -364 -213 -372 -199 c 0
 -378 -188 -381 -179 -382 -171 c 1
 -379 -148 l 1
 -377 -130 -367 -113 -350 -96 c 0
 -336 -83 -316 -76 -290 -74 c 0
EndSplineSet
EndChar
StartChar: dottedcircle
Encoding: 221 9676 188
OldEncoding: 65536
Width: 1269
VWidth: 1000
Flags: W
HStem: 6 50<617 627> 56 50<423 433> 70 50<797 806> 178 50<304 314> 194 50<920 929> 368 50<986 996> 377 50<276 286> 548 50<958 967> 556 50<355 364> 668 50<845 855> 678 50<504 513> 724 50<693 703>
VStem: 257 49<402 407> 484 50<698 708>
Fore
347 603 m 2
496 725 m 2
415 103 m 2
296 225 m 2
789 117 m 2
912 241 m 2
949 595 m 2
837 715 m 2
978 415 m 2
268 424 m 2
685 771 m 2
362 606 m 0
 374 606 383 598 384 586 c 0
 385 585 385 583 385 581 c 0
 383 567 371 556 357 556 c 0
 345 556 336 564 334 576 c 0
 334 577 334 579 335 581 c 0
 336 595 348 606 362 606 c 0
511 728 m 0
 523 728 532 720 534 708 c 0
 534 707 534 705 534 703 c 0
 533 689 520 678 506 678 c 0
 494 678 485 686 484 698 c 0
 484 699 483 701 484 703 c 0
 485 717 497 728 511 728 c 0
431 106 m 0
 443 106 452 98 453 86 c 0
 453 85 453 83 452 81 c 0
 451 67 439 56 425 56 c 0
 413 56 404 64 403 76 c 0
 403 77 403 79 402 81 c 0
 404 95 417 106 431 106 c 0
312 228 m 0
 324 228 333 220 334 208 c 0
 334 207 334 205 334 203 c 0
 332 189 320 178 306 178 c 0
 294 178 285 186 284 198 c 0
 284 199 284 201 284 203 c 0
 285 217 298 228 312 228 c 0
804 120 m 0
 816 120 825 112 826 100 c 0
 827 99 827 97 826 95 c 0
 824 81 813 70 799 70 c 0
 787 70 778 78 777 90 c 0
 776 91 776 93 776 95 c 0
 778 109 790 120 804 120 c 0
927 244 m 0
 939 244 948 236 949 224 c 0
 950 223 950 221 950 219 c 0
 948 205 936 194 922 194 c 0
 910 194 901 202 900 214 c 0
 899 215 899 217 900 219 c 0
 902 233 913 244 927 244 c 0
965 598 m 0
 977 598 986 590 987 578 c 0
 987 577 988 575 988 573 c 0
 986 559 973 548 960 548 c 0
 948 548 939 556 937 568 c 0
 937 569 938 571 938 573 c 0
 939 587 951 598 965 598 c 0
853 718 m 0
 865 718 873 710 875 698 c 0
 875 697 875 695 874 693 c 0
 873 679 861 668 847 668 c 0
 835 668 826 676 825 688 c 0
 825 689 824 691 824 693 c 0
 826 707 839 718 853 718 c 0
994 418 m 0
 1006 418 1015 410 1016 398 c 0
 1016 397 1016 395 1017 393 c 0
 1015 379 1002 368 988 368 c 0
 976 368 967 376 966 388 c 0
 966 389 966 391 967 393 c 0
 968 407 980 418 994 418 c 0
284 427 m 0
 296 427 305 419 306 407 c 0
 306 406 307 404 307 402 c 0
 305 388 292 377 278 377 c 0
 266 377 258 385 256 397 c 0
 256 398 256 400 257 402 c 0
 257 416 270 427 284 427 c 0
625 56 m 0
 637 56 646 48 647 36 c 0
 647 35 648 33 648 31 c 0
 646 17 633 6 619 6 c 0
 607 6 599 14 597 26 c 0
 597 27 597 29 598 31 c 0
 599 45 611 56 625 56 c 0
701 774 m 0
 713 774 721 766 723 754 c 0
 723 753 723 751 722 749 c 0
 721 735 709 724 695 724 c 0
 683 724 674 732 673 744 c 0
 673 745 672 747 672 749 c 0
 674 763 687 774 701 774 c 0
EndSplineSet
EndChar
StartChar: uni0E3F
Encoding: 223 3647 189
OldEncoding: 3647
Width: 886
Flags: W
HStem: -1 86<287 401 496 590> 388 87<328 442 537 569> 754 85<282 482 567 597.186> 754 185<502 586>
DStem: 282 839 358 754 193 -1 328 475 282 839 319 388 193 -1 287 85 401 -1 486 -1 390 -114 475 -114 442 388 528 388 410 85 496 85 482 754 567 754 452 475 537 475 502 939 586 939 491 839 576 839
Fore
452 475 m 1
 482 754 l 1
 358 754 l 1
 328 475 l 1
 452 475 l 1
410 85 m 1
 442 388 l 1
 319 388 l 1
 287 85 l 1
 410 85 l 1
528 388 m 1
 496 85 l 1
 563 85 l 2
 665 85 722 137 733 240 c 1
 732 282 l 1
 725 353 661 388 539 388 c 2
 528 388 l 1
567 754 m 1
 537 475 l 1
 559 475 l 2
 603 475 641 486 673 509 c 0
 708 533 729 566 733 607 c 1
 734 647 l 1
 727 718 671 754 567 754 c 1
502 939 m 1
 586 939 l 1
 576 839 l 1
 634 839 l 2
 682 839 723 824 760 795 c 0
 797 765 818 726 823 679 c 0
 824 663 824 646 823 628 c 0
 814 546 767 485 682 445 c 1
 732 419 l 2
 781 392 809 350 816 293 c 0
 818 275 817 256 814 234 c 0
 807 161 775 100 718 54 c 0
 675 18 633 -1 590 -1 c 2
 486 -1 l 1
 475 -114 l 1
 390 -114 l 1
 401 -1 l 1
 193 -1 l 1
 282 839 l 1
 491 839 l 1
 502 939 l 1
EndSplineSet
EndChar
StartChar: uni0E40
Encoding: 224 3648 190
OldEncoding: 3648
Width: 439
Flags: W
HStem: -13 71<164 181> 199 72<208 230> 767 20G<195 292>
DStem: 195 787 292 787 53 126 179 264
Fore
195 787 m 1
 292 787 l 1
 179 264 l 1
 192 269 209 271 230 271 c 0
 273 271 304 258 324 230 c 1
 331 215 337 198 339 179 c 0
 341 163 340 146 337 128 c 0
 330 90 310 57 277 29 c 0
 247 1 209 -13 164 -13 c 0
 121 -13 90 -1 70 23 c 0
 59 38 53 56 51 77 c 0
 49 97 49 113 53 126 c 1
 195 787 l 1
211 199 m 0
 190 199 171 193 153 179 c 1
 139 165 128 149 123 130 c 1
 124 107 l 1
 125 98 127 89 131 80 c 1
 142 65 158 58 179 58 c 0
 203 58 223 65 238 80 c 0
 253 94 262 111 266 130 c 1
 267 151 l 1
 266 163 262 172 257 179 c 0
 249 193 233 199 211 199 c 0
EndSplineSet
EndChar
StartChar: uni0E41
Encoding: 225 3649 191
OldEncoding: 3649
Width: 790
Flags: W
HStem: -13 71<142 162 513 531> 199 72<186 208 557 579> 767 20G<174 273 546 644>
DStem: 174 787 273 787 31 126 160 264 546 787 644 787 402 126 530 264
Fore
174 787 m 1
 273 787 l 1
 160 264 l 1
 170 269 186 271 208 271 c 0
 251 271 282 258 303 230 c 1
 312 211 317 194 318 179 c 0
 320 163 321 146 318 128 c 1
 309 89 287 56 256 29 c 0
 226 1 188 -13 142 -13 c 0
 99 -13 68 -1 49 23 c 0
 38 38 31 56 29 77 c 0
 27 97 28 113 31 126 c 1
 174 787 l 1
546 787 m 1
 644 787 l 1
 530 264 l 1
 543 269 559 271 579 271 c 0
 622 271 653 258 672 230 c 1
 682 212 689 194 690 177 c 0
 692 160 691 144 689 128 c 0
 680 91 660 59 626 31 c 1
 596 2 557 -13 513 -13 c 0
 471 -13 441 -1 424 23 c 0
 408 43 400 62 399 80 c 0
 397 91 398 106 402 126 c 1
 546 787 l 1
558 199 m 0
 537 199 519 193 504 179 c 0
 488 162 478 146 472 130 c 1
 471 107 l 1
 472 97 475 89 479 82 c 0
 490 66 506 58 529 58 c 0
 553 58 573 66 588 82 c 1
 603 95 613 112 618 130 c 1
 618 151 l 1
 617 161 614 170 608 179 c 0
 598 193 581 199 558 199 c 0
189 199 m 0
 168 199 149 193 131 179 c 1
 118 165 107 149 101 130 c 1
 102 107 l 1
 103 98 106 89 110 80 c 1
 120 65 137 58 158 58 c 0
 182 58 201 65 217 80 c 0
 232 94 241 111 245 130 c 2
 248 151 l 1
 247 163 243 172 235 179 c 1
 228 193 212 199 189 199 c 0
EndSplineSet
EndChar
StartChar: uni0E42
Encoding: 226 3650 192
OldEncoding: 3650
Width: 456
Flags: W
HStem: -50 71<106 125> 162 72<149 171> 1257 81<448 467> 1315 81<247 267>
DStem: 201 1030 297 1035 -5 89 123 227
Fore
-5 89 m 1
 201 1030 l 1
 210 1066 213 1094 211 1114 c 2
 210 1123 l 1
 206 1139 189 1158 160 1180 c 0
 137 1198 82 1228 -5 1271 c 1
 19 1294 56 1320 105 1350 c 0
 157 1381 211 1396 267 1396 c 0
 299 1396 336 1387 376 1368 c 0
 416 1348 446 1338 465 1338 c 0
 491 1338 519 1348 549 1368 c 1
 575 1301 l 1
 531 1272 489 1257 448 1257 c 0
 423 1257 390 1267 348 1287 c 0
 307 1305 275 1315 250 1315 c 0
 227 1315 206 1311 186 1304 c 0
 169 1296 157 1290 151 1284 c 1
 199 1256 237 1233 264 1215 c 1
 284 1200 297 1180 304 1153 c 1
 308 1134 l 1
 311 1106 307 1073 297 1035 c 1
 123 227 l 1
 134 232 149 234 171 234 c 0
 214 234 247 221 266 193 c 1
 276 174 280 157 282 142 c 0
 284 126 284 109 281 91 c 1
 272 52 251 19 220 -8 c 0
 189 -36 150 -50 106 -50 c 0
 68 -50 38 -38 14 -14 c 1
 2 2 -5 21 -8 45 c 0
 -9 57 -8 71 -5 89 c 1
154 162 m 0
 133 162 113 155 95 142 c 1
 81 127 71 111 66 93 c 0
 65 89 64 81 66 70 c 0
 66 63 68 54 74 42 c 1
 84 28 101 21 123 21 c 0
 146 21 165 28 180 42 c 0
 194 56 204 73 209 93 c 1
 212 114 l 1
 211 126 207 136 199 142 c 1
 191 155 176 162 154 162 c 0
EndSplineSet
EndChar
StartChar: uni0E43
Encoding: 227 3651 193
OldEncoding: 3651
Width: 469
Flags: W
HStem: -50 71<119 140> 162 72<165 184> 1054 55<66 81> 1220 55<99 110> 1333 67<183 208>
DStem: 257 1220 355 1217 8 89 136 226
Fore
8 89 m 1
 257 1220 l 1
 262 1246 264 1265 263 1277 c 0
 259 1314 236 1333 194 1333 c 0
 165 1333 143 1326 126 1312 c 1
 118 1303 108 1290 99 1275 c 1
 139 1275 168 1264 187 1243 c 0
 198 1230 204 1216 206 1202 c 0
 207 1187 207 1175 202 1164 c 1
 195 1133 178 1106 150 1083 c 0
 126 1063 98 1054 68 1054 c 0
 42 1054 21 1060 3 1074 c 0
 -10 1086 -18 1103 -20 1125 c 2
 -21 1132 l 2
 -24 1156 -21 1180 -15 1206 c 1
 -5 1261 21 1307 61 1345 c 0
 102 1382 151 1400 206 1400 c 0
 261 1400 303 1385 331 1354 c 0
 347 1335 356 1314 358 1290 c 0
 361 1263 360 1239 355 1217 c 1
 136 226 l 1
 147 232 162 234 184 234 c 0
 228 234 260 220 279 192 c 1
 289 174 293 157 295 142 c 0
 297 126 297 109 294 91 c 1
 285 52 265 18 234 -9 c 0
 202 -37 164 -50 119 -50 c 0
 81 -50 51 -38 27 -14 c 1
 15 2 8 21 5 44 c 0
 4 57 5 71 8 89 c 1
101 1220 m 0
 83 1220 69 1214 59 1204 c 0
 46 1191 38 1178 36 1164 c 1
 36 1146 l 1
 42 1125 l 1
 48 1114 60 1109 79 1109 c 0
 96 1109 111 1114 124 1125 c 1
 134 1137 142 1150 147 1164 c 1
 147 1182 l 1
 140 1204 l 1
 133 1214 120 1220 101 1220 c 0
167 162 m 0
 146 162 127 155 108 142 c 1
 94 127 84 110 79 93 c 0
 78 89 77 81 79 69 c 0
 79 63 82 54 88 42 c 1
 98 28 114 21 136 21 c 0
 159 21 178 28 194 42 c 0
 208 56 217 73 223 93 c 1
 225 113 l 1
 224 126 220 136 212 142 c 1
 204 155 189 162 167 162 c 0
EndSplineSet
EndChar
StartChar: uni0E44
Encoding: 228 3652 194
OldEncoding: 3652
Width: 540
Flags: W
HStem: -50 71<190 209> 162 72<235 257> 1308 88<339 371>
DStem: 47 1290 118 1315 60 1005 128 1049 256 1319 323 1296 128 1049 175 1000 343 1290 442 1296 81 89 207 226
Fore
81 89 m 1
 343 1290 l 1
 344 1303 l 1
 344 1306 342 1308 339 1308 c 0
 334 1308 328 1304 323 1296 c 1
 175 1000 l 1
 153 961 129 942 102 942 c 0
 77 942 62 958 59 990 c 1
 60 1005 l 1
 47 1290 l 1
 46 1299 l 2
 44 1324 33 1341 15 1347 c 1
 75 1400 l 1
 99 1391 112 1367 116 1328 c 2
 118 1315 l 1
 128 1049 l 1
 256 1319 l 1
 282 1370 320 1396 371 1396 c 0
 400 1396 421 1387 434 1370 c 0
 440 1363 443 1353 444 1341 c 0
 446 1327 445 1312 442 1296 c 1
 207 226 l 1
 220 232 236 234 257 234 c 0
 300 234 332 220 352 192 c 1
 362 174 367 157 369 144 c 0
 371 124 370 107 365 93 c 1
 357 51 337 17 306 -9 c 1
 275 -37 237 -50 190 -50 c 0
 148 -50 118 -38 100 -14 c 1
 88 -1 81 17 79 40 c 0
 77 60 77 76 81 89 c 1
237 162 m 0
 214 162 196 155 181 142 c 0
 165 124 155 108 149 93 c 1
 149 72 l 1
 151 60 154 51 158 44 c 1
 166 29 182 21 205 21 c 0
 230 21 249 28 263 42 c 0
 278 56 288 73 292 93 c 1
 293 113 l 1
 292 125 288 135 283 142 c 0
 275 155 259 162 237 162 c 0
EndSplineSet
EndChar
StartChar: uni0E45
Encoding: 229 3653 195
OldEncoding: 3653
Width: 634
Flags: W
HStem: 751 72<367 405>
DStem: 519 596 617 592 306 -387 403 -387
Fore
96 650 m 1
 137 707 181 750 227 780 c 0
 273 809 330 823 397 823 c 0
 477 823 538 803 581 763 c 1
 606 736 620 706 623 672 c 0
 626 650 623 624 617 592 c 1
 403 -387 l 1
 306 -387 l 1
 519 596 l 2
 524 619 526 638 524 652 c 0
 522 676 513 696 498 712 c 0
 472 738 435 751 385 751 c 0
 337 751 294 739 257 714 c 0
 218 689 185 656 158 615 c 1
 126 634 l 1
 96 650 l 1
EndSplineSet
EndChar
StartChar: uni0E46
Encoding: 230 3654 196
OldEncoding: 3654
Width: 848
Flags: W
HStem: 351 67<386 402> 543 62<421 442> 760 21G<581 581>
DStem: 716 573 815 587 588 -18 681 -27
Fore
687 818 m 1
 726 811 757 796 783 774 c 0
 804 755 816 728 822 695 c 1
 823 689 l 2
 825 663 823 629 815 587 c 1
 681 -27 l 2
 669 -83 650 -128 625 -161 c 0
 596 -200 564 -228 528 -246 c 1
 487 -269 437 -288 377 -302 c 1
 369 -214 l 1
 441 -198 491 -176 523 -149 c 0
 550 -125 573 -82 588 -18 c 1
 716 573 l 1
 723 614 726 646 724 670 c 2
 723 677 l 1
 717 702 700 722 670 737 c 1
 566 679 l 1
 566 679 l 1
 530 700 l 2
 506 716 485 728 469 737 c 1
 434 724 404 703 380 673 c 0
 358 643 343 607 335 563 c 1
 339 568 352 577 373 589 c 0
 389 600 411 605 440 605 c 0
 480 605 509 592 528 568 c 1
 537 553 542 538 544 525 c 0
 545 511 545 496 541 481 c 0
 534 446 516 416 489 390 c 0
 461 364 427 351 386 351 c 0
 347 351 316 362 294 383 c 0
 275 399 261 427 252 466 c 1
 248 485 l 1
 245 518 246 550 253 582 c 0
 266 640 294 690 339 735 c 0
 382 778 431 806 488 818 c 1
 548 783 l 2
 570 769 581 761 581 760 c 1
 581 760 l 1
 687 818 l 1
429 543 m 0
 410 543 394 537 380 525 c 0
 364 512 355 497 352 481 c 1
 352 461 l 1
 359 439 l 1
 367 424 381 418 400 418 c 0
 421 418 438 424 454 437 c 0
 463 446 473 460 479 481 c 1
 482 503 l 1
 481 511 478 519 473 527 c 0
 465 537 450 543 429 543 c 0
EndSplineSet
EndChar
StartChar: uni0E47
Encoding: 231 3655 197
OldEncoding: 3655
Width: 0
Flags: W
HStem: 835 55<-135 -117> 953 73<-337 -322> 1002 51<-103 -87> 1106 69<-167 -131> 1113 71<-296 -273>
Fore
-135 835 m 0
 -161 835 -180 840 -194 850 c 0
 -215 864 -232 879 -247 894 c 0
 -264 914 -280 929 -294 939 c 0
 -309 948 -323 953 -337 953 c 0
 -372 951 -400 935 -420 905 c 0
 -442 870 -456 845 -461 830 c 1
 -488 844 -508 871 -518 911 c 1
 -525 926 -530 943 -532 965 c 0
 -535 985 -534 1006 -528 1029 c 0
 -526 1047 -518 1066 -506 1087 c 0
 -467 1151 -396 1184 -294 1184 c 1
 -231 1182 l 1
 -197 1177 -163 1175 -131 1175 c 0
 -84 1175 -49 1183 -27 1198 c 1
 -2 1214 15 1241 21 1281 c 1
 100 1281 l 1
 86 1218 57 1174 15 1148 c 0
 -30 1120 -89 1106 -165 1106 c 0
 -198 1106 -233 1108 -273 1113 c 1
 -328 1113 -368 1107 -396 1097 c 0
 -426 1084 -444 1063 -450 1033 c 0
 -452 1020 -453 1004 -451 987 c 2
 -448 958 l 1
 -441 967 -427 981 -404 1002 c 1
 -383 1018 -356 1026 -322 1026 c 0
 -296 1026 -272 1021 -250 1009 c 1
 -234 996 -220 984 -209 974 c 1
 -199 998 -183 1018 -160 1031 c 0
 -138 1046 -114 1053 -89 1053 c 0
 -54 1053 -28 1042 -11 1022 c 0
 -2 1009 3 996 5 983 c 0
 6 972 4 960 2 945 c 0
 -7 914 -23 888 -45 867 c 0
 -70 846 -100 835 -135 835 c 0
-123 890 m 0
 -104 890 -90 896 -80 907 c 0
 -72 916 -65 929 -56 945 c 1
 -53 965 l 1
 -54 971 -57 978 -63 985 c 0
 -72 996 -82 1002 -97 1002 c 0
 -116 1002 -132 996 -142 985 c 0
 -153 972 -161 959 -163 945 c 1
 -163 927 l 1
 -160 909 l 1
 -150 896 -138 890 -123 890 c 0
EndSplineSet
EndChar
StartChar: uni0E48
Encoding: 232 3656 198
OldEncoding: 3656
Width: 0
Flags: W
DStem: 24 1580 112 1580 -33 1309 52 1309
Fore
-33 1309 m 5
 24 1580 l 5
 112 1580 l 5
 52 1309 l 5
 -33 1309 l 5
EndSplineSet
EndChar
StartChar: uni0E49
Encoding: 233 3657 199
OldEncoding: 3657
Width: 0
Flags: W
HStem: 1295 68<-144 -114> 1570 60<-153 -131>
Fore
-31 1508 m 4
 -39 1472 -52 1440 -72 1411 c 4
 -89 1387 -103 1371 -116 1363 c 5
 -49 1363 7 1379 52 1413 c 4
 86 1440 111 1469 126 1501 c 4
 142 1532 155 1572 165 1621 c 5
 250 1621 l 5
 219 1477 149 1381 40 1332 c 4
 -15 1307 -77 1295 -144 1295 c 5
 -216 1299 l 5
 -257 1309 l 5
 -213 1337 l 5
 -190 1356 -173 1379 -163 1404 c 5
 -173 1401 l 5
 -194 1399 l 5
 -223 1404 l 5
 -257 1416 -276 1438 -280 1471 c 4
 -281 1483 -280 1498 -278 1515 c 4
 -272 1539 -263 1558 -249 1573 c 5
 -235 1591 -218 1605 -198 1617 c 4
 -179 1626 -157 1630 -133 1630 c 4
 -92 1630 -63 1618 -45 1593 c 4
 -36 1578 -31 1564 -30 1550 c 4
 -28 1536 -29 1522 -31 1508 c 4
-145 1570 m 4
 -163 1570 -177 1565 -187 1555 c 4
 -201 1541 -210 1528 -213 1515 c 5
 -213 1494 l 5
 -207 1475 l 5
 -198 1463 -185 1457 -170 1457 c 4
 -151 1457 -137 1463 -126 1475 c 5
 -111 1485 -102 1498 -99 1515 c 6
 -97 1533 l 5
 -103 1555 l 5
 -110 1565 -124 1570 -145 1570 c 4
EndSplineSet
EndChar
StartChar: uni0E4A
Encoding: 234 3658 200
OldEncoding: 3658
Width: 0
Flags: W
HStem: 1288 42<-235 -220> 1432 42<-205 -193> 1531 62<-181.151 -153 -25 4>
Fore
-235 1288 m 4
 -263 1290 -283 1299 -296 1313 c 4
 -311 1330 -321 1351 -327 1376 c 5
 -328 1388 l 6
 -331 1413 -329 1435 -324 1452 c 4
 -313 1494 -293 1528 -263 1554 c 4
 -235 1580 -203 1593 -168 1593 c 4
 -151 1593 -137 1591 -126 1587 c 5
 -114 1580 -104 1574 -99 1568 c 5
 -87 1554 l 5
 -56 1580 l 5
 -40 1589 -20 1593 4 1593 c 4
 39 1593 63 1580 75 1554 c 5
 82 1522 l 5
 84 1504 82 1481 78 1452 c 5
 71 1420 54 1387 29 1353 c 5
 72 1376 l 6
 86 1385 104 1399 124 1419 c 5
 149 1450 164 1482 171 1514 c 4
 176 1533 179 1553 178 1575 c 5
 251 1598 l 5
 252 1587 250 1568 245 1540 c 5
 231 1478 204 1425 165 1381 c 4
 114 1324 29 1295 -88 1295 c 5
 -34 1353 l 6
 -12 1377 2 1406 10 1438 c 4
 15 1462 17 1481 16 1496 c 6
 15 1505 l 5
 11 1522 -2 1531 -25 1531 c 4
 -44 1531 -58 1525 -69 1514 c 6
 -99 1487 l 5
 -102 1494 -108 1503 -116 1514 c 5
 -127 1525 -145 1531 -168 1531 c 4
 -187 1531 -204 1525 -220 1512 c 4
 -235 1499 -245 1481 -249 1459 c 5
 -226 1468 l 5
 -195 1474 l 5
 -168 1474 -147 1465 -131 1448 c 4
 -124 1438 -120 1426 -118 1412 c 4
 -117 1402 -118 1390 -122 1376 c 4
 -127 1355 -140 1335 -161 1315 c 5
 -185 1297 -210 1288 -235 1288 c 4
-205 1432 m 4
 -222 1432 -235 1426 -245 1415 c 4
 -256 1402 -263 1391 -263 1381 c 5
 -266 1364 l 5
 -266 1356 -262 1350 -257 1346 c 5
 -251 1335 -242 1330 -227 1330 c 4
 -208 1330 -193 1335 -184 1346 c 5
 -174 1352 -166 1364 -162 1381 c 5
 -161 1399 l 5
 -168 1417 l 5
 -176 1427 -188 1432 -205 1432 c 4
EndSplineSet
EndChar
StartChar: uni0E4B
Encoding: 235 3659 201
OldEncoding: 3659
Width: 0
Flags: W
HStem: 1422 79<-155 -27 75 202>
DStem: -27 1422 58 1422 -53 1309 32 1309 15 1617 100 1617 -10 1501 75 1501
Fore
-27 1422 m 5
 -171 1422 l 5
 -154 1501 l 5
 -10 1501 l 5
 15 1617 l 5
 100 1617 l 5
 75 1501 l 5
 219 1501 l 5
 202 1422 l 5
 58 1422 l 5
 32 1309 l 5
 -53 1309 l 5
 -27 1422 l 5
EndSplineSet
EndChar
StartChar: uni0E4C
Encoding: 236 3660 202
OldEncoding: 3660
Width: 0
Flags: W
HStem: 1238 62<-55 -39>
Fore
-103 1404 m 1
 -97 1415 -87 1425 -73 1435 c 0
 -60 1444 -38 1450 -8 1453 c 1
 27 1450 50 1440 62 1421 c 0
 72 1406 77 1394 79 1384 c 0
 80 1369 78 1357 75 1346 c 1
 67 1318 52 1293 29 1273 c 0
 5 1250 -24 1238 -55 1238 c 0
 -101 1236 -135 1249 -157 1278 c 1
 -167 1289 -173 1305 -175 1326 c 0
 -177 1343 -176 1360 -172 1379 c 0
 -163 1415 -149 1446 -131 1472 c 1
 -105 1500 -77 1520 -49 1532 c 1
 -12 1545 30 1552 79 1554 c 0
 127 1557 166 1563 194 1574 c 1
 220 1580 237 1602 246 1638 c 1
 315 1638 l 1
 308 1605 293 1578 270 1557 c 0
 246 1536 222 1522 200 1516 c 1
 171 1504 130 1497 78 1495 c 0
 30 1492 -9 1486 -39 1476 c 1
 -65 1465 -85 1441 -103 1404 c 1
-20 1397 m 0
 -53 1397 -73 1381 -81 1349 c 1
 -81 1335 l 1
 -75 1316 l 1
 -68 1305 -57 1300 -41 1300 c 0
 -27 1300 -13 1305 -2 1314 c 1
 8 1328 16 1340 19 1349 c 1
 22 1365 l 1
 21 1373 18 1379 13 1384 c 0
 5 1393 -6 1397 -20 1397 c 0
EndSplineSet
EndChar
StartChar: uni0E4D
Encoding: 237 3661 203
OldEncoding: 3661
Width: 0
Flags: W
HStem: 908 66<-190 -173> 1128 64<-144 -126>
Fore
-188 908 m 4
 -233 908 -265 922 -284 952 c 4
 -295 969 -301 987 -303 1005 c 4
 -304 1021 -303 1037 -298 1051 c 5
 -291 1088 -272 1120 -240 1148 c 4
 -209 1178 -171 1192 -126 1192 c 4
 -82 1192 -51 1178 -31 1151 c 4
 -20 1135 -15 1118 -13 1100 c 4
 -11 1082 -12 1066 -16 1051 c 5
 -23 1012 -43 978 -76 949 c 4
 -107 922 -145 908 -188 908 c 4
-141 1128 m 4
 -168 1128 -188 1120 -203 1104 c 5
 -221 1088 -233 1071 -236 1051 c 5
 -238 1029 l 5
 -237 1015 -234 1004 -227 996 c 4
 -216 981 -199 974 -175 974 c 4
 -149 974 -129 981 -112 996 c 4
 -95 1012 -84 1031 -79 1051 c 5
 -76 1077 l 5
 -77 1082 -79 1085 -81 1086 c 5
 -86 1101 -93 1111 -102 1117 c 4
 -113 1124 -126 1128 -141 1128 c 4
EndSplineSet
EndChar
StartChar: uni0E4E
Encoding: 238 3662 204
OldEncoding: 3662
Width: 0
Flags: W
HStem: 947 50<-325 -283> 1141 32<-246 -175>
Fore
-172 990 m 1
 -209 961 -260 947 -325 947 c 0
 -399 947 -438 970 -443 1017 c 1
 -443 1039 l 1
 -440 1069 -427 1094 -404 1115 c 0
 -365 1154 -313 1173 -246 1173 c 0
 -265 1173 -283 1178 -298 1190 c 0
 -313 1202 -322 1217 -324 1235 c 1
 -323 1251 l 1
 -308 1301 -251 1334 -156 1348 c 1
 -113 1350 l 2
 -73 1352 -44 1347 -25 1336 c 1
 -76 1300 l 1
 -93 1304 l 1
 -124 1310 l 1
 -161 1304 l 1
 -200 1293 -224 1273 -232 1242 c 1
 -232 1229 l 1
 -231 1216 -224 1206 -211 1198 c 1
 -185 1187 l 1
 -151 1184 l 1
 -175 1141 l 1
 -214 1141 -250 1134 -282 1120 c 0
 -323 1100 -342 1073 -338 1038 c 0
 -335 1010 -317 997 -283 997 c 0
 -252 997 -227 1005 -208 1022 c 1
 -172 990 l 1
EndSplineSet
EndChar
StartChar: uni0E4F
Encoding: 239 3663 205
OldEncoding: 3663
Width: 741
Flags: W
HStem: 1 77<250 284> 173 77<300 319> 539 75<378 396> 709 78<410 444>
Fore
380 539 m 1
 303 539 226 474 209 394 c 0
 191 315 240 250 317 250 c 0
 394 250 471 315 489 394 c 1
 506 474 458 541 380 539 c 1
262 1 m 0
 141 1 54 40 1 118 c 0
 -51 198 -65 290 -42 394 c 0
 -19 502 36 594 120 672 c 0
 205 749 310 787 435 787 c 0
 518 787 586 769 638 732 c 1
 690 693 724 644 739 586 c 0
 757 527 756 463 742 394 c 0
 726 324 698 260 656 202 c 0
 614 144 559 95 490 56 c 1
 422 19 346 1 262 1 c 0
417 709 m 0
 319 709 236 678 166 617 c 0
 97 554 54 480 35 394 c 0
 23 341 23 290 35 241 c 0
 48 193 76 154 118 124 c 1
 158 93 212 78 279 78 c 0
 346 78 407 93 463 124 c 0
 515 152 560 190 597 239 c 1
 632 290 654 341 666 394 c 0
 677 445 677 496 665 547 c 1
 648 597 621 637 582 665 c 0
 540 695 485 709 417 709 c 0
300 173 m 0
 255 173 218 183 187 204 c 0
 157 227 138 255 131 288 c 0
 122 322 121 358 130 394 c 0
 137 429 153 465 177 500 c 0
 199 533 230 560 270 582 c 0
 311 603 353 614 396 614 c 0
 442 614 480 603 511 582 c 0
 540 561 559 534 566 500 c 0
 576 466 577 430 569 394 c 0
 556 335 525 284 477 239 c 0
 428 195 368 173 300 173 c 0
EndSplineSet
EndChar
StartChar: uni0E50
Encoding: 240 3664 206
OldEncoding: 3664
Width: 770
Flags: W
HStem: 4 90<304 338> 492 90<413 438>
Fore
307 4 m 0
 203 4 128 33 82 92 c 0
 56 127 40 165 35 207 c 0
 32 235 34 264 41 293 c 0
 52 345 75 392 108 434 c 0
 144 479 189 515 245 543 c 1
 304 569 368 582 436 582 c 0
 504 582 562 569 609 543 c 1
 653 514 683 478 699 434 c 0
 706 415 710 397 712 379 c 0
 715 350 713 322 706 293 c 0
 696 246 673 199 637 152 c 0
 600 106 555 70 500 46 c 0
 442 18 378 4 307 4 c 0
415 492 m 0
 343 492 283 473 236 434 c 0
 186 394 155 346 145 293 c 0
 141 274 140 255 142 235 c 0
 146 204 155 177 173 154 c 0
 206 114 257 94 327 94 c 0
 399 94 459 114 509 154 c 0
 560 195 591 241 602 293 c 0
 606 311 607 331 605 353 c 0
 602 380 591 407 572 434 c 1
 540 473 488 492 415 492 c 0
EndSplineSet
EndChar
StartChar: uni0E51
Encoding: 241 3665 207
OldEncoding: 3665
Width: 768
Flags: W
HStem: 50 85<243 267> 158 64<346 360> 348 62<386 402> 516 86<419 453>
Fore
148 304 m 0
 144 286 143 267 145 248 c 0
 147 227 154 207 165 186 c 0
 184 152 217 135 261 135 c 0
 287 135 315 142 346 158 c 1
 324 158 297 165 265 178 c 1
 244 191 232 209 230 233 c 0
 228 244 229 256 233 269 c 0
 242 312 263 346 296 370 c 0
 328 397 363 410 400 410 c 0
 452 410 487 396 506 368 c 0
 516 354 522 337 524 317 c 0
 526 298 525 279 521 260 c 0
 510 220 492 184 465 151 c 0
 437 120 407 95 371 77 c 0
 331 59 291 50 251 50 c 0
 176 50 122 72 89 116 c 0
 69 142 58 174 54 213 c 0
 51 241 53 271 58 304 c 1
 70 359 96 409 137 454 c 1
 178 504 224 540 276 563 c 0
 332 589 388 602 444 602 c 0
 549 600 627 569 680 509 c 0
 707 477 724 436 730 385 c 0
 733 349 730 310 722 269 c 0
 707 199 680 143 642 98 c 1
 604 51 551 4 483 -43 c 1
 436 5 l 1
 543 79 608 166 631 269 c 1
 638 307 640 337 637 357 c 0
 634 390 623 420 603 447 c 0
 568 493 509 516 424 516 c 0
 358 516 299 496 247 456 c 0
 195 416 162 365 148 304 c 0
388 348 m 0
 369 348 353 342 339 330 c 0
 324 316 314 302 312 286 c 1
 309 267 l 1
 310 258 313 251 318 244 c 0
 327 230 341 222 360 222 c 0
 381 222 397 230 411 244 c 1
 425 254 435 268 437 286 c 1
 440 306 l 1
 432 330 l 1
 424 342 409 348 388 348 c 0
EndSplineSet
EndChar
StartChar: uni0E52
Encoding: 242 3666 208
OldEncoding: 3666
Width: 948
Flags: W
HStem: -3 88<221 585> 161 68<326 345> 363 69<370 386> 485 81<444 460>
DStem: 110 633 218 681 24 242 121 237 746 383 849 411 702 180 799 180
Fore
203 326 m 0
 215 375 234 417 259 452 c 1
 285 491 317 518 353 536 c 1
 388 556 424 566 460 566 c 0
 500 566 529 558 548 540 c 0
 568 522 580 508 583 498 c 1
 589 511 605 526 628 542 c 1
 652 561 686 571 731 571 c 0
 780 571 815 554 835 520 c 1
 843 501 848 482 850 462 c 0
 852 444 852 427 849 411 c 1
 799 180 l 2
 785 119 760 72 723 41 c 0
 689 11 633 -3 554 -3 c 2
 232 -3 l 2
 134 -3 71 16 41 54 c 1
 27 77 18 102 15 129 c 0
 12 160 15 197 24 242 c 1
 110 633 l 2
 118 671 121 700 119 721 c 0
 115 745 102 761 82 770 c 1
 179 836 l 1
 206 818 222 791 226 754 c 0
 228 733 225 709 218 681 c 1
 121 237 l 1
 116 216 115 194 117 173 c 1
 117 153 123 136 133 124 c 1
 154 98 191 85 247 85 c 2
 573 85 l 2
 615 85 645 92 663 107 c 0
 681 121 694 145 702 180 c 2
 746 383 l 2
 750 401 751 419 749 436 c 0
 746 469 728 485 695 485 c 0
 661 485 632 472 611 448 c 1
 589 426 572 404 558 383 c 1
 544 418 l 1
 540 426 528 441 508 462 c 1
 491 477 470 485 446 485 c 0
 419 485 396 478 373 465 c 1
 349 445 332 427 324 411 c 1
 328 417 336 421 344 425 c 0
 356 429 370 432 386 432 c 0
 413 432 436 426 455 414 c 0
 472 402 484 385 490 365 c 1
 492 346 l 2
 493 329 492 312 488 297 c 1
 482 260 464 227 436 200 c 1
 405 174 368 161 326 161 c 0
 282 161 248 176 222 207 c 0
 210 223 203 242 200 266 c 0
 198 287 199 307 203 326 c 0
371 363 m 0
 350 363 334 356 320 344 c 1
 304 332 294 316 289 295 c 1
 287 275 l 1
 288 264 291 255 297 249 c 0
 305 235 320 229 343 229 c 0
 364 229 381 235 396 249 c 1
 410 258 418 274 424 295 c 1
 425 321 l 1
 419 344 l 1
 407 356 391 363 371 363 c 0
EndSplineSet
EndChar
StartChar: uni0E53
Encoding: 243 3667 209
OldEncoding: 3667
Width: 910
Flags: W
HStem: 3 86<142 175> 224 72<202 225> 513 86<318 343 662 683>
DStem: 431 359 532 359 355 12 456 12
Fore
324 513 m 0
 271 513 229 491 201 447 c 0
 171 399 149 341 137 273 c 1
 167 287 l 2
 181 293 201 296 225 296 c 0
 269 296 300 283 318 255 c 0
 329 240 334 224 336 206 c 0
 338 188 336 171 332 155 c 0
 321 114 301 78 269 49 c 0
 234 18 192 3 142 3 c 0
 85 0 49 26 34 81 c 1
 27 120 l 1
 22 173 29 240 48 321 c 0
 60 371 78 417 105 458 c 0
 131 500 166 534 208 560 c 0
 250 586 294 599 341 599 c 0
 401 599 441 585 461 555 c 1
 484 527 497 502 502 480 c 1
 505 491 523 514 556 548 c 0
 592 582 634 599 683 599 c 0
 756 599 804 570 827 511 c 0
 833 493 838 472 841 449 c 0
 845 407 840 350 826 278 c 1
 800 166 761 77 713 12 c 1
 607 12 l 1
 629 32 653 69 678 122 c 0
 703 175 720 232 731 292 c 1
 745 347 750 393 746 429 c 1
 741 451 l 1
 729 493 703 513 662 513 c 0
 599 513 556 462 532 359 c 1
 456 12 l 1
 355 12 l 1
 431 359 l 2
 435 377 436 397 434 416 c 0
 432 436 427 453 420 467 c 0
 403 498 371 513 324 513 c 0
204 224 m 0
 183 224 165 217 151 204 c 1
 137 193 126 177 120 157 c 1
 121 135 l 1
 122 124 125 116 131 109 c 0
 139 95 154 89 175 89 c 0
 196 89 213 95 228 109 c 1
 242 119 253 136 257 157 c 1
 257 181 l 1
 251 204 l 1
 242 217 226 224 204 224 c 0
EndSplineSet
EndChar
